<?xml version="1.0" encoding="utf-8" standalone="no"?>
<!DOCTYPE svg PUBLIC "-//W3C//DTD SVG 1.1//EN"
  "http://www.w3.org/Graphics/SVG/1.1/DTD/svg11.dtd">
<!-- Created with matplotlib (https://matplotlib.org/) -->
<svg height="345.6pt" version="1.1" viewBox="0 0 460.8 345.6" width="460.8pt" xmlns="http://www.w3.org/2000/svg" xmlns:xlink="http://www.w3.org/1999/xlink">
 <metadata>
  <rdf:RDF xmlns:cc="http://creativecommons.org/ns#" xmlns:dc="http://purl.org/dc/elements/1.1/" xmlns:rdf="http://www.w3.org/1999/02/22-rdf-syntax-ns#">
   <cc:Work>
    <dc:type rdf:resource="http://purl.org/dc/dcmitype/StillImage"/>
    <dc:date>2021-01-10T17:26:16.893454</dc:date>
    <dc:format>image/svg+xml</dc:format>
    <dc:creator>
     <cc:Agent>
      <dc:title>Matplotlib v3.3.3, https://matplotlib.org/</dc:title>
     </cc:Agent>
    </dc:creator>
   </cc:Work>
  </rdf:RDF>
 </metadata>
 <defs>
  <style type="text/css">*{stroke-linecap:butt;stroke-linejoin:round;}</style>
 </defs>
 <g id="figure_1">
  <g id="patch_1">
   <path d="M 0 345.6 
L 460.8 345.6 
L 460.8 0 
L 0 0 
z
" style="fill:#ffffff;"/>
  </g>
  <g id="axes_1">
   <g id="patch_2">
    <path d="M 57.6 307.584 
L 414.72 307.584 
L 414.72 41.472 
L 57.6 41.472 
z
" style="fill:#ffffff;"/>
   </g>
   <g id="PolyCollection_1">
    <path clip-path="url(#p1e92a5ed6c)" d="M 73.832727 192.675633 
L 73.832727 196.614654 
L 77.079273 258.569819 
L 80.325818 258.44156 
L 83.572364 260.367404 
L 86.818909 259.964915 
L 90.065455 258.044202 
L 93.312 260.49536 
L 96.558545 257.873251 
L 99.805091 260.07571 
L 103.051636 224.26282 
L 106.298182 230.002364 
L 109.544727 224.215707 
L 112.791273 228.355016 
L 116.037818 225.733126 
L 119.284364 222.916932 
L 122.530909 222.746719 
L 125.777455 224.390322 
L 129.024 226.712107 
L 132.270545 223.76536 
L 135.517091 225.185295 
L 138.763636 224.185552 
L 142.010182 222.06909 
L 145.256727 225.820656 
L 148.503273 227.96033 
L 151.749818 225.512955 
L 154.996364 225.044296 
L 158.242909 226.921888 
L 161.489455 224.115311 
L 164.736 226.851675 
L 167.982545 226.075153 
L 171.229091 224.73316 
L 174.475636 225.928096 
L 177.722182 225.996654 
L 180.968727 227.360558 
L 184.215273 225.360299 
L 187.461818 226.03729 
L 190.708364 222.293339 
L 193.954909 227.836288 
L 197.201455 225.108986 
L 200.448 226.157774 
L 203.694545 224.815619 
L 206.941091 224.203269 
L 210.187636 226.199959 
L 213.434182 224.564191 
L 216.680727 226.453068 
L 219.927273 223.574074 
L 223.173818 224.802437 
L 226.420364 225.676261 
L 229.666909 227.762856 
L 232.913455 226.615979 
L 236.16 225.878918 
L 239.406545 226.582153 
L 242.653091 179.410495 
L 245.899636 90.428961 
L 249.146182 91.259708 
L 252.392727 90.947689 
L 255.639273 91.259869 
L 258.885818 90.669862 
L 262.132364 91.460851 
L 265.378909 91.09742 
L 268.625455 91.126096 
L 271.872 90.836771 
L 275.118545 91.378064 
L 278.365091 90.607393 
L 281.611636 91.296756 
L 284.858182 90.833798 
L 288.104727 90.424749 
L 291.351273 90.683715 
L 294.597818 90.391017 
L 297.844364 90.105887 
L 301.090909 91.565662 
L 304.337455 91.416257 
L 307.584 90.546464 
L 310.830545 89.558748 
L 314.077091 90.754236 
L 317.323636 90.572633 
L 320.570182 90.274139 
L 323.816727 91.421651 
L 327.063273 90.611581 
L 330.309818 90.920718 
L 333.556364 91.506191 
L 336.802909 90.859894 
L 340.049455 91.329446 
L 343.296 90.645688 
L 346.542545 91.450432 
L 349.789091 91.456059 
L 353.035636 92.107451 
L 356.282182 91.360897 
L 359.528727 90.58375 
L 362.775273 90.793428 
L 366.021818 91.466092 
L 369.268364 90.168568 
L 372.514909 90.079606 
L 375.761455 90.593873 
L 379.008 89.579915 
L 382.254545 90.825923 
L 385.501091 90.60229 
L 388.747636 89.444007 
L 391.994182 90.42214 
L 395.240727 91.512286 
L 398.487273 90.314888 
L 398.487273 88.562692 
L 398.487273 88.562692 
L 395.240727 87.937282 
L 391.994182 86.995884 
L 388.747636 88.171254 
L 385.501091 88.65004 
L 382.254545 89.136462 
L 379.008 87.542253 
L 375.761455 88.796523 
L 372.514909 88.659908 
L 369.268364 89.399342 
L 366.021818 88.535741 
L 362.775273 89.070338 
L 359.528727 90.187308 
L 356.282182 88.818449 
L 353.035636 88.249408 
L 349.789091 88.309089 
L 346.542545 89.261454 
L 343.296 88.152996 
L 340.049455 89.402164 
L 336.802909 88.905254 
L 333.556364 88.041995 
L 330.309818 88.568297 
L 327.063273 88.719645 
L 323.816727 87.850403 
L 320.570182 87.301675 
L 317.323636 88.778316 
L 314.077091 88.636161 
L 310.830545 87.149222 
L 307.584 89.553986 
L 304.337455 88.585576 
L 301.090909 87.548602 
L 297.844364 88.890035 
L 294.597818 89.038827 
L 291.351273 88.844748 
L 288.104727 88.709239 
L 284.858182 88.596046 
L 281.611636 89.513749 
L 278.365091 89.729743 
L 275.118545 88.308188 
L 271.872 88.57335 
L 268.625455 89.132145 
L 265.378909 88.766346 
L 262.132364 88.6396 
L 258.885818 88.621916 
L 255.639273 89.037819 
L 252.392727 88.067957 
L 249.146182 88.367373 
L 245.899636 88.862817 
L 242.653091 55.147163 
L 239.406545 66.949446 
L 236.16 67.159587 
L 232.913455 66.521145 
L 229.666909 66.636586 
L 226.420364 65.666004 
L 223.173818 65.435299 
L 219.927273 66.446701 
L 216.680727 66.447371 
L 213.434182 66.620284 
L 210.187636 67.449982 
L 206.941091 65.541374 
L 203.694545 66.940844 
L 200.448 66.012887 
L 197.201455 67.318083 
L 193.954909 66.681497 
L 190.708364 67.687989 
L 187.461818 66.172819 
L 184.215273 66.415888 
L 180.968727 66.210488 
L 177.722182 66.371245 
L 174.475636 66.558145 
L 171.229091 66.885237 
L 167.982545 65.701034 
L 164.736 66.068488 
L 161.489455 65.727951 
L 158.242909 65.879933 
L 154.996364 66.968576 
L 151.749818 65.947652 
L 148.503273 65.551545 
L 145.256727 68.263207 
L 142.010182 66.748537 
L 138.763636 66.209973 
L 135.517091 67.143157 
L 132.270545 67.064088 
L 129.024 66.503911 
L 125.777455 67.011114 
L 122.530909 67.037372 
L 119.284364 66.92633 
L 116.037818 66.575601 
L 112.791273 65.413267 
L 109.544727 67.047663 
L 106.298182 65.600226 
L 103.051636 66.862484 
L 99.805091 253.257089 
L 96.558545 256.110431 
L 93.312 255.815722 
L 90.065455 254.815228 
L 86.818909 257.430972 
L 83.572364 255.095558 
L 80.325818 254.57566 
L 77.079273 253.697899 
L 73.832727 192.675633 
z
" style="fill:#1f77b4;fill-opacity:0.3;"/>
   </g>
   <g id="PolyCollection_2">
    <path clip-path="url(#p1e92a5ed6c)" d="M 73.832727 172.932397 
L 73.832727 244.898122 
L 77.079273 185.338656 
L 80.325818 245.612891 
L 83.572364 186.806277 
L 86.818909 224.882992 
L 90.065455 226.147776 
L 93.312 225.898119 
L 96.558545 186.185367 
L 99.805091 222.966885 
L 103.051636 222.566105 
L 106.298182 183.073999 
L 109.544727 226.292197 
L 112.791273 223.294547 
L 116.037818 222.630169 
L 119.284364 225.101376 
L 122.530909 222.489956 
L 125.777455 222.105137 
L 129.024 191.562247 
L 132.270545 223.316729 
L 135.517091 185.295798 
L 138.763636 224.857428 
L 142.010182 256.746965 
L 145.256727 256.155381 
L 148.503273 185.771978 
L 151.749818 190.160665 
L 154.996364 244.77162 
L 158.242909 261.007046 
L 161.489455 268.639672 
L 164.736 241.799193 
L 167.982545 225.931002 
L 171.229091 246.177248 
L 174.475636 188.41178 
L 177.722182 189.631954 
L 180.968727 186.52928 
L 184.215273 185.218365 
L 187.461818 184.516799 
L 190.708364 242.260548 
L 193.954909 224.885547 
L 197.201455 245.524986 
L 200.448 226.12301 
L 203.694545 241.639021 
L 206.941091 222.844187 
L 210.187636 241.886015 
L 213.434182 187.455088 
L 216.680727 227.017857 
L 219.927273 184.502274 
L 223.173818 222.435681 
L 226.420364 186.263941 
L 229.666909 222.94183 
L 232.913455 227.282552 
L 236.16 222.866689 
L 239.406545 222.979073 
L 242.653091 183.453451 
L 245.899636 224.579306 
L 249.146182 222.545732 
L 252.392727 221.855392 
L 255.639273 243.631762 
L 258.885818 184.720175 
L 262.132364 245.286288 
L 265.378909 223.373718 
L 268.625455 184.429665 
L 271.872 187.258081 
L 275.118545 227.139628 
L 278.365091 244.586358 
L 281.611636 242.916926 
L 284.858182 223.139462 
L 288.104727 183.589185 
L 291.351273 182.468232 
L 294.597818 242.699015 
L 297.844364 186.63802 
L 301.090909 185.604813 
L 304.337455 189.749589 
L 307.584 223.37932 
L 310.830545 220.900407 
L 314.077091 183.669692 
L 317.323636 223.001092 
L 320.570182 222.082743 
L 323.816727 244.197853 
L 327.063273 221.538456 
L 330.309818 241.25266 
L 333.556364 186.798677 
L 336.802909 189.465393 
L 340.049455 190.675933 
L 343.296 242.932954 
L 346.542545 226.480627 
L 349.789091 223.760773 
L 353.035636 189.096991 
L 356.282182 222.434978 
L 359.528727 226.135087 
L 362.775273 240.990579 
L 366.021818 224.390631 
L 369.268364 184.583276 
L 372.514909 258.191216 
L 375.761455 223.335494 
L 379.008 185.669464 
L 382.254545 187.136395 
L 385.501091 222.333624 
L 388.747636 223.103492 
L 391.994182 242.442368 
L 395.240727 225.251016 
L 398.48078 240.919772 
L 398.48078 173.577437 
L 398.48078 173.577437 
L 395.240727 167.964293 
L 391.994182 174.086385 
L 388.747636 169.342592 
L 385.501091 168.554286 
L 382.254545 180.181662 
L 379.008 178.926719 
L 375.761455 166.033688 
L 372.514909 180.645071 
L 369.268364 178.119429 
L 366.021818 169.79114 
L 362.775273 170.212768 
L 359.528727 164.713375 
L 356.282182 165.948018 
L 353.035636 176.662891 
L 349.789091 167.403268 
L 346.542545 165.472363 
L 343.296 174.3453 
L 340.049455 180.507974 
L 336.802909 180.180063 
L 333.556364 178.527284 
L 330.309818 170.581846 
L 327.063273 163.925429 
L 323.816727 166.788533 
L 320.570182 165.057658 
L 317.323636 169.444991 
L 314.077091 178.697709 
L 310.830545 164.701544 
L 307.584 167.252181 
L 304.337455 180.960948 
L 301.090909 177.847394 
L 297.844364 177.30728 
L 294.597818 170.259744 
L 291.351273 174.455421 
L 288.104727 176.273304 
L 284.858182 167.492039 
L 281.611636 173.907682 
L 278.365091 170.975933 
L 275.118545 170.829099 
L 271.872 179.330198 
L 268.625455 172.572883 
L 265.378909 167.178888 
L 262.132364 169.467329 
L 258.885818 178.593965 
L 255.639273 173.666216 
L 252.392727 164.200205 
L 249.146182 163.766273 
L 245.899636 168.221804 
L 242.653091 178.657543 
L 239.406545 167.711599 
L 236.16 162.261893 
L 232.913455 168.989935 
L 229.666909 166.979617 
L 226.420364 180.344062 
L 223.173818 165.769801 
L 219.927273 177.963747 
L 216.680727 165.447951 
L 213.434182 181.164735 
L 210.187636 174.859699 
L 206.941091 164.611794 
L 203.694545 169.367088 
L 200.448 167.15147 
L 197.201455 173.114205 
L 193.954909 169.769594 
L 190.708364 173.794836 
L 187.461818 176.686902 
L 184.215273 175.84727 
L 180.968727 181.12408 
L 177.722182 177.607208 
L 174.475636 182.57489 
L 171.229091 174.631554 
L 167.982545 166.357291 
L 164.736 170.784815 
L 161.489455 196.409446 
L 158.242909 182.79962 
L 154.996364 169.607247 
L 151.749818 179.188936 
L 148.503273 179.415917 
L 145.256727 183.173999 
L 142.010182 185.047881 
L 138.763636 166.996944 
L 135.517091 174.901994 
L 132.270545 165.717151 
L 129.024 179.759727 
L 125.777455 164.680238 
L 122.530909 167.983755 
L 119.284364 168.962053 
L 116.037818 168.553597 
L 112.791273 163.490828 
L 109.544727 166.80477 
L 106.298182 178.64252 
L 103.051636 164.672915 
L 99.805091 168.53246 
L 96.558545 176.122864 
L 93.312 169.407905 
L 90.065455 169.039905 
L 86.818909 167.523644 
L 83.572364 178.440789 
L 80.325818 171.586469 
L 77.079273 176.831509 
L 73.832727 172.932397 
z
" style="fill:#ff7f0e;fill-opacity:0.3;"/>
   </g>
   <g id="PolyCollection_3">
    <path clip-path="url(#p1e92a5ed6c)" d="M 73.832727 221.165694 
L 73.832727 272.541998 
L 77.079273 260.541671 
L 80.325818 295.488 
L 83.572364 294.996586 
L 86.818909 272.789704 
L 90.065455 281.130814 
L 93.312 272.357872 
L 96.558545 223.843431 
L 99.805091 257.177359 
L 103.051636 182.417859 
L 106.298182 179.776413 
L 109.544727 224.548154 
L 112.791273 180.863573 
L 116.037818 224.765667 
L 119.284364 225.337697 
L 122.530909 182.449214 
L 125.777455 227.226737 
L 129.024 90.200994 
L 132.270545 90.974534 
L 135.517091 91.926323 
L 138.763636 91.170981 
L 142.010182 89.908859 
L 145.256727 89.782649 
L 148.503273 179.124844 
L 151.749818 92.301134 
L 154.996364 91.051728 
L 158.242909 90.848435 
L 161.489455 90.494065 
L 164.736 90.343965 
L 167.982545 91.865105 
L 171.229091 91.200445 
L 174.475636 90.853588 
L 177.722182 90.829586 
L 180.968727 90.135351 
L 184.215273 90.265801 
L 187.461818 90.612107 
L 190.708364 91.444264 
L 193.954909 91.337594 
L 197.201455 89.551441 
L 200.448 91.307807 
L 203.694545 90.630023 
L 206.941091 91.410794 
L 210.187636 90.478154 
L 213.434182 183.418375 
L 216.680727 91.138939 
L 219.927273 90.723484 
L 223.173818 90.692431 
L 226.420364 90.289572 
L 229.666909 90.792989 
L 232.913455 90.951929 
L 236.16 89.470235 
L 239.406545 90.532166 
L 242.653091 90.624314 
L 245.899636 90.854782 
L 249.146182 90.900906 
L 252.392727 91.000128 
L 255.639273 90.114655 
L 258.885818 90.651334 
L 262.132364 90.733526 
L 265.378909 90.725897 
L 268.625455 90.632431 
L 271.872 92.005593 
L 275.118545 91.552358 
L 278.365091 88.923292 
L 281.611636 90.466612 
L 284.858182 91.097425 
L 288.104727 90.235594 
L 291.351273 90.403891 
L 294.597818 90.564255 
L 297.844364 91.343133 
L 301.090909 90.492529 
L 304.337455 90.498926 
L 307.584 90.638531 
L 310.830545 91.429705 
L 314.077091 91.004935 
L 317.323636 90.050225 
L 320.570182 91.534551 
L 323.816727 91.116614 
L 327.063273 90.58998 
L 330.309818 90.285201 
L 333.556364 91.637447 
L 336.802909 90.949432 
L 340.049455 91.543947 
L 343.296 90.405571 
L 346.542545 91.088833 
L 349.789091 90.756985 
L 353.035636 90.973124 
L 356.282182 90.160503 
L 359.528727 91.113403 
L 362.775273 91.098327 
L 366.021818 91.05179 
L 369.268364 90.898131 
L 372.514909 90.633696 
L 375.761455 91.300023 
L 379.008 90.414025 
L 382.254545 90.127578 
L 385.501091 91.970781 
L 388.747636 92.334359 
L 391.994182 90.392033 
L 395.240727 90.339275 
L 398.48078 89.901236 
L 398.48078 88.345185 
L 398.48078 88.345185 
L 395.240727 89.031398 
L 391.994182 87.933282 
L 388.747636 89.994873 
L 385.501091 88.366354 
L 382.254545 88.868345 
L 379.008 88.897477 
L 375.761455 89.510482 
L 372.514909 89.131452 
L 369.268364 89.083977 
L 366.021818 89.265622 
L 362.775273 87.97649 
L 359.528727 89.480141 
L 356.282182 88.914314 
L 353.035636 88.61451 
L 349.789091 89.343466 
L 346.542545 88.617143 
L 343.296 89.182063 
L 340.049455 87.866173 
L 336.802909 89.032676 
L 333.556364 89.291401 
L 330.309818 87.783706 
L 327.063273 88.425666 
L 323.816727 87.248149 
L 320.570182 89.216783 
L 317.323636 88.689288 
L 314.077091 88.898279 
L 310.830545 88.138205 
L 307.584 88.357391 
L 304.337455 88.773128 
L 301.090909 88.720354 
L 297.844364 89.112345 
L 294.597818 87.997745 
L 291.351273 88.69065 
L 288.104727 88.444749 
L 284.858182 88.983302 
L 281.611636 88.864613 
L 278.365091 87.764954 
L 275.118545 89.435661 
L 271.872 88.568228 
L 268.625455 88.718518 
L 265.378909 88.723671 
L 262.132364 88.361015 
L 258.885818 89.606907 
L 255.639273 88.703754 
L 252.392727 88.29165 
L 249.146182 88.923412 
L 245.899636 88.496167 
L 242.653091 89.140833 
L 239.406545 89.252705 
L 236.16 87.53359 
L 232.913455 88.103165 
L 229.666909 88.143762 
L 226.420364 88.094914 
L 223.173818 87.652608 
L 219.927273 88.666913 
L 216.680727 88.547314 
L 213.434182 54.117565 
L 210.187636 88.991137 
L 206.941091 89.301093 
L 203.694545 88.878716 
L 200.448 88.93071 
L 197.201455 87.984925 
L 193.954909 89.433463 
L 190.708364 89.366241 
L 187.461818 88.620499 
L 184.215273 89.14432 
L 180.968727 88.880295 
L 177.722182 89.053903 
L 174.475636 87.708412 
L 171.229091 88.328018 
L 167.982545 89.241256 
L 164.736 88.691404 
L 161.489455 88.758265 
L 158.242909 90.040965 
L 154.996364 88.496459 
L 151.749818 87.444289 
L 148.503273 55.038339 
L 145.256727 87.773441 
L 142.010182 89.087063 
L 138.763636 88.949193 
L 135.517091 88.272746 
L 132.270545 89.540116 
L 129.024 87.493163 
L 125.777455 67.291048 
L 122.530909 53.568 
L 119.284364 67.089372 
L 116.037818 65.984886 
L 112.791273 55.291707 
L 109.544727 67.385823 
L 106.298182 54.86014 
L 103.051636 54.388304 
L 99.805091 88.365705 
L 96.558545 67.32132 
L 93.312 87.899091 
L 90.065455 121.078514 
L 86.818909 88.808472 
L 83.572364 123.839843 
L 80.325818 124.393786 
L 77.079273 257.012006 
L 73.832727 221.165694 
z
" style="fill:#2ca02c;fill-opacity:0.3;"/>
   </g>
   <g id="matplotlib.axis_1">
    <g id="xtick_1">
     <g id="line2d_1">
      <defs>
       <path d="M 0 0 
L 0 3.5 
" id="m5143a07315" style="stroke:#000000;stroke-width:0.8;"/>
      </defs>
      <g>
       <use style="stroke:#000000;stroke-width:0.8;" x="73.832727" xlink:href="#m5143a07315" y="307.584"/>
      </g>
     </g>
     <g id="text_1">
      <!-- 0 -->
      <g transform="translate(70.651477 322.182437)scale(0.1 -0.1)">
       <defs>
        <path d="M 31.78125 66.40625 
Q 24.171875 66.40625 20.328125 58.90625 
Q 16.5 51.421875 16.5 36.375 
Q 16.5 21.390625 20.328125 13.890625 
Q 24.171875 6.390625 31.78125 6.390625 
Q 39.453125 6.390625 43.28125 13.890625 
Q 47.125 21.390625 47.125 36.375 
Q 47.125 51.421875 43.28125 58.90625 
Q 39.453125 66.40625 31.78125 66.40625 
z
M 31.78125 74.21875 
Q 44.046875 74.21875 50.515625 64.515625 
Q 56.984375 54.828125 56.984375 36.375 
Q 56.984375 17.96875 50.515625 8.265625 
Q 44.046875 -1.421875 31.78125 -1.421875 
Q 19.53125 -1.421875 13.0625 8.265625 
Q 6.59375 17.96875 6.59375 36.375 
Q 6.59375 54.828125 13.0625 64.515625 
Q 19.53125 74.21875 31.78125 74.21875 
z
" id="DejaVuSans-48"/>
       </defs>
       <use xlink:href="#DejaVuSans-48"/>
      </g>
     </g>
    </g>
    <g id="xtick_2">
     <g id="line2d_2">
      <g>
       <use style="stroke:#000000;stroke-width:0.8;" x="138.763636" xlink:href="#m5143a07315" y="307.584"/>
      </g>
     </g>
     <g id="text_2">
      <!-- 10000 -->
      <g transform="translate(122.857386 322.182437)scale(0.1 -0.1)">
       <defs>
        <path d="M 12.40625 8.296875 
L 28.515625 8.296875 
L 28.515625 63.921875 
L 10.984375 60.40625 
L 10.984375 69.390625 
L 28.421875 72.90625 
L 38.28125 72.90625 
L 38.28125 8.296875 
L 54.390625 8.296875 
L 54.390625 0 
L 12.40625 0 
z
" id="DejaVuSans-49"/>
       </defs>
       <use xlink:href="#DejaVuSans-49"/>
       <use x="63.623047" xlink:href="#DejaVuSans-48"/>
       <use x="127.246094" xlink:href="#DejaVuSans-48"/>
       <use x="190.869141" xlink:href="#DejaVuSans-48"/>
       <use x="254.492188" xlink:href="#DejaVuSans-48"/>
      </g>
     </g>
    </g>
    <g id="xtick_3">
     <g id="line2d_3">
      <g>
       <use style="stroke:#000000;stroke-width:0.8;" x="203.694545" xlink:href="#m5143a07315" y="307.584"/>
      </g>
     </g>
     <g id="text_3">
      <!-- 20000 -->
      <g transform="translate(187.788295 322.182437)scale(0.1 -0.1)">
       <defs>
        <path d="M 19.1875 8.296875 
L 53.609375 8.296875 
L 53.609375 0 
L 7.328125 0 
L 7.328125 8.296875 
Q 12.9375 14.109375 22.625 23.890625 
Q 32.328125 33.6875 34.8125 36.53125 
Q 39.546875 41.84375 41.421875 45.53125 
Q 43.3125 49.21875 43.3125 52.78125 
Q 43.3125 58.59375 39.234375 62.25 
Q 35.15625 65.921875 28.609375 65.921875 
Q 23.96875 65.921875 18.8125 64.3125 
Q 13.671875 62.703125 7.8125 59.421875 
L 7.8125 69.390625 
Q 13.765625 71.78125 18.9375 73 
Q 24.125 74.21875 28.421875 74.21875 
Q 39.75 74.21875 46.484375 68.546875 
Q 53.21875 62.890625 53.21875 53.421875 
Q 53.21875 48.921875 51.53125 44.890625 
Q 49.859375 40.875 45.40625 35.40625 
Q 44.1875 33.984375 37.640625 27.21875 
Q 31.109375 20.453125 19.1875 8.296875 
z
" id="DejaVuSans-50"/>
       </defs>
       <use xlink:href="#DejaVuSans-50"/>
       <use x="63.623047" xlink:href="#DejaVuSans-48"/>
       <use x="127.246094" xlink:href="#DejaVuSans-48"/>
       <use x="190.869141" xlink:href="#DejaVuSans-48"/>
       <use x="254.492188" xlink:href="#DejaVuSans-48"/>
      </g>
     </g>
    </g>
    <g id="xtick_4">
     <g id="line2d_4">
      <g>
       <use style="stroke:#000000;stroke-width:0.8;" x="268.625455" xlink:href="#m5143a07315" y="307.584"/>
      </g>
     </g>
     <g id="text_4">
      <!-- 30000 -->
      <g transform="translate(252.719205 322.182437)scale(0.1 -0.1)">
       <defs>
        <path d="M 40.578125 39.3125 
Q 47.65625 37.796875 51.625 33 
Q 55.609375 28.21875 55.609375 21.1875 
Q 55.609375 10.40625 48.1875 4.484375 
Q 40.765625 -1.421875 27.09375 -1.421875 
Q 22.515625 -1.421875 17.65625 -0.515625 
Q 12.796875 0.390625 7.625 2.203125 
L 7.625 11.71875 
Q 11.71875 9.328125 16.59375 8.109375 
Q 21.484375 6.890625 26.8125 6.890625 
Q 36.078125 6.890625 40.9375 10.546875 
Q 45.796875 14.203125 45.796875 21.1875 
Q 45.796875 27.640625 41.28125 31.265625 
Q 36.765625 34.90625 28.71875 34.90625 
L 20.21875 34.90625 
L 20.21875 43.015625 
L 29.109375 43.015625 
Q 36.375 43.015625 40.234375 45.921875 
Q 44.09375 48.828125 44.09375 54.296875 
Q 44.09375 59.90625 40.109375 62.90625 
Q 36.140625 65.921875 28.71875 65.921875 
Q 24.65625 65.921875 20.015625 65.03125 
Q 15.375 64.15625 9.8125 62.3125 
L 9.8125 71.09375 
Q 15.4375 72.65625 20.34375 73.4375 
Q 25.25 74.21875 29.59375 74.21875 
Q 40.828125 74.21875 47.359375 69.109375 
Q 53.90625 64.015625 53.90625 55.328125 
Q 53.90625 49.265625 50.4375 45.09375 
Q 46.96875 40.921875 40.578125 39.3125 
z
" id="DejaVuSans-51"/>
       </defs>
       <use xlink:href="#DejaVuSans-51"/>
       <use x="63.623047" xlink:href="#DejaVuSans-48"/>
       <use x="127.246094" xlink:href="#DejaVuSans-48"/>
       <use x="190.869141" xlink:href="#DejaVuSans-48"/>
       <use x="254.492188" xlink:href="#DejaVuSans-48"/>
      </g>
     </g>
    </g>
    <g id="xtick_5">
     <g id="line2d_5">
      <g>
       <use style="stroke:#000000;stroke-width:0.8;" x="333.556364" xlink:href="#m5143a07315" y="307.584"/>
      </g>
     </g>
     <g id="text_5">
      <!-- 40000 -->
      <g transform="translate(317.650114 322.182437)scale(0.1 -0.1)">
       <defs>
        <path d="M 37.796875 64.3125 
L 12.890625 25.390625 
L 37.796875 25.390625 
z
M 35.203125 72.90625 
L 47.609375 72.90625 
L 47.609375 25.390625 
L 58.015625 25.390625 
L 58.015625 17.1875 
L 47.609375 17.1875 
L 47.609375 0 
L 37.796875 0 
L 37.796875 17.1875 
L 4.890625 17.1875 
L 4.890625 26.703125 
z
" id="DejaVuSans-52"/>
       </defs>
       <use xlink:href="#DejaVuSans-52"/>
       <use x="63.623047" xlink:href="#DejaVuSans-48"/>
       <use x="127.246094" xlink:href="#DejaVuSans-48"/>
       <use x="190.869141" xlink:href="#DejaVuSans-48"/>
       <use x="254.492188" xlink:href="#DejaVuSans-48"/>
      </g>
     </g>
    </g>
    <g id="xtick_6">
     <g id="line2d_6">
      <g>
       <use style="stroke:#000000;stroke-width:0.8;" x="398.487273" xlink:href="#m5143a07315" y="307.584"/>
      </g>
     </g>
     <g id="text_6">
      <!-- 50000 -->
      <g transform="translate(382.581023 322.182437)scale(0.1 -0.1)">
       <defs>
        <path d="M 10.796875 72.90625 
L 49.515625 72.90625 
L 49.515625 64.59375 
L 19.828125 64.59375 
L 19.828125 46.734375 
Q 21.96875 47.46875 24.109375 47.828125 
Q 26.265625 48.1875 28.421875 48.1875 
Q 40.625 48.1875 47.75 41.5 
Q 54.890625 34.8125 54.890625 23.390625 
Q 54.890625 11.625 47.5625 5.09375 
Q 40.234375 -1.421875 26.90625 -1.421875 
Q 22.3125 -1.421875 17.546875 -0.640625 
Q 12.796875 0.140625 7.71875 1.703125 
L 7.71875 11.625 
Q 12.109375 9.234375 16.796875 8.0625 
Q 21.484375 6.890625 26.703125 6.890625 
Q 35.15625 6.890625 40.078125 11.328125 
Q 45.015625 15.765625 45.015625 23.390625 
Q 45.015625 31 40.078125 35.4375 
Q 35.15625 39.890625 26.703125 39.890625 
Q 22.75 39.890625 18.8125 39.015625 
Q 14.890625 38.140625 10.796875 36.28125 
z
" id="DejaVuSans-53"/>
       </defs>
       <use xlink:href="#DejaVuSans-53"/>
       <use x="63.623047" xlink:href="#DejaVuSans-48"/>
       <use x="127.246094" xlink:href="#DejaVuSans-48"/>
       <use x="190.869141" xlink:href="#DejaVuSans-48"/>
       <use x="254.492188" xlink:href="#DejaVuSans-48"/>
      </g>
     </g>
    </g>
    <g id="text_7">
     <!-- Episodes -->
     <g transform="translate(213.917812 335.860562)scale(0.1 -0.1)">
      <defs>
       <path d="M 9.8125 72.90625 
L 55.90625 72.90625 
L 55.90625 64.59375 
L 19.671875 64.59375 
L 19.671875 43.015625 
L 54.390625 43.015625 
L 54.390625 34.71875 
L 19.671875 34.71875 
L 19.671875 8.296875 
L 56.78125 8.296875 
L 56.78125 0 
L 9.8125 0 
z
" id="DejaVuSans-69"/>
       <path d="M 18.109375 8.203125 
L 18.109375 -20.796875 
L 9.078125 -20.796875 
L 9.078125 54.6875 
L 18.109375 54.6875 
L 18.109375 46.390625 
Q 20.953125 51.265625 25.265625 53.625 
Q 29.59375 56 35.59375 56 
Q 45.5625 56 51.78125 48.09375 
Q 58.015625 40.1875 58.015625 27.296875 
Q 58.015625 14.40625 51.78125 6.484375 
Q 45.5625 -1.421875 35.59375 -1.421875 
Q 29.59375 -1.421875 25.265625 0.953125 
Q 20.953125 3.328125 18.109375 8.203125 
z
M 48.6875 27.296875 
Q 48.6875 37.203125 44.609375 42.84375 
Q 40.53125 48.484375 33.40625 48.484375 
Q 26.265625 48.484375 22.1875 42.84375 
Q 18.109375 37.203125 18.109375 27.296875 
Q 18.109375 17.390625 22.1875 11.75 
Q 26.265625 6.109375 33.40625 6.109375 
Q 40.53125 6.109375 44.609375 11.75 
Q 48.6875 17.390625 48.6875 27.296875 
z
" id="DejaVuSans-112"/>
       <path d="M 9.421875 54.6875 
L 18.40625 54.6875 
L 18.40625 0 
L 9.421875 0 
z
M 9.421875 75.984375 
L 18.40625 75.984375 
L 18.40625 64.59375 
L 9.421875 64.59375 
z
" id="DejaVuSans-105"/>
       <path d="M 44.28125 53.078125 
L 44.28125 44.578125 
Q 40.484375 46.53125 36.375 47.5 
Q 32.28125 48.484375 27.875 48.484375 
Q 21.1875 48.484375 17.84375 46.4375 
Q 14.5 44.390625 14.5 40.28125 
Q 14.5 37.15625 16.890625 35.375 
Q 19.28125 33.59375 26.515625 31.984375 
L 29.59375 31.296875 
Q 39.15625 29.25 43.1875 25.515625 
Q 47.21875 21.78125 47.21875 15.09375 
Q 47.21875 7.46875 41.1875 3.015625 
Q 35.15625 -1.421875 24.609375 -1.421875 
Q 20.21875 -1.421875 15.453125 -0.5625 
Q 10.6875 0.296875 5.421875 2 
L 5.421875 11.28125 
Q 10.40625 8.6875 15.234375 7.390625 
Q 20.0625 6.109375 24.8125 6.109375 
Q 31.15625 6.109375 34.5625 8.28125 
Q 37.984375 10.453125 37.984375 14.40625 
Q 37.984375 18.0625 35.515625 20.015625 
Q 33.0625 21.96875 24.703125 23.78125 
L 21.578125 24.515625 
Q 13.234375 26.265625 9.515625 29.90625 
Q 5.8125 33.546875 5.8125 39.890625 
Q 5.8125 47.609375 11.28125 51.796875 
Q 16.75 56 26.8125 56 
Q 31.78125 56 36.171875 55.265625 
Q 40.578125 54.546875 44.28125 53.078125 
z
" id="DejaVuSans-115"/>
       <path d="M 30.609375 48.390625 
Q 23.390625 48.390625 19.1875 42.75 
Q 14.984375 37.109375 14.984375 27.296875 
Q 14.984375 17.484375 19.15625 11.84375 
Q 23.34375 6.203125 30.609375 6.203125 
Q 37.796875 6.203125 41.984375 11.859375 
Q 46.1875 17.53125 46.1875 27.296875 
Q 46.1875 37.015625 41.984375 42.703125 
Q 37.796875 48.390625 30.609375 48.390625 
z
M 30.609375 56 
Q 42.328125 56 49.015625 48.375 
Q 55.71875 40.765625 55.71875 27.296875 
Q 55.71875 13.875 49.015625 6.21875 
Q 42.328125 -1.421875 30.609375 -1.421875 
Q 18.84375 -1.421875 12.171875 6.21875 
Q 5.515625 13.875 5.515625 27.296875 
Q 5.515625 40.765625 12.171875 48.375 
Q 18.84375 56 30.609375 56 
z
" id="DejaVuSans-111"/>
       <path d="M 45.40625 46.390625 
L 45.40625 75.984375 
L 54.390625 75.984375 
L 54.390625 0 
L 45.40625 0 
L 45.40625 8.203125 
Q 42.578125 3.328125 38.25 0.953125 
Q 33.9375 -1.421875 27.875 -1.421875 
Q 17.96875 -1.421875 11.734375 6.484375 
Q 5.515625 14.40625 5.515625 27.296875 
Q 5.515625 40.1875 11.734375 48.09375 
Q 17.96875 56 27.875 56 
Q 33.9375 56 38.25 53.625 
Q 42.578125 51.265625 45.40625 46.390625 
z
M 14.796875 27.296875 
Q 14.796875 17.390625 18.875 11.75 
Q 22.953125 6.109375 30.078125 6.109375 
Q 37.203125 6.109375 41.296875 11.75 
Q 45.40625 17.390625 45.40625 27.296875 
Q 45.40625 37.203125 41.296875 42.84375 
Q 37.203125 48.484375 30.078125 48.484375 
Q 22.953125 48.484375 18.875 42.84375 
Q 14.796875 37.203125 14.796875 27.296875 
z
" id="DejaVuSans-100"/>
       <path d="M 56.203125 29.59375 
L 56.203125 25.203125 
L 14.890625 25.203125 
Q 15.484375 15.921875 20.484375 11.0625 
Q 25.484375 6.203125 34.421875 6.203125 
Q 39.59375 6.203125 44.453125 7.46875 
Q 49.3125 8.734375 54.109375 11.28125 
L 54.109375 2.78125 
Q 49.265625 0.734375 44.1875 -0.34375 
Q 39.109375 -1.421875 33.890625 -1.421875 
Q 20.796875 -1.421875 13.15625 6.1875 
Q 5.515625 13.8125 5.515625 26.8125 
Q 5.515625 40.234375 12.765625 48.109375 
Q 20.015625 56 32.328125 56 
Q 43.359375 56 49.78125 48.890625 
Q 56.203125 41.796875 56.203125 29.59375 
z
M 47.21875 32.234375 
Q 47.125 39.59375 43.09375 43.984375 
Q 39.0625 48.390625 32.421875 48.390625 
Q 24.90625 48.390625 20.390625 44.140625 
Q 15.875 39.890625 15.1875 32.171875 
z
" id="DejaVuSans-101"/>
      </defs>
      <use xlink:href="#DejaVuSans-69"/>
      <use x="63.183594" xlink:href="#DejaVuSans-112"/>
      <use x="126.660156" xlink:href="#DejaVuSans-105"/>
      <use x="154.443359" xlink:href="#DejaVuSans-115"/>
      <use x="206.542969" xlink:href="#DejaVuSans-111"/>
      <use x="267.724609" xlink:href="#DejaVuSans-100"/>
      <use x="331.201172" xlink:href="#DejaVuSans-101"/>
      <use x="392.724609" xlink:href="#DejaVuSans-115"/>
     </g>
    </g>
   </g>
   <g id="matplotlib.axis_2">
    <g id="ytick_1">
     <g id="line2d_7">
      <defs>
       <path d="M 0 0 
L -3.5 0 
" id="ma643173664" style="stroke:#000000;stroke-width:0.8;"/>
      </defs>
      <g>
       <use style="stroke:#000000;stroke-width:0.8;" x="57.6" xlink:href="#ma643173664" y="296.912662"/>
      </g>
     </g>
     <g id="text_8">
      <!-- 20 -->
      <g transform="translate(37.875 300.711881)scale(0.1 -0.1)">
       <use xlink:href="#DejaVuSans-50"/>
       <use x="63.623047" xlink:href="#DejaVuSans-48"/>
      </g>
     </g>
    </g>
    <g id="ytick_2">
     <g id="line2d_8">
      <g>
       <use style="stroke:#000000;stroke-width:0.8;" x="57.6" xlink:href="#ma643173664" y="267.327074"/>
      </g>
     </g>
     <g id="text_9">
      <!-- 30 -->
      <g transform="translate(37.875 271.126292)scale(0.1 -0.1)">
       <use xlink:href="#DejaVuSans-51"/>
       <use x="63.623047" xlink:href="#DejaVuSans-48"/>
      </g>
     </g>
    </g>
    <g id="ytick_3">
     <g id="line2d_9">
      <g>
       <use style="stroke:#000000;stroke-width:0.8;" x="57.6" xlink:href="#ma643173664" y="237.741485"/>
      </g>
     </g>
     <g id="text_10">
      <!-- 40 -->
      <g transform="translate(37.875 241.540704)scale(0.1 -0.1)">
       <use xlink:href="#DejaVuSans-52"/>
       <use x="63.623047" xlink:href="#DejaVuSans-48"/>
      </g>
     </g>
    </g>
    <g id="ytick_4">
     <g id="line2d_10">
      <g>
       <use style="stroke:#000000;stroke-width:0.8;" x="57.6" xlink:href="#ma643173664" y="208.155896"/>
      </g>
     </g>
     <g id="text_11">
      <!-- 50 -->
      <g transform="translate(37.875 211.955115)scale(0.1 -0.1)">
       <use xlink:href="#DejaVuSans-53"/>
       <use x="63.623047" xlink:href="#DejaVuSans-48"/>
      </g>
     </g>
    </g>
    <g id="ytick_5">
     <g id="line2d_11">
      <g>
       <use style="stroke:#000000;stroke-width:0.8;" x="57.6" xlink:href="#ma643173664" y="178.570307"/>
      </g>
     </g>
     <g id="text_12">
      <!-- 60 -->
      <g transform="translate(37.875 182.369526)scale(0.1 -0.1)">
       <defs>
        <path d="M 33.015625 40.375 
Q 26.375 40.375 22.484375 35.828125 
Q 18.609375 31.296875 18.609375 23.390625 
Q 18.609375 15.53125 22.484375 10.953125 
Q 26.375 6.390625 33.015625 6.390625 
Q 39.65625 6.390625 43.53125 10.953125 
Q 47.40625 15.53125 47.40625 23.390625 
Q 47.40625 31.296875 43.53125 35.828125 
Q 39.65625 40.375 33.015625 40.375 
z
M 52.59375 71.296875 
L 52.59375 62.3125 
Q 48.875 64.0625 45.09375 64.984375 
Q 41.3125 65.921875 37.59375 65.921875 
Q 27.828125 65.921875 22.671875 59.328125 
Q 17.53125 52.734375 16.796875 39.40625 
Q 19.671875 43.65625 24.015625 45.921875 
Q 28.375 48.1875 33.59375 48.1875 
Q 44.578125 48.1875 50.953125 41.515625 
Q 57.328125 34.859375 57.328125 23.390625 
Q 57.328125 12.15625 50.6875 5.359375 
Q 44.046875 -1.421875 33.015625 -1.421875 
Q 20.359375 -1.421875 13.671875 8.265625 
Q 6.984375 17.96875 6.984375 36.375 
Q 6.984375 53.65625 15.1875 63.9375 
Q 23.390625 74.21875 37.203125 74.21875 
Q 40.921875 74.21875 44.703125 73.484375 
Q 48.484375 72.75 52.59375 71.296875 
z
" id="DejaVuSans-54"/>
       </defs>
       <use xlink:href="#DejaVuSans-54"/>
       <use x="63.623047" xlink:href="#DejaVuSans-48"/>
      </g>
     </g>
    </g>
    <g id="ytick_6">
     <g id="line2d_12">
      <g>
       <use style="stroke:#000000;stroke-width:0.8;" x="57.6" xlink:href="#ma643173664" y="148.984718"/>
      </g>
     </g>
     <g id="text_13">
      <!-- 70 -->
      <g transform="translate(37.875 152.783937)scale(0.1 -0.1)">
       <defs>
        <path d="M 8.203125 72.90625 
L 55.078125 72.90625 
L 55.078125 68.703125 
L 28.609375 0 
L 18.3125 0 
L 43.21875 64.59375 
L 8.203125 64.59375 
z
" id="DejaVuSans-55"/>
       </defs>
       <use xlink:href="#DejaVuSans-55"/>
       <use x="63.623047" xlink:href="#DejaVuSans-48"/>
      </g>
     </g>
    </g>
    <g id="ytick_7">
     <g id="line2d_13">
      <g>
       <use style="stroke:#000000;stroke-width:0.8;" x="57.6" xlink:href="#ma643173664" y="119.39913"/>
      </g>
     </g>
     <g id="text_14">
      <!-- 80 -->
      <g transform="translate(37.875 123.198348)scale(0.1 -0.1)">
       <defs>
        <path d="M 31.78125 34.625 
Q 24.75 34.625 20.71875 30.859375 
Q 16.703125 27.09375 16.703125 20.515625 
Q 16.703125 13.921875 20.71875 10.15625 
Q 24.75 6.390625 31.78125 6.390625 
Q 38.8125 6.390625 42.859375 10.171875 
Q 46.921875 13.96875 46.921875 20.515625 
Q 46.921875 27.09375 42.890625 30.859375 
Q 38.875 34.625 31.78125 34.625 
z
M 21.921875 38.8125 
Q 15.578125 40.375 12.03125 44.71875 
Q 8.5 49.078125 8.5 55.328125 
Q 8.5 64.0625 14.71875 69.140625 
Q 20.953125 74.21875 31.78125 74.21875 
Q 42.671875 74.21875 48.875 69.140625 
Q 55.078125 64.0625 55.078125 55.328125 
Q 55.078125 49.078125 51.53125 44.71875 
Q 48 40.375 41.703125 38.8125 
Q 48.828125 37.15625 52.796875 32.3125 
Q 56.78125 27.484375 56.78125 20.515625 
Q 56.78125 9.90625 50.3125 4.234375 
Q 43.84375 -1.421875 31.78125 -1.421875 
Q 19.734375 -1.421875 13.25 4.234375 
Q 6.78125 9.90625 6.78125 20.515625 
Q 6.78125 27.484375 10.78125 32.3125 
Q 14.796875 37.15625 21.921875 38.8125 
z
M 18.3125 54.390625 
Q 18.3125 48.734375 21.84375 45.5625 
Q 25.390625 42.390625 31.78125 42.390625 
Q 38.140625 42.390625 41.71875 45.5625 
Q 45.3125 48.734375 45.3125 54.390625 
Q 45.3125 60.0625 41.71875 63.234375 
Q 38.140625 66.40625 31.78125 66.40625 
Q 25.390625 66.40625 21.84375 63.234375 
Q 18.3125 60.0625 18.3125 54.390625 
z
" id="DejaVuSans-56"/>
       </defs>
       <use xlink:href="#DejaVuSans-56"/>
       <use x="63.623047" xlink:href="#DejaVuSans-48"/>
      </g>
     </g>
    </g>
    <g id="ytick_8">
     <g id="line2d_14">
      <g>
       <use style="stroke:#000000;stroke-width:0.8;" x="57.6" xlink:href="#ma643173664" y="89.813541"/>
      </g>
     </g>
     <g id="text_15">
      <!-- 90 -->
      <g transform="translate(37.875 93.612759)scale(0.1 -0.1)">
       <defs>
        <path d="M 10.984375 1.515625 
L 10.984375 10.5 
Q 14.703125 8.734375 18.5 7.8125 
Q 22.3125 6.890625 25.984375 6.890625 
Q 35.75 6.890625 40.890625 13.453125 
Q 46.046875 20.015625 46.78125 33.40625 
Q 43.953125 29.203125 39.59375 26.953125 
Q 35.25 24.703125 29.984375 24.703125 
Q 19.046875 24.703125 12.671875 31.3125 
Q 6.296875 37.9375 6.296875 49.421875 
Q 6.296875 60.640625 12.9375 67.421875 
Q 19.578125 74.21875 30.609375 74.21875 
Q 43.265625 74.21875 49.921875 64.515625 
Q 56.59375 54.828125 56.59375 36.375 
Q 56.59375 19.140625 48.40625 8.859375 
Q 40.234375 -1.421875 26.421875 -1.421875 
Q 22.703125 -1.421875 18.890625 -0.6875 
Q 15.09375 0.046875 10.984375 1.515625 
z
M 30.609375 32.421875 
Q 37.25 32.421875 41.125 36.953125 
Q 45.015625 41.5 45.015625 49.421875 
Q 45.015625 57.28125 41.125 61.84375 
Q 37.25 66.40625 30.609375 66.40625 
Q 23.96875 66.40625 20.09375 61.84375 
Q 16.21875 57.28125 16.21875 49.421875 
Q 16.21875 41.5 20.09375 36.953125 
Q 23.96875 32.421875 30.609375 32.421875 
z
" id="DejaVuSans-57"/>
       </defs>
       <use xlink:href="#DejaVuSans-57"/>
       <use x="63.623047" xlink:href="#DejaVuSans-48"/>
      </g>
     </g>
    </g>
    <g id="ytick_9">
     <g id="line2d_15">
      <g>
       <use style="stroke:#000000;stroke-width:0.8;" x="57.6" xlink:href="#ma643173664" y="60.227952"/>
      </g>
     </g>
     <g id="text_16">
      <!-- 100 -->
      <g transform="translate(31.5125 64.027171)scale(0.1 -0.1)">
       <use xlink:href="#DejaVuSans-49"/>
       <use x="63.623047" xlink:href="#DejaVuSans-48"/>
       <use x="127.246094" xlink:href="#DejaVuSans-48"/>
      </g>
     </g>
    </g>
    <g id="text_17">
     <!-- Episode rewards -->
     <g transform="translate(25.432812 215.674094)rotate(-90)scale(0.1 -0.1)">
      <defs>
       <path id="DejaVuSans-32"/>
       <path d="M 41.109375 46.296875 
Q 39.59375 47.171875 37.8125 47.578125 
Q 36.03125 48 33.890625 48 
Q 26.265625 48 22.1875 43.046875 
Q 18.109375 38.09375 18.109375 28.8125 
L 18.109375 0 
L 9.078125 0 
L 9.078125 54.6875 
L 18.109375 54.6875 
L 18.109375 46.1875 
Q 20.953125 51.171875 25.484375 53.578125 
Q 30.03125 56 36.53125 56 
Q 37.453125 56 38.578125 55.875 
Q 39.703125 55.765625 41.0625 55.515625 
z
" id="DejaVuSans-114"/>
       <path d="M 4.203125 54.6875 
L 13.1875 54.6875 
L 24.421875 12.015625 
L 35.59375 54.6875 
L 46.1875 54.6875 
L 57.421875 12.015625 
L 68.609375 54.6875 
L 77.59375 54.6875 
L 63.28125 0 
L 52.6875 0 
L 40.921875 44.828125 
L 29.109375 0 
L 18.5 0 
z
" id="DejaVuSans-119"/>
       <path d="M 34.28125 27.484375 
Q 23.390625 27.484375 19.1875 25 
Q 14.984375 22.515625 14.984375 16.5 
Q 14.984375 11.71875 18.140625 8.90625 
Q 21.296875 6.109375 26.703125 6.109375 
Q 34.1875 6.109375 38.703125 11.40625 
Q 43.21875 16.703125 43.21875 25.484375 
L 43.21875 27.484375 
z
M 52.203125 31.203125 
L 52.203125 0 
L 43.21875 0 
L 43.21875 8.296875 
Q 40.140625 3.328125 35.546875 0.953125 
Q 30.953125 -1.421875 24.3125 -1.421875 
Q 15.921875 -1.421875 10.953125 3.296875 
Q 6 8.015625 6 15.921875 
Q 6 25.140625 12.171875 29.828125 
Q 18.359375 34.515625 30.609375 34.515625 
L 43.21875 34.515625 
L 43.21875 35.40625 
Q 43.21875 41.609375 39.140625 45 
Q 35.0625 48.390625 27.6875 48.390625 
Q 23 48.390625 18.546875 47.265625 
Q 14.109375 46.140625 10.015625 43.890625 
L 10.015625 52.203125 
Q 14.9375 54.109375 19.578125 55.046875 
Q 24.21875 56 28.609375 56 
Q 40.484375 56 46.34375 49.84375 
Q 52.203125 43.703125 52.203125 31.203125 
z
" id="DejaVuSans-97"/>
      </defs>
      <use xlink:href="#DejaVuSans-69"/>
      <use x="63.183594" xlink:href="#DejaVuSans-112"/>
      <use x="126.660156" xlink:href="#DejaVuSans-105"/>
      <use x="154.443359" xlink:href="#DejaVuSans-115"/>
      <use x="206.542969" xlink:href="#DejaVuSans-111"/>
      <use x="267.724609" xlink:href="#DejaVuSans-100"/>
      <use x="331.201172" xlink:href="#DejaVuSans-101"/>
      <use x="392.724609" xlink:href="#DejaVuSans-32"/>
      <use x="424.511719" xlink:href="#DejaVuSans-114"/>
      <use x="463.375" xlink:href="#DejaVuSans-101"/>
      <use x="524.898438" xlink:href="#DejaVuSans-119"/>
      <use x="606.685547" xlink:href="#DejaVuSans-97"/>
      <use x="667.964844" xlink:href="#DejaVuSans-114"/>
      <use x="707.328125" xlink:href="#DejaVuSans-100"/>
      <use x="770.804688" xlink:href="#DejaVuSans-115"/>
     </g>
    </g>
   </g>
   <g id="line2d_16">
    <path clip-path="url(#p1e92a5ed6c)" d="M 73.832727 194.645144 
L 77.079273 256.133859 
L 80.325818 256.50861 
L 83.572364 257.731481 
L 86.818909 258.697944 
L 90.065455 256.429715 
L 93.312 258.155541 
L 96.558545 256.991841 
L 99.805091 256.6664 
L 103.051636 145.562652 
L 106.298182 147.801295 
L 109.544727 145.631685 
L 112.791273 146.884142 
L 116.037818 146.154364 
L 119.284364 144.921631 
L 122.530909 144.892045 
L 125.777455 145.700718 
L 129.024 146.608009 
L 132.270545 145.414724 
L 135.517091 146.164226 
L 138.763636 145.197763 
L 142.010182 144.408814 
L 145.256727 147.041931 
L 148.503273 146.755937 
L 151.749818 145.730304 
L 154.996364 146.006436 
L 158.242909 146.40091 
L 161.489455 144.921631 
L 164.736 146.460081 
L 167.982545 145.888093 
L 171.229091 145.809198 
L 174.475636 146.24312 
L 177.722182 146.183949 
L 180.968727 146.785523 
L 184.215273 145.888093 
L 187.461818 146.105054 
L 190.708364 144.990664 
L 193.954909 147.258892 
L 197.201455 146.213535 
L 200.448 146.085331 
L 203.694545 145.878232 
L 206.941091 144.872321 
L 210.187636 146.82497 
L 213.434182 145.592237 
L 216.680727 146.45022 
L 219.927273 145.010388 
L 223.173818 145.118868 
L 226.420364 145.671132 
L 229.666909 147.199721 
L 232.913455 146.568562 
L 236.16 146.519253 
L 239.406545 146.765799 
L 242.653091 117.278829 
L 245.899636 89.645889 
L 249.146182 89.813541 
L 252.392727 89.507823 
L 255.639273 90.148844 
L 258.885818 89.645889 
L 262.132364 90.050225 
L 265.378909 89.931883 
L 268.625455 90.12912 
L 271.872 89.70506 
L 275.118545 89.843126 
L 278.365091 90.168568 
L 281.611636 90.405252 
L 284.858182 89.714922 
L 288.104727 89.566994 
L 291.351273 89.764231 
L 294.597818 89.714922 
L 297.844364 89.497961 
L 301.090909 89.557132 
L 304.337455 90.000916 
L 307.584 90.050225 
L 310.830545 88.353985 
L 314.077091 89.695198 
L 317.323636 89.675475 
L 320.570182 88.787907 
L 323.816727 89.636027 
L 327.063273 89.665613 
L 330.309818 89.744508 
L 333.556364 89.774093 
L 336.802909 89.882574 
L 340.049455 90.365805 
L 343.296 89.399342 
L 346.542545 90.355943 
L 349.789091 89.882574 
L 353.035636 90.17843 
L 356.282182 90.089673 
L 359.528727 90.385529 
L 362.775273 89.931883 
L 366.021818 90.000916 
L 369.268364 89.783955 
L 372.514909 89.369757 
L 375.761455 89.695198 
L 379.008 88.561084 
L 382.254545 89.981192 
L 385.501091 89.626165 
L 388.747636 88.807631 
L 391.994182 88.709012 
L 395.240727 89.724784 
L 398.487273 89.43879 
" style="fill:none;stroke:#1f77b4;stroke-linecap:square;stroke-width:1.5;"/>
   </g>
   <g id="line2d_17">
    <path clip-path="url(#p1e92a5ed6c)" d="M 73.832727 208.915259 
L 77.079273 181.085082 
L 80.325818 208.59968 
L 83.572364 182.623533 
L 86.818909 196.203318 
L 90.065455 197.593841 
L 93.312 197.653012 
L 96.558545 181.154115 
L 99.805091 195.749672 
L 103.051636 193.61951 
L 106.298182 180.858259 
L 109.544727 196.548483 
L 112.791273 193.392687 
L 116.037818 195.591883 
L 119.284364 197.031715 
L 122.530909 195.236856 
L 125.777455 193.392687 
L 129.024 185.660987 
L 132.270545 194.51694 
L 135.517091 180.098896 
L 138.763636 195.927186 
L 142.010182 220.897423 
L 145.256727 219.66469 
L 148.503273 182.593947 
L 151.749818 184.6748 
L 154.996364 207.189433 
L 158.242909 221.903333 
L 161.489455 232.524559 
L 164.736 206.292004 
L 167.982545 196.144147 
L 171.229091 210.404401 
L 174.475636 185.493335 
L 177.722182 183.619581 
L 180.968727 183.82668 
L 184.215273 180.532818 
L 187.461818 180.601851 
L 190.708364 208.027692 
L 193.954909 197.32757 
L 197.201455 209.319596 
L 200.448 196.63724 
L 203.694545 205.503055 
L 206.941091 193.727991 
L 210.187636 208.372857 
L 213.434182 184.309911 
L 216.680727 196.232904 
L 219.927273 181.23301 
L 223.173818 194.102741 
L 226.420364 183.304001 
L 229.666909 194.960723 
L 232.913455 198.136243 
L 236.16 192.564291 
L 239.406545 195.345336 
L 242.653091 181.055497 
L 245.899636 196.400555 
L 249.146182 193.156002 
L 252.392727 193.027798 
L 255.639273 208.648989 
L 258.885818 181.65707 
L 262.132364 207.376809 
L 265.378909 195.276303 
L 268.625455 178.501274 
L 271.872 183.29414 
L 275.118545 198.984363 
L 278.365091 207.781145 
L 281.611636 208.412304 
L 284.858182 195.31575 
L 288.104727 179.931244 
L 291.351273 178.461827 
L 294.597818 206.479379 
L 297.844364 181.97265 
L 301.090909 181.726103 
L 304.337455 185.355269 
L 307.584 195.31575 
L 310.830545 192.800975 
L 314.077091 181.183701 
L 317.323636 196.223042 
L 320.570182 193.570201 
L 323.816727 205.493193 
L 327.063273 192.731942 
L 330.309818 205.917253 
L 333.556364 182.66298 
L 336.802909 184.822728 
L 340.049455 185.591954 
L 343.296 208.639127 
L 346.542545 195.976495 
L 349.789091 195.582021 
L 353.035636 182.879941 
L 356.282182 194.191498 
L 359.528727 195.424231 
L 362.775273 205.601673 
L 366.021818 197.090886 
L 369.268364 181.351353 
L 372.514909 219.418143 
L 375.761455 194.684591 
L 379.008 182.298091 
L 382.254545 183.659028 
L 385.501091 195.443955 
L 388.747636 196.223042 
L 391.994182 208.264376 
L 395.240727 196.607654 
L 398.48078 207.248605 
" style="fill:none;stroke:#ff7f0e;stroke-linecap:square;stroke-width:1.5;"/>
   </g>
   <g id="line2d_18">
    <path clip-path="url(#p1e92a5ed6c)" d="M 73.832727 246.853846 
L 77.079273 258.776838 
L 80.325818 209.940893 
L 83.572364 209.418214 
L 86.818909 180.799088 
L 90.065455 201.104664 
L 93.312 180.128482 
L 96.558545 145.582376 
L 99.805091 172.771532 
L 103.051636 118.403081 
L 106.298182 117.318276 
L 109.544727 145.966988 
L 112.791273 118.07764 
L 116.037818 145.375277 
L 119.284364 146.213535 
L 122.530909 118.008607 
L 125.777455 147.258892 
L 129.024 88.847078 
L 132.270545 90.257325 
L 135.517091 90.099535 
L 138.763636 90.060087 
L 142.010182 89.497961 
L 145.256727 88.778045 
L 148.503273 117.081592 
L 151.749818 89.872712 
L 154.996364 89.774093 
L 158.242909 90.4447 
L 161.489455 89.626165 
L 164.736 89.517685 
L 167.982545 90.55318 
L 171.229091 89.764231 
L 174.475636 89.281 
L 177.722182 89.941745 
L 180.968727 89.507823 
L 184.215273 89.70506 
L 187.461818 89.616303 
L 190.708364 90.405252 
L 193.954909 90.385529 
L 197.201455 88.768183 
L 200.448 90.119258 
L 203.694545 89.75437 
L 206.941091 90.355943 
L 210.187636 89.734646 
L 213.434182 118.76797 
L 216.680727 89.843126 
L 219.927273 89.695198 
L 223.173818 89.17252 
L 226.420364 89.192243 
L 229.666909 89.468375 
L 232.913455 89.527547 
L 236.16 88.501913 
L 239.406545 89.892436 
L 242.653091 89.882574 
L 245.899636 89.675475 
L 249.146182 89.912159 
L 252.392727 89.645889 
L 255.639273 89.409204 
L 258.885818 90.12912 
L 262.132364 89.54727 
L 265.378909 89.724784 
L 268.625455 89.675475 
L 271.872 90.28691 
L 275.118545 90.494009 
L 278.365091 88.344123 
L 281.611636 89.665613 
L 284.858182 90.040364 
L 288.104727 89.340171 
L 291.351273 89.54727 
L 294.597818 89.281 
L 297.844364 90.227739 
L 301.090909 89.606442 
L 304.337455 89.636027 
L 307.584 89.497961 
L 310.830545 89.783955 
L 314.077091 89.951607 
L 317.323636 89.369757 
L 320.570182 90.375667 
L 323.816727 89.182381 
L 327.063273 89.507823 
L 330.309818 89.034454 
L 333.556364 90.464424 
L 336.802909 89.991054 
L 340.049455 89.70506 
L 343.296 89.793817 
L 346.542545 89.852988 
L 349.789091 90.050225 
L 353.035636 89.793817 
L 356.282182 89.537409 
L 359.528727 90.296772 
L 362.775273 89.537409 
L 366.021818 90.158706 
L 369.268364 89.991054 
L 372.514909 89.882574 
L 375.761455 90.405252 
L 379.008 89.655751 
L 382.254545 89.497961 
L 385.501091 90.168568 
L 388.747636 91.164616 
L 391.994182 89.162658 
L 395.240727 89.685336 
L 398.48078 89.12321 
" style="fill:none;stroke:#2ca02c;stroke-linecap:square;stroke-width:1.5;"/>
   </g>
   <g id="patch_3">
    <path d="M 57.6 307.584 
L 57.6 41.472 
" style="fill:none;stroke:#000000;stroke-linecap:square;stroke-linejoin:miter;stroke-width:0.8;"/>
   </g>
   <g id="patch_4">
    <path d="M 414.72 307.584 
L 414.72 41.472 
" style="fill:none;stroke:#000000;stroke-linecap:square;stroke-linejoin:miter;stroke-width:0.8;"/>
   </g>
   <g id="patch_5">
    <path d="M 57.6 307.584 
L 414.72 307.584 
" style="fill:none;stroke:#000000;stroke-linecap:square;stroke-linejoin:miter;stroke-width:0.8;"/>
   </g>
   <g id="patch_6">
    <path d="M 57.6 41.472 
L 414.72 41.472 
" style="fill:none;stroke:#000000;stroke-linecap:square;stroke-linejoin:miter;stroke-width:0.8;"/>
   </g>
   <g id="legend_1">
    <g id="patch_7">
     <path d="M 300.88875 302.584 
L 407.72 302.584 
Q 409.72 302.584 409.72 300.584 
L 409.72 257.549625 
Q 409.72 255.549625 407.72 255.549625 
L 300.88875 255.549625 
Q 298.88875 255.549625 298.88875 257.549625 
L 298.88875 300.584 
Q 298.88875 302.584 300.88875 302.584 
z
" style="fill:#ffffff;opacity:0.8;stroke:#cccccc;stroke-linejoin:miter;"/>
    </g>
    <g id="line2d_19">
     <path d="M 302.88875 263.648062 
L 322.88875 263.648062 
" style="fill:none;stroke:#1f77b4;stroke-linecap:square;stroke-width:1.5;"/>
    </g>
    <g id="line2d_20"/>
    <g id="text_18">
     <!-- pac-rdp -->
     <g transform="translate(330.88875 267.148062)scale(0.1 -0.1)">
      <defs>
       <path d="M 48.78125 52.59375 
L 48.78125 44.1875 
Q 44.96875 46.296875 41.140625 47.34375 
Q 37.3125 48.390625 33.40625 48.390625 
Q 24.65625 48.390625 19.8125 42.84375 
Q 14.984375 37.3125 14.984375 27.296875 
Q 14.984375 17.28125 19.8125 11.734375 
Q 24.65625 6.203125 33.40625 6.203125 
Q 37.3125 6.203125 41.140625 7.25 
Q 44.96875 8.296875 48.78125 10.40625 
L 48.78125 2.09375 
Q 45.015625 0.34375 40.984375 -0.53125 
Q 36.96875 -1.421875 32.421875 -1.421875 
Q 20.0625 -1.421875 12.78125 6.34375 
Q 5.515625 14.109375 5.515625 27.296875 
Q 5.515625 40.671875 12.859375 48.328125 
Q 20.21875 56 33.015625 56 
Q 37.15625 56 41.109375 55.140625 
Q 45.0625 54.296875 48.78125 52.59375 
z
" id="DejaVuSans-99"/>
       <path d="M 4.890625 31.390625 
L 31.203125 31.390625 
L 31.203125 23.390625 
L 4.890625 23.390625 
z
" id="DejaVuSans-45"/>
      </defs>
      <use xlink:href="#DejaVuSans-112"/>
      <use x="63.476562" xlink:href="#DejaVuSans-97"/>
      <use x="124.755859" xlink:href="#DejaVuSans-99"/>
      <use x="179.736328" xlink:href="#DejaVuSans-45"/>
      <use x="215.820312" xlink:href="#DejaVuSans-114"/>
      <use x="255.183594" xlink:href="#DejaVuSans-100"/>
      <use x="318.660156" xlink:href="#DejaVuSans-112"/>
     </g>
    </g>
    <g id="line2d_21">
     <path d="M 302.88875 278.326188 
L 322.88875 278.326188 
" style="fill:none;stroke:#ff7f0e;stroke-linecap:square;stroke-width:1.5;"/>
    </g>
    <g id="line2d_22"/>
    <g id="text_19">
     <!-- q-learning -->
     <g transform="translate(330.88875 281.826188)scale(0.1 -0.1)">
      <defs>
       <path d="M 14.796875 27.296875 
Q 14.796875 17.390625 18.875 11.75 
Q 22.953125 6.109375 30.078125 6.109375 
Q 37.203125 6.109375 41.296875 11.75 
Q 45.40625 17.390625 45.40625 27.296875 
Q 45.40625 37.203125 41.296875 42.84375 
Q 37.203125 48.484375 30.078125 48.484375 
Q 22.953125 48.484375 18.875 42.84375 
Q 14.796875 37.203125 14.796875 27.296875 
z
M 45.40625 8.203125 
Q 42.578125 3.328125 38.25 0.953125 
Q 33.9375 -1.421875 27.875 -1.421875 
Q 17.96875 -1.421875 11.734375 6.484375 
Q 5.515625 14.40625 5.515625 27.296875 
Q 5.515625 40.1875 11.734375 48.09375 
Q 17.96875 56 27.875 56 
Q 33.9375 56 38.25 53.625 
Q 42.578125 51.265625 45.40625 46.390625 
L 45.40625 54.6875 
L 54.390625 54.6875 
L 54.390625 -20.796875 
L 45.40625 -20.796875 
z
" id="DejaVuSans-113"/>
       <path d="M 9.421875 75.984375 
L 18.40625 75.984375 
L 18.40625 0 
L 9.421875 0 
z
" id="DejaVuSans-108"/>
       <path d="M 54.890625 33.015625 
L 54.890625 0 
L 45.90625 0 
L 45.90625 32.71875 
Q 45.90625 40.484375 42.875 44.328125 
Q 39.84375 48.1875 33.796875 48.1875 
Q 26.515625 48.1875 22.3125 43.546875 
Q 18.109375 38.921875 18.109375 30.90625 
L 18.109375 0 
L 9.078125 0 
L 9.078125 54.6875 
L 18.109375 54.6875 
L 18.109375 46.1875 
Q 21.34375 51.125 25.703125 53.5625 
Q 30.078125 56 35.796875 56 
Q 45.21875 56 50.046875 50.171875 
Q 54.890625 44.34375 54.890625 33.015625 
z
" id="DejaVuSans-110"/>
       <path d="M 45.40625 27.984375 
Q 45.40625 37.75 41.375 43.109375 
Q 37.359375 48.484375 30.078125 48.484375 
Q 22.859375 48.484375 18.828125 43.109375 
Q 14.796875 37.75 14.796875 27.984375 
Q 14.796875 18.265625 18.828125 12.890625 
Q 22.859375 7.515625 30.078125 7.515625 
Q 37.359375 7.515625 41.375 12.890625 
Q 45.40625 18.265625 45.40625 27.984375 
z
M 54.390625 6.78125 
Q 54.390625 -7.171875 48.1875 -13.984375 
Q 42 -20.796875 29.203125 -20.796875 
Q 24.46875 -20.796875 20.265625 -20.09375 
Q 16.0625 -19.390625 12.109375 -17.921875 
L 12.109375 -9.1875 
Q 16.0625 -11.328125 19.921875 -12.34375 
Q 23.78125 -13.375 27.78125 -13.375 
Q 36.625 -13.375 41.015625 -8.765625 
Q 45.40625 -4.15625 45.40625 5.171875 
L 45.40625 9.625 
Q 42.625 4.78125 38.28125 2.390625 
Q 33.9375 0 27.875 0 
Q 17.828125 0 11.671875 7.65625 
Q 5.515625 15.328125 5.515625 27.984375 
Q 5.515625 40.671875 11.671875 48.328125 
Q 17.828125 56 27.875 56 
Q 33.9375 56 38.28125 53.609375 
Q 42.625 51.21875 45.40625 46.390625 
L 45.40625 54.6875 
L 54.390625 54.6875 
z
" id="DejaVuSans-103"/>
      </defs>
      <use xlink:href="#DejaVuSans-113"/>
      <use x="63.476562" xlink:href="#DejaVuSans-45"/>
      <use x="99.560547" xlink:href="#DejaVuSans-108"/>
      <use x="127.34375" xlink:href="#DejaVuSans-101"/>
      <use x="188.867188" xlink:href="#DejaVuSans-97"/>
      <use x="250.146484" xlink:href="#DejaVuSans-114"/>
      <use x="289.509766" xlink:href="#DejaVuSans-110"/>
      <use x="352.888672" xlink:href="#DejaVuSans-105"/>
      <use x="380.671875" xlink:href="#DejaVuSans-110"/>
      <use x="444.050781" xlink:href="#DejaVuSans-103"/>
     </g>
    </g>
    <g id="line2d_23">
     <path d="M 302.88875 293.004312 
L 322.88875 293.004312 
" style="fill:none;stroke:#2ca02c;stroke-linecap:square;stroke-width:1.5;"/>
    </g>
    <g id="line2d_24"/>
    <g id="text_20">
     <!-- pac-rdp-simple -->
     <g transform="translate(330.88875 296.504312)scale(0.1 -0.1)">
      <defs>
       <path d="M 52 44.1875 
Q 55.375 50.25 60.0625 53.125 
Q 64.75 56 71.09375 56 
Q 79.640625 56 84.28125 50.015625 
Q 88.921875 44.046875 88.921875 33.015625 
L 88.921875 0 
L 79.890625 0 
L 79.890625 32.71875 
Q 79.890625 40.578125 77.09375 44.375 
Q 74.3125 48.1875 68.609375 48.1875 
Q 61.625 48.1875 57.5625 43.546875 
Q 53.515625 38.921875 53.515625 30.90625 
L 53.515625 0 
L 44.484375 0 
L 44.484375 32.71875 
Q 44.484375 40.625 41.703125 44.40625 
Q 38.921875 48.1875 33.109375 48.1875 
Q 26.21875 48.1875 22.15625 43.53125 
Q 18.109375 38.875 18.109375 30.90625 
L 18.109375 0 
L 9.078125 0 
L 9.078125 54.6875 
L 18.109375 54.6875 
L 18.109375 46.1875 
Q 21.1875 51.21875 25.484375 53.609375 
Q 29.78125 56 35.6875 56 
Q 41.65625 56 45.828125 52.96875 
Q 50 49.953125 52 44.1875 
z
" id="DejaVuSans-109"/>
      </defs>
      <use xlink:href="#DejaVuSans-112"/>
      <use x="63.476562" xlink:href="#DejaVuSans-97"/>
      <use x="124.755859" xlink:href="#DejaVuSans-99"/>
      <use x="179.736328" xlink:href="#DejaVuSans-45"/>
      <use x="215.820312" xlink:href="#DejaVuSans-114"/>
      <use x="255.183594" xlink:href="#DejaVuSans-100"/>
      <use x="318.660156" xlink:href="#DejaVuSans-112"/>
      <use x="382.136719" xlink:href="#DejaVuSans-45"/>
      <use x="418.220703" xlink:href="#DejaVuSans-115"/>
      <use x="470.320312" xlink:href="#DejaVuSans-105"/>
      <use x="498.103516" xlink:href="#DejaVuSans-109"/>
      <use x="595.515625" xlink:href="#DejaVuSans-112"/>
      <use x="658.992188" xlink:href="#DejaVuSans-108"/>
      <use x="686.775391" xlink:href="#DejaVuSans-101"/>
     </g>
    </g>
   </g>
  </g>
 </g>
 <defs>
  <clipPath id="p1e92a5ed6c">
   <rect height="266.112" width="357.12" x="57.6" y="41.472"/>
  </clipPath>
 </defs>
</svg>
