<?xml version="1.0" encoding="utf-8" standalone="no"?>
<!DOCTYPE svg PUBLIC "-//W3C//DTD SVG 1.1//EN"
  "http://www.w3.org/Graphics/SVG/1.1/DTD/svg11.dtd">
<!-- Created with matplotlib (https://matplotlib.org/) -->
<svg height="345.6pt" version="1.1" viewBox="0 0 460.8 345.6" width="460.8pt" xmlns="http://www.w3.org/2000/svg" xmlns:xlink="http://www.w3.org/1999/xlink">
 <metadata>
  <rdf:RDF xmlns:cc="http://creativecommons.org/ns#" xmlns:dc="http://purl.org/dc/elements/1.1/" xmlns:rdf="http://www.w3.org/1999/02/22-rdf-syntax-ns#">
   <cc:Work>
    <dc:type rdf:resource="http://purl.org/dc/dcmitype/StillImage"/>
    <dc:date>2021-01-10T17:26:13.744362</dc:date>
    <dc:format>image/svg+xml</dc:format>
    <dc:creator>
     <cc:Agent>
      <dc:title>Matplotlib v3.3.3, https://matplotlib.org/</dc:title>
     </cc:Agent>
    </dc:creator>
   </cc:Work>
  </rdf:RDF>
 </metadata>
 <defs>
  <style type="text/css">*{stroke-linecap:butt;stroke-linejoin:round;}</style>
 </defs>
 <g id="figure_1">
  <g id="patch_1">
   <path d="M 0 345.6 
L 460.8 345.6 
L 460.8 0 
L 0 0 
z
" style="fill:#ffffff;"/>
  </g>
  <g id="axes_1">
   <g id="patch_2">
    <path d="M 57.6 307.584 
L 414.72 307.584 
L 414.72 41.472 
L 57.6 41.472 
z
" style="fill:#ffffff;"/>
   </g>
   <g id="PolyCollection_1">
    <path clip-path="url(#padfde989a8)" d="M 73.832727 170.803076 
L 73.832727 177.665049 
L 75.997091 293.283499 
L 78.161455 295.488 
L 80.325818 292.623587 
L 82.490182 293.125622 
L 84.654545 295.338102 
L 86.818909 294.105578 
L 88.983273 295.356162 
L 91.147636 294.270663 
L 93.312 200.026531 
L 95.476364 200.148213 
L 97.640727 200.854789 
L 99.805091 202.924001 
L 101.969455 203.247108 
L 104.133818 199.328009 
L 106.298182 202.822648 
L 108.462545 204.362909 
L 110.626909 200.81368 
L 112.791273 200.973963 
L 114.955636 202.198183 
L 117.12 202.970835 
L 119.284364 200.248735 
L 121.448727 199.67951 
L 123.613091 201.995546 
L 125.777455 200.343476 
L 127.941818 201.770234 
L 130.106182 201.017252 
L 132.270545 198.828686 
L 134.434909 199.947195 
L 136.599273 202.336264 
L 138.763636 203.430425 
L 140.928 203.63979 
L 143.092364 200.340741 
L 145.256727 200.491992 
L 147.421091 198.679651 
L 149.585455 200.033661 
L 151.749818 200.2231 
L 153.914182 202.649106 
L 156.078545 201.283918 
L 158.242909 201.411521 
L 160.407273 197.476645 
L 162.571636 201.122412 
L 164.736 203.271908 
L 166.900364 200.566963 
L 169.064727 199.454373 
L 171.229091 199.733992 
L 173.393455 203.020519 
L 175.557818 200.569707 
L 177.722182 201.63963 
L 179.886545 199.808945 
L 182.050909 203.807797 
L 184.215273 201.652149 
L 186.379636 195.795068 
L 188.544 97.053634 
L 190.708364 94.365836 
L 192.872727 94.240237 
L 195.037091 96.956783 
L 197.201455 94.601441 
L 199.365818 95.681568 
L 201.530182 96.616172 
L 203.694545 95.990919 
L 205.858909 94.687871 
L 208.023273 95.115898 
L 210.187636 93.683261 
L 212.352 94.900621 
L 214.516364 96.767447 
L 216.680727 94.315449 
L 218.845091 94.662512 
L 221.009455 96.175909 
L 223.173818 94.0667 
L 225.338182 95.624756 
L 227.502545 95.170873 
L 229.666909 95.976815 
L 231.831273 97.086701 
L 233.995636 95.367564 
L 236.16 95.009789 
L 238.324364 93.144856 
L 240.488727 95.678644 
L 242.653091 94.148342 
L 244.817455 96.929501 
L 246.981818 93.710374 
L 249.146182 93.93777 
L 251.310545 94.375965 
L 253.474909 93.870459 
L 255.639273 92.172397 
L 257.803636 92.669048 
L 259.968 94.978 
L 262.132364 94.997348 
L 264.296727 93.28295 
L 266.461091 94.526385 
L 268.625455 95.899886 
L 270.789818 95.428561 
L 272.954182 93.695179 
L 275.118545 95.663945 
L 277.282909 97.478545 
L 279.447273 92.87895 
L 281.611636 94.385763 
L 283.776 91.820597 
L 285.940364 93.690354 
L 288.104727 97.097558 
L 290.269091 92.514841 
L 292.433455 93.518802 
L 294.597818 94.840095 
L 296.762182 93.823984 
L 298.926545 94.515837 
L 301.090909 93.480343 
L 303.255273 95.69826 
L 305.419636 94.358376 
L 307.584 94.440343 
L 309.748364 94.454792 
L 311.912727 94.15379 
L 314.077091 94.550542 
L 316.241455 95.295781 
L 318.405818 93.563644 
L 320.570182 93.001578 
L 322.734545 96.076121 
L 324.898909 95.135469 
L 327.063273 96.395087 
L 329.227636 94.027074 
L 331.392 95.332511 
L 333.556364 93.594741 
L 335.720727 93.547313 
L 337.885091 93.497816 
L 340.049455 93.553082 
L 342.213818 93.713925 
L 344.378182 92.588799 
L 346.542545 96.048266 
L 348.706909 94.425537 
L 350.871273 94.446933 
L 353.035636 96.573392 
L 355.2 93.430142 
L 357.364364 94.298962 
L 359.528727 94.277104 
L 361.693091 95.33741 
L 363.857455 95.835921 
L 366.021818 92.856867 
L 368.186182 94.445772 
L 370.350545 95.921692 
L 372.514909 97.126399 
L 374.679273 93.150999 
L 376.843636 96.776391 
L 379.008 95.858752 
L 381.172364 95.567347 
L 383.336727 93.57423 
L 385.501091 94.012613 
L 387.665455 91.942401 
L 389.829818 96.239957 
L 391.994182 97.508869 
L 394.158545 93.083204 
L 396.322909 96.406781 
L 398.487273 108.829141 
L 398.487273 84.961164 
L 398.487273 84.961164 
L 396.322909 91.473606 
L 394.158545 91.287233 
L 391.994182 91.331505 
L 389.829818 90.98044 
L 387.665455 87.478105 
L 385.501091 90.177827 
L 383.336727 90.376213 
L 381.172364 89.133085 
L 379.008 89.021678 
L 376.843636 90.953999 
L 374.679273 90.34945 
L 372.514909 90.243996 
L 370.350545 92.528688 
L 368.186182 92.054635 
L 366.021818 88.753609 
L 363.857455 90.39449 
L 361.693091 88.493034 
L 359.528727 90.723325 
L 357.364364 87.881506 
L 355.2 89.620314 
L 353.035636 90.22701 
L 350.871273 91.753479 
L 348.706909 90.424893 
L 346.542545 92.402114 
L 344.378182 90.521656 
L 342.213818 90.176519 
L 340.049455 87.697399 
L 337.885091 88.14266 
L 335.720727 88.483157 
L 333.556364 89.665712 
L 331.392 91.61789 
L 329.227636 89.773371 
L 327.063273 90.85531 
L 324.898909 91.364938 
L 322.734545 92.104263 
L 320.570182 91.158862 
L 318.405818 87.776836 
L 316.241455 90.514635 
L 314.077091 91.259875 
L 311.912727 89.586656 
L 309.748364 87.365681 
L 307.584 88.850109 
L 305.419636 91.752036 
L 303.255273 89.87216 
L 301.090909 88.400129 
L 298.926545 91.444578 
L 296.762182 91.266443 
L 294.597818 92.230304 
L 292.433455 90.461641 
L 290.269091 87.685655 
L 288.104727 94.022784 
L 285.940364 91.940065 
L 283.776 89.879877 
L 281.611636 89.864676 
L 279.447273 91.191491 
L 277.282909 89.741852 
L 275.118545 89.786477 
L 272.954182 88.275292 
L 270.789818 91.971834 
L 268.625455 90.450523 
L 266.461091 90.774039 
L 264.296727 90.577494 
L 262.132364 90.063079 
L 259.968 88.912444 
L 257.803636 88.911429 
L 255.639273 89.588077 
L 253.474909 91.129969 
L 251.310545 88.584492 
L 249.146182 91.062658 
L 246.981818 89.610078 
L 244.817455 91.130884 
L 242.653091 87.702131 
L 240.488727 91.991746 
L 238.324364 87.985627 
L 236.16 91.100624 
L 233.995636 91.222842 
L 231.831273 91.543676 
L 229.666909 90.943587 
L 227.502545 90.969539 
L 225.338182 89.585669 
L 223.173818 90.153739 
L 221.009455 90.144501 
L 218.845091 90.697911 
L 216.680727 90.864976 
L 214.516364 91.052941 
L 212.352 91.329789 
L 210.187636 89.967186 
L 208.023273 89.014542 
L 205.858909 89.922563 
L 203.694545 90.059494 
L 201.530182 90.514226 
L 199.365818 91.658827 
L 197.201455 89.049006 
L 195.037091 92.543581 
L 192.872727 89.500209 
L 190.708364 88.504622 
L 188.544 88.876781 
L 186.379636 68.01425 
L 184.215273 80.846906 
L 182.050909 81.33122 
L 179.886545 82.120118 
L 177.722182 82.029408 
L 175.557818 80.399369 
L 173.393455 79.17854 
L 171.229091 81.47508 
L 169.064727 82.504689 
L 166.900364 81.662095 
L 164.736 82.107106 
L 162.571636 83.776608 
L 160.407273 83.102436 
L 158.242909 83.007507 
L 156.078545 83.675102 
L 153.914182 79.309956 
L 151.749818 81.735962 
L 149.585455 80.455421 
L 147.421091 82.949416 
L 145.256727 83.477042 
L 143.092364 79.128356 
L 140.928 82.159218 
L 138.763636 82.518581 
L 136.599273 82.952751 
L 134.434909 82.761857 
L 132.270545 82.530385 
L 130.106182 80.851811 
L 127.941818 79.618836 
L 125.777455 81.825583 
L 123.613091 81.553494 
L 121.448727 80.329579 
L 119.284364 82.730312 
L 117.12 81.148196 
L 114.955636 80.000875 
L 112.791273 78.975128 
L 110.626909 81.865372 
L 108.462545 80.686109 
L 106.298182 81.836376 
L 104.133818 81.941063 
L 101.969455 82.371902 
L 99.805091 82.395014 
L 97.640727 80.294285 
L 95.476364 81.990846 
L 93.312 83.132514 
L 91.147636 151.426092 
L 88.983273 151.540576 
L 86.818909 154.771131 
L 84.654545 151.678634 
L 82.490182 152.901128 
L 80.325818 150.853199 
L 78.161455 151.408738 
L 75.997091 151.243272 
L 73.832727 170.803076 
z
" style="fill:#1f77b4;fill-opacity:0.3;"/>
   </g>
   <g id="PolyCollection_2">
    <path clip-path="url(#padfde989a8)" d="M 73.832727 101.620418 
L 73.832727 244.357742 
L 75.997091 123.092765 
L 78.161455 200.969012 
L 80.325818 123.713609 
L 82.490182 122.65345 
L 84.654545 123.596338 
L 86.818909 122.206748 
L 88.983273 122.564757 
L 91.147636 124.830023 
L 93.312 124.745345 
L 95.476364 123.231886 
L 97.640727 125.977959 
L 99.805091 123.620048 
L 101.969455 124.990855 
L 104.133818 123.336888 
L 106.298182 124.389682 
L 108.462545 125.121705 
L 110.626909 125.578079 
L 112.791273 123.957465 
L 114.955636 124.610239 
L 117.12 123.570314 
L 119.284364 204.978849 
L 121.448727 123.62897 
L 123.613091 124.453484 
L 125.777455 125.514364 
L 127.941818 124.862769 
L 130.106182 122.23878 
L 132.270545 124.186324 
L 134.434909 203.575068 
L 136.599273 123.676716 
L 138.763636 202.153583 
L 140.928 124.938749 
L 143.092364 125.186375 
L 145.256727 125.617435 
L 147.421091 125.482788 
L 149.585455 203.738894 
L 151.749818 122.465425 
L 153.914182 124.931524 
L 156.078545 121.977183 
L 158.242909 124.652431 
L 160.407273 123.476919 
L 162.571636 126.29864 
L 164.736 123.984985 
L 166.900364 123.257633 
L 169.064727 123.191596 
L 171.229091 124.726328 
L 173.393455 122.672206 
L 175.557818 124.70146 
L 177.722182 123.328155 
L 179.886545 122.472763 
L 182.050909 123.5992 
L 184.215273 123.388615 
L 186.379636 125.291979 
L 188.544 124.010443 
L 190.708364 202.957091 
L 192.872727 121.14175 
L 195.037091 202.201533 
L 197.201455 123.46106 
L 199.365818 125.119364 
L 201.530182 123.423672 
L 203.694545 125.352847 
L 205.858909 122.440274 
L 208.023273 124.39874 
L 210.187636 124.190447 
L 212.352 122.683098 
L 214.516364 123.823152 
L 216.680727 124.769126 
L 218.845091 123.030177 
L 221.009455 124.586124 
L 223.173818 122.753655 
L 225.338182 123.760108 
L 227.502545 125.379788 
L 229.666909 123.795118 
L 231.831273 123.384779 
L 233.995636 123.619253 
L 236.16 125.128735 
L 238.324364 125.268143 
L 240.488727 125.180676 
L 242.653091 124.711256 
L 244.817455 122.628066 
L 246.981818 122.37213 
L 249.146182 124.341039 
L 251.310545 123.794644 
L 253.474909 123.029151 
L 255.639273 124.666583 
L 257.803636 124.16449 
L 259.968 124.337632 
L 262.132364 122.852111 
L 264.296727 127.140312 
L 266.461091 124.913612 
L 268.625455 124.543937 
L 270.789818 122.701171 
L 272.954182 123.003034 
L 275.118545 122.106035 
L 277.282909 122.860924 
L 279.447273 126.601838 
L 281.611636 206.041841 
L 283.776 123.982894 
L 285.940364 124.89411 
L 288.104727 125.030135 
L 290.269091 122.539675 
L 292.433455 125.686915 
L 294.597818 124.862362 
L 296.762182 124.229003 
L 298.926545 122.783562 
L 301.090909 125.177891 
L 303.255273 124.084312 
L 305.419636 124.576299 
L 307.584 124.836831 
L 309.748364 124.059929 
L 311.912727 122.999548 
L 314.077091 124.118056 
L 316.241455 124.802055 
L 318.405818 124.793594 
L 320.570182 123.767031 
L 322.734545 123.17617 
L 324.898909 123.141099 
L 327.063273 123.256106 
L 329.227636 122.898143 
L 331.392 123.756935 
L 333.556364 123.905468 
L 335.720727 123.520617 
L 337.885091 204.531219 
L 340.049455 123.675476 
L 342.213818 125.333657 
L 344.378182 125.158138 
L 346.542545 202.860953 
L 348.706909 123.151325 
L 350.871273 123.917752 
L 353.035636 124.241823 
L 355.2 126.465942 
L 357.364364 203.913711 
L 359.528727 124.323217 
L 361.693091 126.078897 
L 363.857455 123.132556 
L 366.021818 125.001977 
L 368.186182 124.792689 
L 370.350545 203.475226 
L 372.514909 122.812818 
L 374.679273 123.946751 
L 376.843636 126.218436 
L 379.008 123.541952 
L 381.172364 204.18744 
L 383.336727 124.665106 
L 385.501091 124.3098 
L 387.665455 123.691653 
L 389.829818 124.000883 
L 391.994182 123.736068 
L 394.158545 124.937292 
L 396.322909 202.800026 
L 398.482944 122.915127 
L 398.482944 118.814502 
L 398.482944 118.814502 
L 396.322909 91.818858 
L 394.158545 120.12229 
L 391.994182 120.333528 
L 389.829818 119.348723 
L 387.665455 121.067933 
L 385.501091 120.689782 
L 383.336727 122.344449 
L 381.172364 90.371444 
L 379.008 118.517672 
L 376.843636 121.211112 
L 374.679273 120.812836 
L 372.514909 120.986782 
L 370.350545 90.99366 
L 368.186182 120.44689 
L 366.021818 120.147604 
L 363.857455 119.317063 
L 361.693091 122.85063 
L 359.528727 119.416383 
L 357.364364 89.205193 
L 355.2 122.07359 
L 353.035636 120.847758 
L 350.871273 119.821848 
L 348.706909 119.56829 
L 346.542545 89.837957 
L 344.378182 121.431422 
L 342.213818 119.575927 
L 340.049455 120.39412 
L 337.885091 91.287647 
L 335.720727 120.038986 
L 333.556364 121.034115 
L 331.392 121.302647 
L 329.227636 120.601461 
L 327.063273 121.293483 
L 324.898909 118.258535 
L 322.734545 119.933439 
L 320.570182 119.822572 
L 318.405818 121.705968 
L 316.241455 120.107529 
L 314.077091 122.411505 
L 311.912727 120.350058 
L 309.748364 119.829669 
L 307.584 119.382763 
L 305.419636 122.883249 
L 303.255273 120.585276 
L 301.090909 121.38167 
L 298.926545 119.846054 
L 296.762182 121.250573 
L 294.597818 121.067208 
L 292.433455 121.442638 
L 290.269091 119.729946 
L 288.104727 121.139431 
L 285.940364 121.03546 
L 283.776 122.066674 
L 281.611636 90.287019 
L 279.447273 120.767711 
L 277.282909 119.498696 
L 275.118545 120.973575 
L 272.954182 121.576555 
L 270.789818 119.028458 
L 268.625455 120.065652 
L 266.461091 120.985958 
L 264.296727 120.529233 
L 262.132364 121.247484 
L 259.968 120.811948 
L 257.803636 120.925091 
L 255.639273 120.932991 
L 253.474909 118.490481 
L 251.310545 120.694946 
L 249.146182 120.238549 
L 246.981818 120.647481 
L 244.817455 120.091549 
L 242.653091 121.518309 
L 240.488727 123.418856 
L 238.324364 120.781425 
L 236.16 121.280828 
L 233.995636 119.550355 
L 231.831273 120.954813 
L 229.666909 121.474461 
L 227.502545 119.379798 
L 225.338182 120.399486 
L 223.173818 121.165943 
L 221.009455 123.263418 
L 218.845091 118.519454 
L 216.680727 120.230457 
L 214.516364 121.356428 
L 212.352 119.07653 
L 210.187636 120.029147 
L 208.023273 122.91081 
L 205.858909 119.169357 
L 203.694545 119.316741 
L 201.530182 119.265943 
L 199.365818 120.450211 
L 197.201455 121.178528 
L 195.037091 91.877358 
L 192.872727 119.837889 
L 190.708364 92.531781 
L 188.544 120.479147 
L 186.379636 121.147583 
L 184.215273 119.630996 
L 182.050909 120.950389 
L 179.886545 117.54689 
L 177.722182 121.191435 
L 175.557818 121.978099 
L 173.393455 119.26742 
L 171.229091 122.493223 
L 169.064727 120.338007 
L 166.900364 121.501953 
L 164.736 119.784615 
L 162.571636 121.220907 
L 160.407273 120.952672 
L 158.242909 121.007143 
L 156.078545 119.332452 
L 153.914182 119.708064 
L 151.749818 120.25419 
L 149.585455 90.1 
L 147.421091 120.896776 
L 145.256727 120.852127 
L 143.092364 119.633211 
L 140.928 120.150832 
L 138.763636 89.015349 
L 136.599273 121.562863 
L 134.434909 92.573794 
L 132.270545 121.743246 
L 130.106182 119.850844 
L 127.941818 119.68682 
L 125.777455 123.175167 
L 123.613091 120.156104 
L 121.448727 120.620624 
L 119.284364 92.399996 
L 117.12 119.989289 
L 114.955636 119.639354 
L 112.791273 121.282115 
L 110.626909 120.171493 
L 108.462545 121.287858 
L 106.298182 121.659886 
L 104.133818 119.682723 
L 101.969455 119.048742 
L 99.805091 120.959541 
L 97.640727 119.29162 
L 95.476364 117.327759 
L 93.312 122.354208 
L 91.147636 122.089533 
L 88.983273 119.614866 
L 86.818909 120.872862 
L 84.654545 120.713255 
L 82.490182 121.236148 
L 80.325818 120.625983 
L 78.161455 93.499874 
L 75.997091 119.476852 
L 73.832727 101.620418 
z
" style="fill:#ff7f0e;fill-opacity:0.3;"/>
   </g>
   <g id="PolyCollection_3">
    <path clip-path="url(#padfde989a8)" d="M 73.832727 91.772938 
L 73.832727 201.795961 
L 75.997091 203.210019 
L 78.161455 122.620593 
L 80.325818 123.7153 
L 82.490182 122.272535 
L 84.654545 125.450655 
L 86.818909 122.357463 
L 88.983273 124.7727 
L 91.147636 125.418958 
L 93.312 125.15979 
L 95.476364 126.235922 
L 97.640727 131.922021 
L 99.805091 135.301583 
L 101.969455 131.641106 
L 104.133818 130.912439 
L 106.298182 222.976356 
L 108.462545 169.301689 
L 110.626909 164.17942 
L 112.791273 199.405368 
L 114.955636 240.886965 
L 117.12 189.246666 
L 119.284364 190.154761 
L 121.448727 240.073615 
L 123.613091 189.1646 
L 125.777455 238.536712 
L 127.941818 234.323725 
L 130.106182 241.000981 
L 132.270545 239.523831 
L 134.434909 238.314073 
L 136.599273 236.77507 
L 138.763636 238.012889 
L 140.928 237.051908 
L 143.092364 236.560214 
L 145.256727 236.841733 
L 147.421091 240.761801 
L 149.585455 235.939704 
L 151.749818 236.362895 
L 153.914182 239.940296 
L 156.078545 240.476178 
L 158.242909 240.743458 
L 160.407273 238.830132 
L 162.571636 240.554344 
L 164.736 196.813175 
L 166.900364 236.382529 
L 169.064727 116.314635 
L 171.229091 195.096277 
L 173.393455 190.922959 
L 175.557818 191.686157 
L 177.722182 190.692104 
L 179.886545 189.303215 
L 182.050909 190.591249 
L 184.215273 190.439745 
L 186.379636 187.666967 
L 188.544 188.632126 
L 190.708364 93.085654 
L 192.872727 94.316767 
L 195.037091 96.462454 
L 197.201455 96.693399 
L 199.365818 95.726887 
L 201.530182 94.322462 
L 203.694545 94.878307 
L 205.858909 94.449966 
L 208.023273 95.882201 
L 210.187636 94.242799 
L 212.352 93.645175 
L 214.516364 95.213208 
L 216.680727 96.050478 
L 218.845091 94.544284 
L 221.009455 94.117546 
L 223.173818 93.929837 
L 225.338182 94.226 
L 227.502545 94.841283 
L 229.666909 94.131854 
L 231.831273 93.936753 
L 233.995636 95.298105 
L 236.16 94.818034 
L 238.324364 95.967008 
L 240.488727 96.354794 
L 242.653091 92.802858 
L 244.817455 92.871077 
L 246.981818 95.46606 
L 249.146182 95.248355 
L 251.310545 93.842371 
L 253.474909 93.84582 
L 255.639273 95.204038 
L 257.803636 95.759552 
L 259.968 96.254464 
L 262.132364 93.330139 
L 264.296727 94.782575 
L 266.461091 91.659392 
L 268.625455 93.966386 
L 270.789818 94.073254 
L 272.954182 93.53249 
L 275.118545 188.942118 
L 277.282909 190.895103 
L 279.447273 239.835626 
L 281.611636 190.064374 
L 283.776 238.877041 
L 285.940364 240.091122 
L 288.104727 188.585129 
L 290.269091 92.522117 
L 292.433455 189.31501 
L 294.597818 192.931562 
L 296.762182 187.380376 
L 298.926545 95.199662 
L 301.090909 94.757182 
L 303.255273 94.945708 
L 305.419636 95.084513 
L 307.584 94.691608 
L 309.748364 94.137354 
L 311.912727 97.384653 
L 314.077091 93.297344 
L 316.241455 94.879219 
L 318.405818 92.176879 
L 320.570182 95.766995 
L 322.734545 94.400075 
L 324.898909 93.7244 
L 327.063273 95.53812 
L 329.227636 96.488154 
L 331.392 94.553056 
L 333.556364 93.168191 
L 335.720727 92.212546 
L 337.885091 96.472155 
L 340.049455 94.802525 
L 342.213818 94.453557 
L 344.378182 95.825919 
L 346.542545 92.031685 
L 348.706909 93.641844 
L 350.871273 95.48444 
L 353.035636 96.8341 
L 355.2 93.459308 
L 357.364364 93.647096 
L 359.528727 97.445852 
L 361.693091 93.622311 
L 363.857455 94.751488 
L 366.021818 94.442854 
L 368.186182 94.280859 
L 370.350545 94.836946 
L 372.514909 96.399638 
L 374.679273 95.062369 
L 376.843636 93.673325 
L 379.008 94.055496 
L 381.172364 95.08042 
L 383.336727 93.09957 
L 385.501091 95.378439 
L 387.665455 94.505467 
L 389.829818 96.744811 
L 391.994182 94.176568 
L 394.158545 93.369309 
L 396.322909 94.092511 
L 398.482944 94.429475 
L 398.482944 88.920977 
L 398.482944 88.920977 
L 396.322909 89.917932 
L 394.158545 89.591148 
L 391.994182 91.633849 
L 389.829818 91.495571 
L 387.665455 88.45499 
L 385.501091 89.801987 
L 383.336727 91.330866 
L 381.172364 88.570028 
L 379.008 91.424925 
L 376.843636 90.577113 
L 374.679273 88.978073 
L 372.514909 90.79076 
L 370.350545 88.093511 
L 368.186182 90.959566 
L 366.021818 92.087553 
L 363.857455 88.718962 
L 361.693091 90.508129 
L 359.528727 89.534548 
L 357.364364 92.433317 
L 355.2 89.681147 
L 353.035636 91.706278 
L 350.871273 91.795956 
L 348.706909 89.948604 
L 346.542545 89.998785 
L 344.378182 90.374492 
L 342.213818 89.97688 
L 340.049455 90.137904 
L 337.885091 93.178207 
L 335.720727 90.867909 
L 333.556364 89.582269 
L 331.392 90.327373 
L 329.227636 91.212236 
L 327.063273 88.142327 
L 324.898909 90.586037 
L 322.734545 90.180359 
L 320.570182 89.743426 
L 318.405818 89.163601 
L 316.241455 91.111195 
L 314.077091 89.933109 
L 311.912727 91.695718 
L 309.748364 91.223069 
L 307.584 91.058809 
L 305.419636 92.225882 
L 303.255273 88.134747 
L 301.090909 88.803267 
L 298.926545 93.010721 
L 296.762182 55.129242 
L 294.597818 53.568 
L 292.433455 57.27455 
L 290.269091 90.168344 
L 288.104727 55.514467 
L 285.940364 66.227597 
L 283.776 67.591676 
L 281.611636 54.965209 
L 279.447273 68.523064 
L 277.282909 56.474446 
L 275.118545 55.727469 
L 272.954182 89.21797 
L 270.789818 92.217156 
L 268.625455 89.77406 
L 266.461091 89.231094 
L 264.296727 89.797859 
L 262.132364 88.220338 
L 259.968 91.805921 
L 257.803636 89.390874 
L 255.639273 88.266412 
L 253.474909 91.124609 
L 251.310545 88.818091 
L 249.146182 91.282052 
L 246.981818 89.834364 
L 244.817455 90.479375 
L 242.653091 88.807618 
L 240.488727 91.435595 
L 238.324364 90.593398 
L 236.16 93.062354 
L 233.995636 90.722309 
L 231.831273 90.343685 
L 229.666909 90.898573 
L 227.502545 88.509169 
L 225.338182 90.894426 
L 223.173818 87.140647 
L 221.009455 90.972881 
L 218.845091 88.776168 
L 216.680727 89.909937 
L 214.516364 91.557196 
L 212.352 89.255283 
L 210.187636 91.567617 
L 208.023273 89.478222 
L 205.858909 91.39045 
L 203.694545 88.862139 
L 201.530182 90.107975 
L 199.365818 89.963532 
L 197.201455 92.536969 
L 195.037091 91.65793 
L 192.872727 90.893659 
L 190.708364 91.074787 
L 188.544 53.667495 
L 186.379636 56.582627 
L 184.215273 57.829791 
L 182.050909 54.558332 
L 179.886545 53.596398 
L 177.722182 56.31745 
L 175.557818 62.793292 
L 173.393455 65.356465 
L 171.229091 68.74304 
L 169.064727 88.81551 
L 166.900364 76.206102 
L 164.736 69.186112 
L 162.571636 75.904231 
L 160.407273 76.098465 
L 158.242909 75.925115 
L 156.078545 75.772401 
L 153.914182 77.028272 
L 151.749818 66.895867 
L 149.585455 69.029033 
L 147.421091 64.176937 
L 145.256727 68.337002 
L 143.092364 67.26854 
L 140.928 66.866845 
L 138.763636 67.465841 
L 136.599273 67.803674 
L 134.434909 78.654496 
L 132.270545 84.584637 
L 130.106182 74.437609 
L 127.941818 66.385073 
L 125.777455 68.891991 
L 123.613091 61.444903 
L 121.448727 74.914981 
L 119.284364 55.714809 
L 117.12 54.672932 
L 114.955636 74.131631 
L 112.791273 66.623918 
L 110.626909 74.070258 
L 108.462545 76.807879 
L 106.298182 92.342236 
L 104.133818 99.897344 
L 101.969455 103.278619 
L 99.805091 107.928025 
L 97.640727 104.587681 
L 95.476364 111.02377 
L 93.312 113.539881 
L 91.147636 111.750735 
L 88.983273 112.63699 
L 86.818909 120.032157 
L 84.654545 121.498901 
L 82.490182 119.487094 
L 80.325818 120.294296 
L 78.161455 120.099022 
L 75.997091 90.568877 
L 73.832727 91.772938 
z
" style="fill:#2ca02c;fill-opacity:0.3;"/>
   </g>
   <g id="matplotlib.axis_1">
    <g id="xtick_1">
     <g id="line2d_1">
      <defs>
       <path d="M 0 0 
L 0 3.5 
" id="m0de0d12b65" style="stroke:#000000;stroke-width:0.8;"/>
      </defs>
      <g>
       <use style="stroke:#000000;stroke-width:0.8;" x="73.832727" xlink:href="#m0de0d12b65" y="307.584"/>
      </g>
     </g>
     <g id="text_1">
      <!-- 0 -->
      <g transform="translate(70.651477 322.182437)scale(0.1 -0.1)">
       <defs>
        <path d="M 31.78125 66.40625 
Q 24.171875 66.40625 20.328125 58.90625 
Q 16.5 51.421875 16.5 36.375 
Q 16.5 21.390625 20.328125 13.890625 
Q 24.171875 6.390625 31.78125 6.390625 
Q 39.453125 6.390625 43.28125 13.890625 
Q 47.125 21.390625 47.125 36.375 
Q 47.125 51.421875 43.28125 58.90625 
Q 39.453125 66.40625 31.78125 66.40625 
z
M 31.78125 74.21875 
Q 44.046875 74.21875 50.515625 64.515625 
Q 56.984375 54.828125 56.984375 36.375 
Q 56.984375 17.96875 50.515625 8.265625 
Q 44.046875 -1.421875 31.78125 -1.421875 
Q 19.53125 -1.421875 13.0625 8.265625 
Q 6.59375 17.96875 6.59375 36.375 
Q 6.59375 54.828125 13.0625 64.515625 
Q 19.53125 74.21875 31.78125 74.21875 
z
" id="DejaVuSans-48"/>
       </defs>
       <use xlink:href="#DejaVuSans-48"/>
      </g>
     </g>
    </g>
    <g id="xtick_2">
     <g id="line2d_2">
      <g>
       <use style="stroke:#000000;stroke-width:0.8;" x="117.12" xlink:href="#m0de0d12b65" y="307.584"/>
      </g>
     </g>
     <g id="text_2">
      <!-- 10000 -->
      <g transform="translate(101.21375 322.182437)scale(0.1 -0.1)">
       <defs>
        <path d="M 12.40625 8.296875 
L 28.515625 8.296875 
L 28.515625 63.921875 
L 10.984375 60.40625 
L 10.984375 69.390625 
L 28.421875 72.90625 
L 38.28125 72.90625 
L 38.28125 8.296875 
L 54.390625 8.296875 
L 54.390625 0 
L 12.40625 0 
z
" id="DejaVuSans-49"/>
       </defs>
       <use xlink:href="#DejaVuSans-49"/>
       <use x="63.623047" xlink:href="#DejaVuSans-48"/>
       <use x="127.246094" xlink:href="#DejaVuSans-48"/>
       <use x="190.869141" xlink:href="#DejaVuSans-48"/>
       <use x="254.492188" xlink:href="#DejaVuSans-48"/>
      </g>
     </g>
    </g>
    <g id="xtick_3">
     <g id="line2d_3">
      <g>
       <use style="stroke:#000000;stroke-width:0.8;" x="160.407273" xlink:href="#m0de0d12b65" y="307.584"/>
      </g>
     </g>
     <g id="text_3">
      <!-- 20000 -->
      <g transform="translate(144.501023 322.182437)scale(0.1 -0.1)">
       <defs>
        <path d="M 19.1875 8.296875 
L 53.609375 8.296875 
L 53.609375 0 
L 7.328125 0 
L 7.328125 8.296875 
Q 12.9375 14.109375 22.625 23.890625 
Q 32.328125 33.6875 34.8125 36.53125 
Q 39.546875 41.84375 41.421875 45.53125 
Q 43.3125 49.21875 43.3125 52.78125 
Q 43.3125 58.59375 39.234375 62.25 
Q 35.15625 65.921875 28.609375 65.921875 
Q 23.96875 65.921875 18.8125 64.3125 
Q 13.671875 62.703125 7.8125 59.421875 
L 7.8125 69.390625 
Q 13.765625 71.78125 18.9375 73 
Q 24.125 74.21875 28.421875 74.21875 
Q 39.75 74.21875 46.484375 68.546875 
Q 53.21875 62.890625 53.21875 53.421875 
Q 53.21875 48.921875 51.53125 44.890625 
Q 49.859375 40.875 45.40625 35.40625 
Q 44.1875 33.984375 37.640625 27.21875 
Q 31.109375 20.453125 19.1875 8.296875 
z
" id="DejaVuSans-50"/>
       </defs>
       <use xlink:href="#DejaVuSans-50"/>
       <use x="63.623047" xlink:href="#DejaVuSans-48"/>
       <use x="127.246094" xlink:href="#DejaVuSans-48"/>
       <use x="190.869141" xlink:href="#DejaVuSans-48"/>
       <use x="254.492188" xlink:href="#DejaVuSans-48"/>
      </g>
     </g>
    </g>
    <g id="xtick_4">
     <g id="line2d_4">
      <g>
       <use style="stroke:#000000;stroke-width:0.8;" x="203.694545" xlink:href="#m0de0d12b65" y="307.584"/>
      </g>
     </g>
     <g id="text_4">
      <!-- 30000 -->
      <g transform="translate(187.788295 322.182437)scale(0.1 -0.1)">
       <defs>
        <path d="M 40.578125 39.3125 
Q 47.65625 37.796875 51.625 33 
Q 55.609375 28.21875 55.609375 21.1875 
Q 55.609375 10.40625 48.1875 4.484375 
Q 40.765625 -1.421875 27.09375 -1.421875 
Q 22.515625 -1.421875 17.65625 -0.515625 
Q 12.796875 0.390625 7.625 2.203125 
L 7.625 11.71875 
Q 11.71875 9.328125 16.59375 8.109375 
Q 21.484375 6.890625 26.8125 6.890625 
Q 36.078125 6.890625 40.9375 10.546875 
Q 45.796875 14.203125 45.796875 21.1875 
Q 45.796875 27.640625 41.28125 31.265625 
Q 36.765625 34.90625 28.71875 34.90625 
L 20.21875 34.90625 
L 20.21875 43.015625 
L 29.109375 43.015625 
Q 36.375 43.015625 40.234375 45.921875 
Q 44.09375 48.828125 44.09375 54.296875 
Q 44.09375 59.90625 40.109375 62.90625 
Q 36.140625 65.921875 28.71875 65.921875 
Q 24.65625 65.921875 20.015625 65.03125 
Q 15.375 64.15625 9.8125 62.3125 
L 9.8125 71.09375 
Q 15.4375 72.65625 20.34375 73.4375 
Q 25.25 74.21875 29.59375 74.21875 
Q 40.828125 74.21875 47.359375 69.109375 
Q 53.90625 64.015625 53.90625 55.328125 
Q 53.90625 49.265625 50.4375 45.09375 
Q 46.96875 40.921875 40.578125 39.3125 
z
" id="DejaVuSans-51"/>
       </defs>
       <use xlink:href="#DejaVuSans-51"/>
       <use x="63.623047" xlink:href="#DejaVuSans-48"/>
       <use x="127.246094" xlink:href="#DejaVuSans-48"/>
       <use x="190.869141" xlink:href="#DejaVuSans-48"/>
       <use x="254.492188" xlink:href="#DejaVuSans-48"/>
      </g>
     </g>
    </g>
    <g id="xtick_5">
     <g id="line2d_5">
      <g>
       <use style="stroke:#000000;stroke-width:0.8;" x="246.981818" xlink:href="#m0de0d12b65" y="307.584"/>
      </g>
     </g>
     <g id="text_5">
      <!-- 40000 -->
      <g transform="translate(231.075568 322.182437)scale(0.1 -0.1)">
       <defs>
        <path d="M 37.796875 64.3125 
L 12.890625 25.390625 
L 37.796875 25.390625 
z
M 35.203125 72.90625 
L 47.609375 72.90625 
L 47.609375 25.390625 
L 58.015625 25.390625 
L 58.015625 17.1875 
L 47.609375 17.1875 
L 47.609375 0 
L 37.796875 0 
L 37.796875 17.1875 
L 4.890625 17.1875 
L 4.890625 26.703125 
z
" id="DejaVuSans-52"/>
       </defs>
       <use xlink:href="#DejaVuSans-52"/>
       <use x="63.623047" xlink:href="#DejaVuSans-48"/>
       <use x="127.246094" xlink:href="#DejaVuSans-48"/>
       <use x="190.869141" xlink:href="#DejaVuSans-48"/>
       <use x="254.492188" xlink:href="#DejaVuSans-48"/>
      </g>
     </g>
    </g>
    <g id="xtick_6">
     <g id="line2d_6">
      <g>
       <use style="stroke:#000000;stroke-width:0.8;" x="290.269091" xlink:href="#m0de0d12b65" y="307.584"/>
      </g>
     </g>
     <g id="text_6">
      <!-- 50000 -->
      <g transform="translate(274.362841 322.182437)scale(0.1 -0.1)">
       <defs>
        <path d="M 10.796875 72.90625 
L 49.515625 72.90625 
L 49.515625 64.59375 
L 19.828125 64.59375 
L 19.828125 46.734375 
Q 21.96875 47.46875 24.109375 47.828125 
Q 26.265625 48.1875 28.421875 48.1875 
Q 40.625 48.1875 47.75 41.5 
Q 54.890625 34.8125 54.890625 23.390625 
Q 54.890625 11.625 47.5625 5.09375 
Q 40.234375 -1.421875 26.90625 -1.421875 
Q 22.3125 -1.421875 17.546875 -0.640625 
Q 12.796875 0.140625 7.71875 1.703125 
L 7.71875 11.625 
Q 12.109375 9.234375 16.796875 8.0625 
Q 21.484375 6.890625 26.703125 6.890625 
Q 35.15625 6.890625 40.078125 11.328125 
Q 45.015625 15.765625 45.015625 23.390625 
Q 45.015625 31 40.078125 35.4375 
Q 35.15625 39.890625 26.703125 39.890625 
Q 22.75 39.890625 18.8125 39.015625 
Q 14.890625 38.140625 10.796875 36.28125 
z
" id="DejaVuSans-53"/>
       </defs>
       <use xlink:href="#DejaVuSans-53"/>
       <use x="63.623047" xlink:href="#DejaVuSans-48"/>
       <use x="127.246094" xlink:href="#DejaVuSans-48"/>
       <use x="190.869141" xlink:href="#DejaVuSans-48"/>
       <use x="254.492188" xlink:href="#DejaVuSans-48"/>
      </g>
     </g>
    </g>
    <g id="xtick_7">
     <g id="line2d_7">
      <g>
       <use style="stroke:#000000;stroke-width:0.8;" x="333.556364" xlink:href="#m0de0d12b65" y="307.584"/>
      </g>
     </g>
     <g id="text_7">
      <!-- 60000 -->
      <g transform="translate(317.650114 322.182437)scale(0.1 -0.1)">
       <defs>
        <path d="M 33.015625 40.375 
Q 26.375 40.375 22.484375 35.828125 
Q 18.609375 31.296875 18.609375 23.390625 
Q 18.609375 15.53125 22.484375 10.953125 
Q 26.375 6.390625 33.015625 6.390625 
Q 39.65625 6.390625 43.53125 10.953125 
Q 47.40625 15.53125 47.40625 23.390625 
Q 47.40625 31.296875 43.53125 35.828125 
Q 39.65625 40.375 33.015625 40.375 
z
M 52.59375 71.296875 
L 52.59375 62.3125 
Q 48.875 64.0625 45.09375 64.984375 
Q 41.3125 65.921875 37.59375 65.921875 
Q 27.828125 65.921875 22.671875 59.328125 
Q 17.53125 52.734375 16.796875 39.40625 
Q 19.671875 43.65625 24.015625 45.921875 
Q 28.375 48.1875 33.59375 48.1875 
Q 44.578125 48.1875 50.953125 41.515625 
Q 57.328125 34.859375 57.328125 23.390625 
Q 57.328125 12.15625 50.6875 5.359375 
Q 44.046875 -1.421875 33.015625 -1.421875 
Q 20.359375 -1.421875 13.671875 8.265625 
Q 6.984375 17.96875 6.984375 36.375 
Q 6.984375 53.65625 15.1875 63.9375 
Q 23.390625 74.21875 37.203125 74.21875 
Q 40.921875 74.21875 44.703125 73.484375 
Q 48.484375 72.75 52.59375 71.296875 
z
" id="DejaVuSans-54"/>
       </defs>
       <use xlink:href="#DejaVuSans-54"/>
       <use x="63.623047" xlink:href="#DejaVuSans-48"/>
       <use x="127.246094" xlink:href="#DejaVuSans-48"/>
       <use x="190.869141" xlink:href="#DejaVuSans-48"/>
       <use x="254.492188" xlink:href="#DejaVuSans-48"/>
      </g>
     </g>
    </g>
    <g id="xtick_8">
     <g id="line2d_8">
      <g>
       <use style="stroke:#000000;stroke-width:0.8;" x="376.843636" xlink:href="#m0de0d12b65" y="307.584"/>
      </g>
     </g>
     <g id="text_8">
      <!-- 70000 -->
      <g transform="translate(360.937386 322.182437)scale(0.1 -0.1)">
       <defs>
        <path d="M 8.203125 72.90625 
L 55.078125 72.90625 
L 55.078125 68.703125 
L 28.609375 0 
L 18.3125 0 
L 43.21875 64.59375 
L 8.203125 64.59375 
z
" id="DejaVuSans-55"/>
       </defs>
       <use xlink:href="#DejaVuSans-55"/>
       <use x="63.623047" xlink:href="#DejaVuSans-48"/>
       <use x="127.246094" xlink:href="#DejaVuSans-48"/>
       <use x="190.869141" xlink:href="#DejaVuSans-48"/>
       <use x="254.492188" xlink:href="#DejaVuSans-48"/>
      </g>
     </g>
    </g>
    <g id="text_9">
     <!-- Episodes -->
     <g transform="translate(213.917812 335.860562)scale(0.1 -0.1)">
      <defs>
       <path d="M 9.8125 72.90625 
L 55.90625 72.90625 
L 55.90625 64.59375 
L 19.671875 64.59375 
L 19.671875 43.015625 
L 54.390625 43.015625 
L 54.390625 34.71875 
L 19.671875 34.71875 
L 19.671875 8.296875 
L 56.78125 8.296875 
L 56.78125 0 
L 9.8125 0 
z
" id="DejaVuSans-69"/>
       <path d="M 18.109375 8.203125 
L 18.109375 -20.796875 
L 9.078125 -20.796875 
L 9.078125 54.6875 
L 18.109375 54.6875 
L 18.109375 46.390625 
Q 20.953125 51.265625 25.265625 53.625 
Q 29.59375 56 35.59375 56 
Q 45.5625 56 51.78125 48.09375 
Q 58.015625 40.1875 58.015625 27.296875 
Q 58.015625 14.40625 51.78125 6.484375 
Q 45.5625 -1.421875 35.59375 -1.421875 
Q 29.59375 -1.421875 25.265625 0.953125 
Q 20.953125 3.328125 18.109375 8.203125 
z
M 48.6875 27.296875 
Q 48.6875 37.203125 44.609375 42.84375 
Q 40.53125 48.484375 33.40625 48.484375 
Q 26.265625 48.484375 22.1875 42.84375 
Q 18.109375 37.203125 18.109375 27.296875 
Q 18.109375 17.390625 22.1875 11.75 
Q 26.265625 6.109375 33.40625 6.109375 
Q 40.53125 6.109375 44.609375 11.75 
Q 48.6875 17.390625 48.6875 27.296875 
z
" id="DejaVuSans-112"/>
       <path d="M 9.421875 54.6875 
L 18.40625 54.6875 
L 18.40625 0 
L 9.421875 0 
z
M 9.421875 75.984375 
L 18.40625 75.984375 
L 18.40625 64.59375 
L 9.421875 64.59375 
z
" id="DejaVuSans-105"/>
       <path d="M 44.28125 53.078125 
L 44.28125 44.578125 
Q 40.484375 46.53125 36.375 47.5 
Q 32.28125 48.484375 27.875 48.484375 
Q 21.1875 48.484375 17.84375 46.4375 
Q 14.5 44.390625 14.5 40.28125 
Q 14.5 37.15625 16.890625 35.375 
Q 19.28125 33.59375 26.515625 31.984375 
L 29.59375 31.296875 
Q 39.15625 29.25 43.1875 25.515625 
Q 47.21875 21.78125 47.21875 15.09375 
Q 47.21875 7.46875 41.1875 3.015625 
Q 35.15625 -1.421875 24.609375 -1.421875 
Q 20.21875 -1.421875 15.453125 -0.5625 
Q 10.6875 0.296875 5.421875 2 
L 5.421875 11.28125 
Q 10.40625 8.6875 15.234375 7.390625 
Q 20.0625 6.109375 24.8125 6.109375 
Q 31.15625 6.109375 34.5625 8.28125 
Q 37.984375 10.453125 37.984375 14.40625 
Q 37.984375 18.0625 35.515625 20.015625 
Q 33.0625 21.96875 24.703125 23.78125 
L 21.578125 24.515625 
Q 13.234375 26.265625 9.515625 29.90625 
Q 5.8125 33.546875 5.8125 39.890625 
Q 5.8125 47.609375 11.28125 51.796875 
Q 16.75 56 26.8125 56 
Q 31.78125 56 36.171875 55.265625 
Q 40.578125 54.546875 44.28125 53.078125 
z
" id="DejaVuSans-115"/>
       <path d="M 30.609375 48.390625 
Q 23.390625 48.390625 19.1875 42.75 
Q 14.984375 37.109375 14.984375 27.296875 
Q 14.984375 17.484375 19.15625 11.84375 
Q 23.34375 6.203125 30.609375 6.203125 
Q 37.796875 6.203125 41.984375 11.859375 
Q 46.1875 17.53125 46.1875 27.296875 
Q 46.1875 37.015625 41.984375 42.703125 
Q 37.796875 48.390625 30.609375 48.390625 
z
M 30.609375 56 
Q 42.328125 56 49.015625 48.375 
Q 55.71875 40.765625 55.71875 27.296875 
Q 55.71875 13.875 49.015625 6.21875 
Q 42.328125 -1.421875 30.609375 -1.421875 
Q 18.84375 -1.421875 12.171875 6.21875 
Q 5.515625 13.875 5.515625 27.296875 
Q 5.515625 40.765625 12.171875 48.375 
Q 18.84375 56 30.609375 56 
z
" id="DejaVuSans-111"/>
       <path d="M 45.40625 46.390625 
L 45.40625 75.984375 
L 54.390625 75.984375 
L 54.390625 0 
L 45.40625 0 
L 45.40625 8.203125 
Q 42.578125 3.328125 38.25 0.953125 
Q 33.9375 -1.421875 27.875 -1.421875 
Q 17.96875 -1.421875 11.734375 6.484375 
Q 5.515625 14.40625 5.515625 27.296875 
Q 5.515625 40.1875 11.734375 48.09375 
Q 17.96875 56 27.875 56 
Q 33.9375 56 38.25 53.625 
Q 42.578125 51.265625 45.40625 46.390625 
z
M 14.796875 27.296875 
Q 14.796875 17.390625 18.875 11.75 
Q 22.953125 6.109375 30.078125 6.109375 
Q 37.203125 6.109375 41.296875 11.75 
Q 45.40625 17.390625 45.40625 27.296875 
Q 45.40625 37.203125 41.296875 42.84375 
Q 37.203125 48.484375 30.078125 48.484375 
Q 22.953125 48.484375 18.875 42.84375 
Q 14.796875 37.203125 14.796875 27.296875 
z
" id="DejaVuSans-100"/>
       <path d="M 56.203125 29.59375 
L 56.203125 25.203125 
L 14.890625 25.203125 
Q 15.484375 15.921875 20.484375 11.0625 
Q 25.484375 6.203125 34.421875 6.203125 
Q 39.59375 6.203125 44.453125 7.46875 
Q 49.3125 8.734375 54.109375 11.28125 
L 54.109375 2.78125 
Q 49.265625 0.734375 44.1875 -0.34375 
Q 39.109375 -1.421875 33.890625 -1.421875 
Q 20.796875 -1.421875 13.15625 6.1875 
Q 5.515625 13.8125 5.515625 26.8125 
Q 5.515625 40.234375 12.765625 48.109375 
Q 20.015625 56 32.328125 56 
Q 43.359375 56 49.78125 48.890625 
Q 56.203125 41.796875 56.203125 29.59375 
z
M 47.21875 32.234375 
Q 47.125 39.59375 43.09375 43.984375 
Q 39.0625 48.390625 32.421875 48.390625 
Q 24.90625 48.390625 20.390625 44.140625 
Q 15.875 39.890625 15.1875 32.171875 
z
" id="DejaVuSans-101"/>
      </defs>
      <use xlink:href="#DejaVuSans-69"/>
      <use x="63.183594" xlink:href="#DejaVuSans-112"/>
      <use x="126.660156" xlink:href="#DejaVuSans-105"/>
      <use x="154.443359" xlink:href="#DejaVuSans-115"/>
      <use x="206.542969" xlink:href="#DejaVuSans-111"/>
      <use x="267.724609" xlink:href="#DejaVuSans-100"/>
      <use x="331.201172" xlink:href="#DejaVuSans-101"/>
      <use x="392.724609" xlink:href="#DejaVuSans-115"/>
     </g>
    </g>
   </g>
   <g id="matplotlib.axis_2">
    <g id="ytick_1">
     <g id="line2d_9">
      <defs>
       <path d="M 0 0 
L -3.5 0 
" id="m1074848712" style="stroke:#000000;stroke-width:0.8;"/>
      </defs>
      <g>
       <use style="stroke:#000000;stroke-width:0.8;" x="57.6" xlink:href="#m1074848712" y="273.412665"/>
      </g>
     </g>
     <g id="text_10">
      <!-- 20 -->
      <g transform="translate(37.875 277.211883)scale(0.1 -0.1)">
       <use xlink:href="#DejaVuSans-50"/>
       <use x="63.623047" xlink:href="#DejaVuSans-48"/>
      </g>
     </g>
    </g>
    <g id="ytick_2">
     <g id="line2d_10">
      <g>
       <use style="stroke:#000000;stroke-width:0.8;" x="57.6" xlink:href="#m1074848712" y="228.413299"/>
      </g>
     </g>
     <g id="text_11">
      <!-- 30 -->
      <g transform="translate(37.875 232.212518)scale(0.1 -0.1)">
       <use xlink:href="#DejaVuSans-51"/>
       <use x="63.623047" xlink:href="#DejaVuSans-48"/>
      </g>
     </g>
    </g>
    <g id="ytick_3">
     <g id="line2d_11">
      <g>
       <use style="stroke:#000000;stroke-width:0.8;" x="57.6" xlink:href="#m1074848712" y="183.413933"/>
      </g>
     </g>
     <g id="text_12">
      <!-- 40 -->
      <g transform="translate(37.875 187.213152)scale(0.1 -0.1)">
       <use xlink:href="#DejaVuSans-52"/>
       <use x="63.623047" xlink:href="#DejaVuSans-48"/>
      </g>
     </g>
    </g>
    <g id="ytick_4">
     <g id="line2d_12">
      <g>
       <use style="stroke:#000000;stroke-width:0.8;" x="57.6" xlink:href="#m1074848712" y="138.414567"/>
      </g>
     </g>
     <g id="text_13">
      <!-- 50 -->
      <g transform="translate(37.875 142.213786)scale(0.1 -0.1)">
       <use xlink:href="#DejaVuSans-53"/>
       <use x="63.623047" xlink:href="#DejaVuSans-48"/>
      </g>
     </g>
    </g>
    <g id="ytick_5">
     <g id="line2d_13">
      <g>
       <use style="stroke:#000000;stroke-width:0.8;" x="57.6" xlink:href="#m1074848712" y="93.415201"/>
      </g>
     </g>
     <g id="text_14">
      <!-- 60 -->
      <g transform="translate(37.875 97.21442)scale(0.1 -0.1)">
       <use xlink:href="#DejaVuSans-54"/>
       <use x="63.623047" xlink:href="#DejaVuSans-48"/>
      </g>
     </g>
    </g>
    <g id="ytick_6">
     <g id="line2d_14">
      <g>
       <use style="stroke:#000000;stroke-width:0.8;" x="57.6" xlink:href="#m1074848712" y="48.415835"/>
      </g>
     </g>
     <g id="text_15">
      <!-- 70 -->
      <g transform="translate(37.875 52.215054)scale(0.1 -0.1)">
       <use xlink:href="#DejaVuSans-55"/>
       <use x="63.623047" xlink:href="#DejaVuSans-48"/>
      </g>
     </g>
    </g>
    <g id="text_16">
     <!-- Episode rewards -->
     <g transform="translate(31.795312 215.674094)rotate(-90)scale(0.1 -0.1)">
      <defs>
       <path id="DejaVuSans-32"/>
       <path d="M 41.109375 46.296875 
Q 39.59375 47.171875 37.8125 47.578125 
Q 36.03125 48 33.890625 48 
Q 26.265625 48 22.1875 43.046875 
Q 18.109375 38.09375 18.109375 28.8125 
L 18.109375 0 
L 9.078125 0 
L 9.078125 54.6875 
L 18.109375 54.6875 
L 18.109375 46.1875 
Q 20.953125 51.171875 25.484375 53.578125 
Q 30.03125 56 36.53125 56 
Q 37.453125 56 38.578125 55.875 
Q 39.703125 55.765625 41.0625 55.515625 
z
" id="DejaVuSans-114"/>
       <path d="M 4.203125 54.6875 
L 13.1875 54.6875 
L 24.421875 12.015625 
L 35.59375 54.6875 
L 46.1875 54.6875 
L 57.421875 12.015625 
L 68.609375 54.6875 
L 77.59375 54.6875 
L 63.28125 0 
L 52.6875 0 
L 40.921875 44.828125 
L 29.109375 0 
L 18.5 0 
z
" id="DejaVuSans-119"/>
       <path d="M 34.28125 27.484375 
Q 23.390625 27.484375 19.1875 25 
Q 14.984375 22.515625 14.984375 16.5 
Q 14.984375 11.71875 18.140625 8.90625 
Q 21.296875 6.109375 26.703125 6.109375 
Q 34.1875 6.109375 38.703125 11.40625 
Q 43.21875 16.703125 43.21875 25.484375 
L 43.21875 27.484375 
z
M 52.203125 31.203125 
L 52.203125 0 
L 43.21875 0 
L 43.21875 8.296875 
Q 40.140625 3.328125 35.546875 0.953125 
Q 30.953125 -1.421875 24.3125 -1.421875 
Q 15.921875 -1.421875 10.953125 3.296875 
Q 6 8.015625 6 15.921875 
Q 6 25.140625 12.171875 29.828125 
Q 18.359375 34.515625 30.609375 34.515625 
L 43.21875 34.515625 
L 43.21875 35.40625 
Q 43.21875 41.609375 39.140625 45 
Q 35.0625 48.390625 27.6875 48.390625 
Q 23 48.390625 18.546875 47.265625 
Q 14.109375 46.140625 10.015625 43.890625 
L 10.015625 52.203125 
Q 14.9375 54.109375 19.578125 55.046875 
Q 24.21875 56 28.609375 56 
Q 40.484375 56 46.34375 49.84375 
Q 52.203125 43.703125 52.203125 31.203125 
z
" id="DejaVuSans-97"/>
      </defs>
      <use xlink:href="#DejaVuSans-69"/>
      <use x="63.183594" xlink:href="#DejaVuSans-112"/>
      <use x="126.660156" xlink:href="#DejaVuSans-105"/>
      <use x="154.443359" xlink:href="#DejaVuSans-115"/>
      <use x="206.542969" xlink:href="#DejaVuSans-111"/>
      <use x="267.724609" xlink:href="#DejaVuSans-100"/>
      <use x="331.201172" xlink:href="#DejaVuSans-101"/>
      <use x="392.724609" xlink:href="#DejaVuSans-32"/>
      <use x="424.511719" xlink:href="#DejaVuSans-114"/>
      <use x="463.375" xlink:href="#DejaVuSans-101"/>
      <use x="524.898438" xlink:href="#DejaVuSans-119"/>
      <use x="606.685547" xlink:href="#DejaVuSans-97"/>
      <use x="667.964844" xlink:href="#DejaVuSans-114"/>
      <use x="707.328125" xlink:href="#DejaVuSans-100"/>
      <use x="770.804688" xlink:href="#DejaVuSans-115"/>
     </g>
    </g>
   </g>
   <g id="line2d_15">
    <path clip-path="url(#padfde989a8)" d="M 73.832727 174.234062 
L 75.997091 222.263386 
L 78.161455 223.448369 
L 80.325818 221.738393 
L 82.490182 223.013375 
L 84.654545 223.508368 
L 86.818909 224.438355 
L 88.983273 223.448369 
L 91.147636 222.848377 
L 93.312 141.579523 
L 97.640727 140.574537 
L 99.805091 142.659507 
L 101.969455 142.809505 
L 104.133818 140.634536 
L 106.298182 142.329512 
L 108.462545 142.524509 
L 110.626909 141.339526 
L 112.791273 139.974545 
L 114.955636 141.099529 
L 117.12 142.059516 
L 119.284364 141.489524 
L 121.448727 140.004545 
L 123.613091 141.77452 
L 125.777455 141.084529 
L 127.941818 140.694535 
L 130.106182 140.934532 
L 132.270545 140.679535 
L 134.434909 141.354526 
L 136.599273 142.644508 
L 138.763636 142.974503 
L 140.928 142.899504 
L 143.092364 139.734549 
L 145.256727 141.984517 
L 147.421091 140.814533 
L 149.585455 140.244541 
L 151.749818 140.979531 
L 153.914182 140.979531 
L 156.078545 142.47951 
L 158.242909 142.209514 
L 160.407273 140.289541 
L 162.571636 142.44951 
L 164.736 142.689507 
L 166.900364 141.114529 
L 169.064727 140.979531 
L 171.229091 140.604536 
L 173.393455 141.099529 
L 175.557818 140.484538 
L 177.722182 141.834519 
L 179.886545 140.964531 
L 182.050909 142.569509 
L 184.215273 141.249527 
L 186.379636 131.904659 
L 188.544 92.965208 
L 190.708364 91.435229 
L 192.872727 91.870223 
L 195.037091 94.750182 
L 197.201455 91.825224 
L 199.365818 93.670198 
L 201.530182 93.565199 
L 203.694545 93.025207 
L 205.858909 92.305217 
L 210.187636 91.825224 
L 212.352 93.115205 
L 214.516364 93.910194 
L 216.680727 92.590213 
L 218.845091 92.680212 
L 221.009455 93.160205 
L 223.173818 92.11022 
L 227.502545 93.070206 
L 229.666909 93.460201 
L 231.831273 94.315189 
L 233.995636 93.295203 
L 236.16 93.055206 
L 238.324364 90.565241 
L 240.488727 93.835195 
L 242.653091 90.925236 
L 244.817455 94.030193 
L 246.981818 91.660226 
L 249.146182 92.500214 
L 251.310545 91.480229 
L 253.474909 92.500214 
L 255.639273 90.880237 
L 257.803636 90.790238 
L 259.968 91.945222 
L 262.132364 92.530214 
L 264.296727 91.930222 
L 266.461091 92.650212 
L 270.789818 93.700197 
L 272.954182 90.985235 
L 275.118545 92.725211 
L 277.282909 93.610198 
L 279.447273 92.035221 
L 281.611636 92.125219 
L 283.776 90.850237 
L 285.940364 92.81521 
L 288.104727 95.560171 
L 290.269091 90.100248 
L 292.433455 91.990221 
L 294.597818 93.5352 
L 296.762182 92.545213 
L 298.926545 92.980207 
L 301.090909 90.940236 
L 303.255273 92.78521 
L 305.419636 93.055206 
L 307.584 91.645226 
L 309.748364 90.910237 
L 314.077091 92.905208 
L 316.241455 92.905208 
L 318.405818 90.67024 
L 320.570182 92.08022 
L 322.734545 94.090192 
L 324.898909 93.250204 
L 327.063273 93.625198 
L 329.227636 91.900223 
L 331.392 93.4752 
L 333.556364 91.630226 
L 335.720727 91.015235 
L 340.049455 90.625241 
L 342.213818 91.945222 
L 344.378182 91.555227 
L 346.542545 94.22519 
L 348.706909 92.425215 
L 350.871273 93.100206 
L 353.035636 93.400201 
L 355.2 91.525228 
L 357.364364 91.090234 
L 359.528727 92.500214 
L 361.693091 91.915222 
L 363.857455 93.115205 
L 366.021818 90.805238 
L 368.186182 93.250204 
L 370.350545 94.22519 
L 372.514909 93.685197 
L 374.679273 91.750225 
L 376.843636 93.865195 
L 379.008 92.440215 
L 381.172364 92.350216 
L 383.336727 91.975222 
L 385.501091 92.09522 
L 387.665455 89.710253 
L 389.829818 93.610198 
L 391.994182 94.420187 
L 394.158545 92.185219 
L 396.322909 93.940194 
L 398.487273 96.895152 
L 398.487273 96.895152 
" style="fill:none;stroke:#1f77b4;stroke-linecap:square;stroke-width:1.5;"/>
   </g>
   <g id="line2d_16">
    <path clip-path="url(#padfde989a8)" d="M 73.832727 172.98908 
L 75.997091 121.284809 
L 78.161455 147.234443 
L 80.325818 122.169796 
L 82.490182 121.944799 
L 84.654545 122.154796 
L 86.818909 121.539805 
L 88.983273 121.089811 
L 91.147636 123.459778 
L 93.312 123.549777 
L 95.476364 120.279823 
L 97.640727 122.634789 
L 104.133818 121.509805 
L 106.298182 123.024784 
L 108.462545 123.204781 
L 117.12 121.779802 
L 119.284364 148.689422 
L 121.448727 122.124797 
L 123.613091 122.304794 
L 125.777455 124.344765 
L 127.941818 122.274795 
L 130.106182 121.044812 
L 132.270545 122.964785 
L 134.434909 148.074431 
L 136.599273 122.61979 
L 138.763636 145.584466 
L 140.928 122.544791 
L 143.092364 122.409793 
L 145.256727 123.234781 
L 147.421091 123.189782 
L 149.585455 146.919447 
L 151.749818 121.359807 
L 153.914182 122.319794 
L 156.078545 120.654817 
L 158.242909 122.829787 
L 160.407273 122.214795 
L 162.571636 123.759774 
L 164.736 121.8848 
L 166.900364 122.379793 
L 169.064727 121.764802 
L 171.229091 123.609776 
L 173.393455 120.969813 
L 175.557818 123.33978 
L 177.722182 122.259795 
L 179.886545 120.009826 
L 182.050909 122.274795 
L 184.215273 121.509805 
L 186.379636 123.219781 
L 188.544 122.244795 
L 190.708364 147.744436 
L 192.872727 120.48982 
L 195.037091 147.039446 
L 197.201455 122.319794 
L 199.365818 122.784787 
L 201.530182 121.344808 
L 203.694545 122.334794 
L 205.858909 120.804815 
L 208.023273 123.654775 
L 210.187636 122.109797 
L 212.352 120.879814 
L 214.516364 122.58979 
L 216.680727 122.499791 
L 218.845091 120.774816 
L 221.009455 123.924771 
L 223.173818 121.959799 
L 225.338182 122.079797 
L 229.666909 122.634789 
L 231.831273 122.169796 
L 233.995636 121.584804 
L 236.16 123.204781 
L 238.324364 123.024784 
L 240.488727 124.299766 
L 242.653091 123.114783 
L 244.817455 121.359807 
L 246.981818 121.509805 
L 249.146182 122.289794 
L 251.310545 122.244795 
L 253.474909 120.759816 
L 255.639273 122.799787 
L 257.803636 122.544791 
L 259.968 122.57479 
L 262.132364 122.049798 
L 264.296727 123.834773 
L 266.461091 122.949785 
L 268.625455 122.304794 
L 270.789818 120.864814 
L 272.954182 122.289794 
L 275.118545 121.539805 
L 277.282909 121.17981 
L 279.447273 123.684775 
L 281.611636 148.16443 
L 283.776 123.024784 
L 285.940364 122.964785 
L 288.104727 123.084783 
L 290.269091 121.134811 
L 292.433455 123.564776 
L 294.597818 122.964785 
L 296.762182 122.739788 
L 298.926545 121.314808 
L 301.090909 123.27978 
L 303.255273 122.334794 
L 305.419636 123.729774 
L 307.584 122.109797 
L 311.912727 121.674803 
L 314.077091 123.264781 
L 316.241455 122.454792 
L 318.405818 123.249781 
L 320.570182 121.794801 
L 322.734545 121.554805 
L 324.898909 120.699817 
L 327.063273 122.274795 
L 329.227636 121.749802 
L 331.392 122.529791 
L 333.556364 122.469792 
L 335.720727 121.779802 
L 337.885091 147.909433 
L 340.049455 122.034798 
L 342.213818 122.454792 
L 344.378182 123.29478 
L 346.542545 146.349455 
L 348.706909 121.359807 
L 350.871273 121.8698 
L 353.035636 122.544791 
L 355.2 124.269766 
L 357.364364 146.559452 
L 359.528727 121.8698 
L 361.693091 124.464764 
L 363.857455 121.224809 
L 366.021818 122.57479 
L 368.186182 122.61979 
L 370.350545 147.234443 
L 372.514909 121.8998 
L 374.679273 122.379793 
L 376.843636 123.714774 
L 379.008 121.029812 
L 381.172364 147.279442 
L 383.336727 123.504777 
L 385.501091 122.499791 
L 387.665455 122.379793 
L 389.829818 121.674803 
L 391.994182 122.034798 
L 394.158545 122.529791 
L 396.322909 147.309442 
L 398.482944 120.864814 
L 398.482944 120.864814 
" style="fill:none;stroke:#ff7f0e;stroke-linecap:square;stroke-width:1.5;"/>
   </g>
   <g id="line2d_17">
    <path clip-path="url(#padfde989a8)" d="M 73.832727 146.784449 
L 75.997091 146.889448 
L 78.161455 121.359807 
L 80.325818 122.004798 
L 82.490182 120.879814 
L 84.654545 123.474778 
L 86.818909 121.19481 
L 88.983273 118.704845 
L 91.147636 118.584847 
L 93.312 119.349836 
L 95.476364 118.629846 
L 97.640727 118.254851 
L 99.805091 121.614804 
L 101.969455 117.459862 
L 104.133818 115.404891 
L 106.298182 157.659296 
L 108.462545 123.054784 
L 110.626909 119.124839 
L 112.791273 133.014643 
L 114.955636 157.509298 
L 117.12 121.959799 
L 119.284364 122.934785 
L 121.448727 157.494298 
L 123.613091 125.304752 
L 125.777455 153.714352 
L 127.941818 150.354399 
L 130.106182 157.719295 
L 132.270545 162.054234 
L 134.434909 158.484284 
L 136.599273 152.289372 
L 138.763636 152.739365 
L 140.928 151.959376 
L 143.092364 151.914377 
L 145.256727 152.589367 
L 147.421091 152.469369 
L 149.585455 152.484369 
L 151.749818 151.629381 
L 153.914182 158.484284 
L 156.078545 158.124289 
L 158.242909 158.334286 
L 160.407273 157.464299 
L 162.571636 158.229288 
L 164.736 132.999643 
L 166.900364 156.294315 
L 169.064727 102.565072 
L 171.229091 131.919659 
L 173.393455 128.139712 
L 175.557818 127.239725 
L 177.722182 123.504777 
L 179.886545 121.449806 
L 182.050909 122.57479 
L 184.215273 124.134768 
L 186.379636 122.124797 
L 188.544 121.14981 
L 190.708364 92.08022 
L 192.872727 92.605213 
L 195.037091 94.060192 
L 197.201455 94.615184 
L 199.365818 92.845209 
L 201.530182 92.215218 
L 203.694545 91.870223 
L 205.858909 92.920208 
L 208.023273 92.680212 
L 210.187636 92.905208 
L 212.352 91.450229 
L 214.516364 93.385202 
L 216.680727 92.980207 
L 218.845091 91.660226 
L 221.009455 92.545213 
L 223.173818 90.535242 
L 225.338182 92.560213 
L 227.502545 91.675226 
L 229.666909 92.515214 
L 231.831273 92.140219 
L 236.16 93.940194 
L 238.324364 93.280203 
L 240.488727 93.895194 
L 242.653091 90.805238 
L 246.981818 92.650212 
L 249.146182 93.265203 
L 251.310545 91.330231 
L 253.474909 92.485214 
L 255.639273 91.735225 
L 257.803636 92.575213 
L 259.968 94.030193 
L 262.132364 90.775238 
L 264.296727 92.290217 
L 266.461091 90.445243 
L 268.625455 91.870223 
L 270.789818 93.145205 
L 272.954182 91.37523 
L 275.118545 122.334794 
L 277.282909 123.684775 
L 279.447273 154.179345 
L 281.611636 122.514791 
L 283.776 153.234358 
L 285.940364 153.159359 
L 290.269091 91.34523 
L 292.433455 123.29478 
L 294.597818 123.249781 
L 296.762182 121.254809 
L 298.926545 94.105192 
L 301.090909 91.780224 
L 303.255273 91.540228 
L 305.419636 93.655198 
L 307.584 92.875209 
L 309.748364 92.680212 
L 311.912727 94.540185 
L 314.077091 91.615227 
L 316.241455 92.995207 
L 318.405818 90.67024 
L 320.570182 92.755211 
L 322.734545 92.290217 
L 324.898909 92.155219 
L 327.063273 91.840223 
L 329.227636 93.850195 
L 331.392 92.440215 
L 333.556364 91.37523 
L 335.720727 91.540228 
L 337.885091 94.825181 
L 340.049455 92.470215 
L 342.213818 92.215218 
L 344.378182 93.100206 
L 346.542545 91.015235 
L 348.706909 91.795224 
L 350.871273 93.640198 
L 353.035636 94.270189 
L 355.2 91.570227 
L 357.364364 93.040207 
L 359.528727 93.4902 
L 361.693091 92.06522 
L 363.857455 91.735225 
L 366.021818 93.265203 
L 368.186182 92.620212 
L 370.350545 91.465229 
L 372.514909 93.595199 
L 374.679273 92.020221 
L 376.843636 92.125219 
L 379.008 92.740211 
L 381.172364 91.825224 
L 385.501091 92.590213 
L 387.665455 91.480229 
L 389.829818 94.120191 
L 391.994182 92.905208 
L 394.158545 91.480229 
L 396.322909 92.005221 
L 398.482944 91.675226 
L 398.482944 91.675226 
" style="fill:none;stroke:#2ca02c;stroke-linecap:square;stroke-width:1.5;"/>
   </g>
   <g id="patch_3">
    <path d="M 57.6 307.584 
L 57.6 41.472 
" style="fill:none;stroke:#000000;stroke-linecap:square;stroke-linejoin:miter;stroke-width:0.8;"/>
   </g>
   <g id="patch_4">
    <path d="M 414.72 307.584 
L 414.72 41.472 
" style="fill:none;stroke:#000000;stroke-linecap:square;stroke-linejoin:miter;stroke-width:0.8;"/>
   </g>
   <g id="patch_5">
    <path d="M 57.6 307.584 
L 414.72 307.584 
" style="fill:none;stroke:#000000;stroke-linecap:square;stroke-linejoin:miter;stroke-width:0.8;"/>
   </g>
   <g id="patch_6">
    <path d="M 57.6 41.472 
L 414.72 41.472 
" style="fill:none;stroke:#000000;stroke-linecap:square;stroke-linejoin:miter;stroke-width:0.8;"/>
   </g>
   <g id="legend_1">
    <g id="patch_7">
     <path d="M 64.6 93.506375 
L 171.43125 93.506375 
Q 173.43125 93.506375 173.43125 91.506375 
L 173.43125 48.472 
Q 173.43125 46.472 171.43125 46.472 
L 64.6 46.472 
Q 62.6 46.472 62.6 48.472 
L 62.6 91.506375 
Q 62.6 93.506375 64.6 93.506375 
z
" style="fill:#ffffff;opacity:0.8;stroke:#cccccc;stroke-linejoin:miter;"/>
    </g>
    <g id="line2d_18">
     <path d="M 66.6 54.570438 
L 86.6 54.570438 
" style="fill:none;stroke:#1f77b4;stroke-linecap:square;stroke-width:1.5;"/>
    </g>
    <g id="line2d_19"/>
    <g id="text_17">
     <!-- pac-rdp -->
     <g transform="translate(94.6 58.070438)scale(0.1 -0.1)">
      <defs>
       <path d="M 48.78125 52.59375 
L 48.78125 44.1875 
Q 44.96875 46.296875 41.140625 47.34375 
Q 37.3125 48.390625 33.40625 48.390625 
Q 24.65625 48.390625 19.8125 42.84375 
Q 14.984375 37.3125 14.984375 27.296875 
Q 14.984375 17.28125 19.8125 11.734375 
Q 24.65625 6.203125 33.40625 6.203125 
Q 37.3125 6.203125 41.140625 7.25 
Q 44.96875 8.296875 48.78125 10.40625 
L 48.78125 2.09375 
Q 45.015625 0.34375 40.984375 -0.53125 
Q 36.96875 -1.421875 32.421875 -1.421875 
Q 20.0625 -1.421875 12.78125 6.34375 
Q 5.515625 14.109375 5.515625 27.296875 
Q 5.515625 40.671875 12.859375 48.328125 
Q 20.21875 56 33.015625 56 
Q 37.15625 56 41.109375 55.140625 
Q 45.0625 54.296875 48.78125 52.59375 
z
" id="DejaVuSans-99"/>
       <path d="M 4.890625 31.390625 
L 31.203125 31.390625 
L 31.203125 23.390625 
L 4.890625 23.390625 
z
" id="DejaVuSans-45"/>
      </defs>
      <use xlink:href="#DejaVuSans-112"/>
      <use x="63.476562" xlink:href="#DejaVuSans-97"/>
      <use x="124.755859" xlink:href="#DejaVuSans-99"/>
      <use x="179.736328" xlink:href="#DejaVuSans-45"/>
      <use x="215.820312" xlink:href="#DejaVuSans-114"/>
      <use x="255.183594" xlink:href="#DejaVuSans-100"/>
      <use x="318.660156" xlink:href="#DejaVuSans-112"/>
     </g>
    </g>
    <g id="line2d_20">
     <path d="M 66.6 69.248563 
L 86.6 69.248563 
" style="fill:none;stroke:#ff7f0e;stroke-linecap:square;stroke-width:1.5;"/>
    </g>
    <g id="line2d_21"/>
    <g id="text_18">
     <!-- q-learning -->
     <g transform="translate(94.6 72.748563)scale(0.1 -0.1)">
      <defs>
       <path d="M 14.796875 27.296875 
Q 14.796875 17.390625 18.875 11.75 
Q 22.953125 6.109375 30.078125 6.109375 
Q 37.203125 6.109375 41.296875 11.75 
Q 45.40625 17.390625 45.40625 27.296875 
Q 45.40625 37.203125 41.296875 42.84375 
Q 37.203125 48.484375 30.078125 48.484375 
Q 22.953125 48.484375 18.875 42.84375 
Q 14.796875 37.203125 14.796875 27.296875 
z
M 45.40625 8.203125 
Q 42.578125 3.328125 38.25 0.953125 
Q 33.9375 -1.421875 27.875 -1.421875 
Q 17.96875 -1.421875 11.734375 6.484375 
Q 5.515625 14.40625 5.515625 27.296875 
Q 5.515625 40.1875 11.734375 48.09375 
Q 17.96875 56 27.875 56 
Q 33.9375 56 38.25 53.625 
Q 42.578125 51.265625 45.40625 46.390625 
L 45.40625 54.6875 
L 54.390625 54.6875 
L 54.390625 -20.796875 
L 45.40625 -20.796875 
z
" id="DejaVuSans-113"/>
       <path d="M 9.421875 75.984375 
L 18.40625 75.984375 
L 18.40625 0 
L 9.421875 0 
z
" id="DejaVuSans-108"/>
       <path d="M 54.890625 33.015625 
L 54.890625 0 
L 45.90625 0 
L 45.90625 32.71875 
Q 45.90625 40.484375 42.875 44.328125 
Q 39.84375 48.1875 33.796875 48.1875 
Q 26.515625 48.1875 22.3125 43.546875 
Q 18.109375 38.921875 18.109375 30.90625 
L 18.109375 0 
L 9.078125 0 
L 9.078125 54.6875 
L 18.109375 54.6875 
L 18.109375 46.1875 
Q 21.34375 51.125 25.703125 53.5625 
Q 30.078125 56 35.796875 56 
Q 45.21875 56 50.046875 50.171875 
Q 54.890625 44.34375 54.890625 33.015625 
z
" id="DejaVuSans-110"/>
       <path d="M 45.40625 27.984375 
Q 45.40625 37.75 41.375 43.109375 
Q 37.359375 48.484375 30.078125 48.484375 
Q 22.859375 48.484375 18.828125 43.109375 
Q 14.796875 37.75 14.796875 27.984375 
Q 14.796875 18.265625 18.828125 12.890625 
Q 22.859375 7.515625 30.078125 7.515625 
Q 37.359375 7.515625 41.375 12.890625 
Q 45.40625 18.265625 45.40625 27.984375 
z
M 54.390625 6.78125 
Q 54.390625 -7.171875 48.1875 -13.984375 
Q 42 -20.796875 29.203125 -20.796875 
Q 24.46875 -20.796875 20.265625 -20.09375 
Q 16.0625 -19.390625 12.109375 -17.921875 
L 12.109375 -9.1875 
Q 16.0625 -11.328125 19.921875 -12.34375 
Q 23.78125 -13.375 27.78125 -13.375 
Q 36.625 -13.375 41.015625 -8.765625 
Q 45.40625 -4.15625 45.40625 5.171875 
L 45.40625 9.625 
Q 42.625 4.78125 38.28125 2.390625 
Q 33.9375 0 27.875 0 
Q 17.828125 0 11.671875 7.65625 
Q 5.515625 15.328125 5.515625 27.984375 
Q 5.515625 40.671875 11.671875 48.328125 
Q 17.828125 56 27.875 56 
Q 33.9375 56 38.28125 53.609375 
Q 42.625 51.21875 45.40625 46.390625 
L 45.40625 54.6875 
L 54.390625 54.6875 
z
" id="DejaVuSans-103"/>
      </defs>
      <use xlink:href="#DejaVuSans-113"/>
      <use x="63.476562" xlink:href="#DejaVuSans-45"/>
      <use x="99.560547" xlink:href="#DejaVuSans-108"/>
      <use x="127.34375" xlink:href="#DejaVuSans-101"/>
      <use x="188.867188" xlink:href="#DejaVuSans-97"/>
      <use x="250.146484" xlink:href="#DejaVuSans-114"/>
      <use x="289.509766" xlink:href="#DejaVuSans-110"/>
      <use x="352.888672" xlink:href="#DejaVuSans-105"/>
      <use x="380.671875" xlink:href="#DejaVuSans-110"/>
      <use x="444.050781" xlink:href="#DejaVuSans-103"/>
     </g>
    </g>
    <g id="line2d_22">
     <path d="M 66.6 83.926688 
L 86.6 83.926688 
" style="fill:none;stroke:#2ca02c;stroke-linecap:square;stroke-width:1.5;"/>
    </g>
    <g id="line2d_23"/>
    <g id="text_19">
     <!-- pac-rdp-simple -->
     <g transform="translate(94.6 87.426688)scale(0.1 -0.1)">
      <defs>
       <path d="M 52 44.1875 
Q 55.375 50.25 60.0625 53.125 
Q 64.75 56 71.09375 56 
Q 79.640625 56 84.28125 50.015625 
Q 88.921875 44.046875 88.921875 33.015625 
L 88.921875 0 
L 79.890625 0 
L 79.890625 32.71875 
Q 79.890625 40.578125 77.09375 44.375 
Q 74.3125 48.1875 68.609375 48.1875 
Q 61.625 48.1875 57.5625 43.546875 
Q 53.515625 38.921875 53.515625 30.90625 
L 53.515625 0 
L 44.484375 0 
L 44.484375 32.71875 
Q 44.484375 40.625 41.703125 44.40625 
Q 38.921875 48.1875 33.109375 48.1875 
Q 26.21875 48.1875 22.15625 43.53125 
Q 18.109375 38.875 18.109375 30.90625 
L 18.109375 0 
L 9.078125 0 
L 9.078125 54.6875 
L 18.109375 54.6875 
L 18.109375 46.1875 
Q 21.1875 51.21875 25.484375 53.609375 
Q 29.78125 56 35.6875 56 
Q 41.65625 56 45.828125 52.96875 
Q 50 49.953125 52 44.1875 
z
" id="DejaVuSans-109"/>
      </defs>
      <use xlink:href="#DejaVuSans-112"/>
      <use x="63.476562" xlink:href="#DejaVuSans-97"/>
      <use x="124.755859" xlink:href="#DejaVuSans-99"/>
      <use x="179.736328" xlink:href="#DejaVuSans-45"/>
      <use x="215.820312" xlink:href="#DejaVuSans-114"/>
      <use x="255.183594" xlink:href="#DejaVuSans-100"/>
      <use x="318.660156" xlink:href="#DejaVuSans-112"/>
      <use x="382.136719" xlink:href="#DejaVuSans-45"/>
      <use x="418.220703" xlink:href="#DejaVuSans-115"/>
      <use x="470.320312" xlink:href="#DejaVuSans-105"/>
      <use x="498.103516" xlink:href="#DejaVuSans-109"/>
      <use x="595.515625" xlink:href="#DejaVuSans-112"/>
      <use x="658.992188" xlink:href="#DejaVuSans-108"/>
      <use x="686.775391" xlink:href="#DejaVuSans-101"/>
     </g>
    </g>
   </g>
  </g>
 </g>
 <defs>
  <clipPath id="padfde989a8">
   <rect height="266.112" width="357.12" x="57.6" y="41.472"/>
  </clipPath>
 </defs>
</svg>
