<?xml version="1.0" encoding="utf-8" standalone="no"?>
<!DOCTYPE svg PUBLIC "-//W3C//DTD SVG 1.1//EN"
  "http://www.w3.org/Graphics/SVG/1.1/DTD/svg11.dtd">
<!-- Created with matplotlib (https://matplotlib.org/) -->
<svg height="345.6pt" version="1.1" viewBox="0 0 460.8 345.6" width="460.8pt" xmlns="http://www.w3.org/2000/svg" xmlns:xlink="http://www.w3.org/1999/xlink">
 <metadata>
  <rdf:RDF xmlns:cc="http://creativecommons.org/ns#" xmlns:dc="http://purl.org/dc/elements/1.1/" xmlns:rdf="http://www.w3.org/1999/02/22-rdf-syntax-ns#">
   <cc:Work>
    <dc:type rdf:resource="http://purl.org/dc/dcmitype/StillImage"/>
    <dc:date>2021-01-10T16:37:29.930058</dc:date>
    <dc:format>image/svg+xml</dc:format>
    <dc:creator>
     <cc:Agent>
      <dc:title>Matplotlib v3.3.3, https://matplotlib.org/</dc:title>
     </cc:Agent>
    </dc:creator>
   </cc:Work>
  </rdf:RDF>
 </metadata>
 <defs>
  <style type="text/css">*{stroke-linecap:butt;stroke-linejoin:round;}</style>
 </defs>
 <g id="figure_1">
  <g id="patch_1">
   <path d="M 0 345.6 
L 460.8 345.6 
L 460.8 0 
L 0 0 
z
" style="fill:#ffffff;"/>
  </g>
  <g id="axes_1">
   <g id="patch_2">
    <path d="M 57.6 307.584 
L 414.72 307.584 
L 414.72 41.472 
L 57.6 41.472 
z
" style="fill:#ffffff;"/>
   </g>
   <g id="PolyCollection_1">
    <path clip-path="url(#pbd3798eec2)" d="M 73.832727 222.412086 
L 73.832727 225.941578 
L 77.079273 284.160901 
L 80.325818 285.308641 
L 83.572364 285.267321 
L 86.818909 286.836213 
L 90.065455 285.482114 
L 93.312 286.198577 
L 96.558545 286.262386 
L 99.805091 285.653746 
L 103.051636 259.613121 
L 106.298182 262.475217 
L 109.544727 262.113968 
L 112.791273 262.07786 
L 116.037818 261.378708 
L 119.284364 262.934084 
L 122.530909 260.498693 
L 125.777455 260.930339 
L 129.024 264.634397 
L 132.270545 261.482168 
L 135.517091 261.699372 
L 138.763636 264.625827 
L 142.010182 261.975875 
L 145.256727 259.212515 
L 148.503273 263.196811 
L 151.749818 262.845372 
L 154.996364 260.680685 
L 158.242909 264.481148 
L 161.489455 262.527612 
L 164.736 261.763738 
L 167.982545 262.293689 
L 171.229091 256.106344 
L 174.475636 260.320047 
L 177.722182 262.688933 
L 180.968727 262.994364 
L 184.215273 261.615149 
L 187.461818 262.312885 
L 190.708364 261.038973 
L 193.954909 262.671943 
L 197.201455 262.199274 
L 200.448 261.129699 
L 203.694545 261.786388 
L 206.941091 261.304008 
L 210.187636 259.775141 
L 213.434182 262.498354 
L 216.680727 261.994004 
L 219.927273 261.046044 
L 223.173818 261.516794 
L 226.420364 264.156304 
L 229.666909 263.804415 
L 232.913455 261.149195 
L 236.16 259.966742 
L 239.406545 259.530353 
L 242.653091 245.916262 
L 245.899636 189.717113 
L 249.146182 191.960976 
L 252.392727 191.458859 
L 255.639273 188.560958 
L 258.885818 191.754619 
L 262.132364 189.731027 
L 265.378909 191.472803 
L 268.625455 189.109816 
L 271.872 192.428153 
L 275.118545 191.135931 
L 278.365091 190.598138 
L 281.611636 188.897367 
L 284.858182 189.540501 
L 288.104727 190.577735 
L 291.351273 194.361151 
L 294.597818 187.732632 
L 297.844364 190.707898 
L 301.090909 191.270596 
L 304.337455 192.491402 
L 307.584 189.388578 
L 310.830545 194.732856 
L 314.077091 191.442463 
L 317.323636 192.206511 
L 320.570182 192.607823 
L 323.816727 191.547814 
L 327.063273 193.680902 
L 330.309818 191.991747 
L 333.556364 190.962291 
L 336.802909 192.55618 
L 340.049455 189.367083 
L 343.296 190.808481 
L 346.542545 191.345253 
L 349.789091 193.783453 
L 353.035636 191.752305 
L 356.282182 190.924934 
L 359.528727 190.565535 
L 362.775273 189.418661 
L 366.021818 190.924729 
L 369.268364 191.634369 
L 372.514909 191.556866 
L 375.761455 190.301847 
L 379.008 192.842065 
L 382.254545 193.37321 
L 385.501091 193.598234 
L 388.747636 192.389487 
L 391.994182 192.37659 
L 395.240727 191.177237 
L 398.487273 190.586053 
L 398.487273 62.909953 
L 398.487273 62.909953 
L 395.240727 62.508337 
L 391.994182 61.972475 
L 388.747636 62.642026 
L 385.501091 62.608604 
L 382.254545 62.681973 
L 379.008 62.037793 
L 375.761455 62.947719 
L 372.514909 63.493603 
L 369.268364 62.39243 
L 366.021818 63.670775 
L 362.775273 64.134216 
L 359.528727 63.53709 
L 356.282182 64.371975 
L 353.035636 62.445105 
L 349.789091 64.129503 
L 346.542545 64.330793 
L 343.296 63.180403 
L 340.049455 63.939354 
L 336.802909 63.025082 
L 333.556364 63.04555 
L 330.309818 63.286204 
L 327.063273 62.715505 
L 323.816727 63.464741 
L 320.570182 61.513759 
L 317.323636 62.787088 
L 314.077091 62.773904 
L 310.830545 61.417111 
L 307.584 63.538722 
L 304.337455 63.75335 
L 301.090909 63.230124 
L 297.844364 62.693323 
L 294.597818 64.189954 
L 291.351273 62.509177 
L 288.104727 63.486977 
L 284.858182 64.126117 
L 281.611636 63.537054 
L 278.365091 63.769883 
L 275.118545 62.416946 
L 271.872 62.755014 
L 268.625455 64.329319 
L 265.378909 63.558709 
L 262.132364 62.930877 
L 258.885818 62.613403 
L 255.639273 64.745479 
L 252.392727 62.473155 
L 249.146182 63.279062 
L 245.899636 63.001661 
L 242.653091 102.686357 
L 239.406545 173.373462 
L 236.16 174.188227 
L 232.913455 177.460638 
L 229.666909 173.535308 
L 226.420364 174.927451 
L 223.173818 173.396449 
L 219.927273 179.213036 
L 216.680727 177.013923 
L 213.434182 177.305762 
L 210.187636 175.687852 
L 206.941091 171.542937 
L 203.694545 175.174197 
L 200.448 175.679231 
L 197.201455 180.315673 
L 193.954909 178.364369 
L 190.708364 173.533047 
L 187.461818 178.533858 
L 184.215273 175.629789 
L 180.968727 178.060905 
L 177.722182 176.773959 
L 174.475636 176.602624 
L 171.229091 176.98704 
L 167.982545 174.553156 
L 164.736 178.305774 
L 161.489455 174.868981 
L 158.242909 180.403409 
L 154.996364 171.199459 
L 151.749818 180.143498 
L 148.503273 176.758959 
L 145.256727 175.530116 
L 142.010182 182.794941 
L 138.763636 178.268258 
L 135.517091 175.962617 
L 132.270545 178.075509 
L 129.024 182.998906 
L 125.777455 181.129644 
L 122.530909 177.371822 
L 119.284364 171.296712 
L 116.037818 172.624606 
L 112.791273 169.461061 
L 109.544727 182.58102 
L 106.298182 182.352469 
L 103.051636 171.224396 
L 99.805091 281.84384 
L 96.558545 281.53851 
L 93.312 283.384264 
L 90.065455 282.641049 
L 86.818909 283.315335 
L 83.572364 280.543104 
L 80.325818 281.165274 
L 77.079273 280.967076 
L 73.832727 222.412086 
z
" style="fill:#1f77b4;fill-opacity:0.3;"/>
   </g>
   <g id="PolyCollection_2">
    <path clip-path="url(#pbd3798eec2)" d="M 73.832727 256.943381 
L 73.832727 285.75862 
L 77.079273 272.630707 
L 80.325818 265.068914 
L 83.572364 271.37665 
L 86.818909 250.791599 
L 90.065455 267.678726 
L 93.312 270.300419 
L 96.558545 259.969166 
L 99.805091 266.391762 
L 103.051636 276.901189 
L 106.298182 271.910967 
L 109.544727 277.048013 
L 112.791273 276.054235 
L 116.037818 262.029585 
L 119.284364 261.926886 
L 122.530909 263.15852 
L 125.777455 277.905895 
L 129.024 247.232398 
L 132.270545 261.615848 
L 135.517091 267.775924 
L 138.763636 282.527127 
L 142.010182 273.167877 
L 145.256727 272.015307 
L 148.503273 264.402432 
L 151.749818 270.363033 
L 154.996364 282.649232 
L 158.242909 275.070446 
L 161.489455 259.424444 
L 164.736 271.335053 
L 167.982545 269.910183 
L 171.229091 278.897677 
L 174.475636 279.010001 
L 177.722182 283.552457 
L 180.968727 266.021941 
L 184.215273 267.103478 
L 187.461818 269.428366 
L 190.708364 273.68271 
L 193.954909 270.716934 
L 197.201455 283.890627 
L 200.448 263.568046 
L 203.694545 277.408826 
L 206.941091 261.74281 
L 210.187636 269.588064 
L 213.434182 275.636046 
L 216.680727 271.341015 
L 219.927273 266.883502 
L 223.173818 264.095021 
L 226.420364 257.36674 
L 229.666909 275.575267 
L 232.913455 264.920843 
L 236.16 270.270294 
L 239.406545 279.322934 
L 242.653091 271.959867 
L 245.899636 258.046853 
L 249.146182 264.077016 
L 252.392727 252.806685 
L 255.639273 285.479688 
L 258.885818 271.952013 
L 262.132364 271.135955 
L 265.378909 275.472756 
L 268.625455 271.51671 
L 271.872 275.210148 
L 275.118545 267.648162 
L 278.365091 278.311513 
L 281.611636 274.066491 
L 284.858182 265.088706 
L 288.104727 285.380077 
L 291.351273 271.390827 
L 294.597818 277.412405 
L 297.844364 282.59828 
L 301.090909 282.478421 
L 304.337455 275.908536 
L 307.584 259.667843 
L 310.830545 278.949344 
L 314.077091 276.360802 
L 317.323636 268.765934 
L 320.570182 277.009173 
L 323.816727 266.013674 
L 327.063273 270.945331 
L 330.309818 276.21174 
L 333.556364 259.367612 
L 336.802909 276.241704 
L 340.049455 259.398826 
L 343.296 274.022612 
L 346.542545 274.563237 
L 349.789091 281.255823 
L 353.035636 259.523615 
L 356.282182 276.221644 
L 359.528727 270.820557 
L 362.775273 277.340007 
L 366.021818 277.159283 
L 369.268364 273.678208 
L 372.514909 277.59617 
L 375.761455 270.700791 
L 379.008 259.300468 
L 382.254545 267.67712 
L 385.501091 249.009824 
L 388.747636 262.748944 
L 391.994182 265.07624 
L 395.240727 259.053261 
L 398.48078 263.792352 
L 398.48078 243.801527 
L 398.48078 243.801527 
L 395.240727 240.085855 
L 391.994182 245.873006 
L 388.747636 246.513141 
L 385.501091 245.636514 
L 382.254545 236.163299 
L 379.008 243.933332 
L 375.761455 240.76029 
L 372.514909 247.324288 
L 369.268364 247.337135 
L 366.021818 249.865387 
L 362.775273 250.215456 
L 359.528727 253.303712 
L 356.282182 246.841041 
L 353.035636 242.193635 
L 349.789091 250.147884 
L 346.542545 253.731544 
L 343.296 242.689522 
L 340.049455 239.607592 
L 336.802909 246.479757 
L 333.556364 243.354353 
L 330.309818 243.874716 
L 327.063273 248.32598 
L 323.816727 238.092142 
L 320.570182 252.233451 
L 317.323636 245.860944 
L 314.077091 251.971893 
L 310.830545 245.705718 
L 307.584 241.537572 
L 304.337455 246.054651 
L 301.090909 244.091285 
L 297.844364 252.274535 
L 294.597818 257.100228 
L 291.351273 241.131839 
L 288.104727 257.511493 
L 284.858182 249.955223 
L 281.611636 248.446445 
L 278.365091 247.765314 
L 275.118545 242.466981 
L 271.872 247.644011 
L 268.625455 248.209566 
L 265.378909 242.736971 
L 262.132364 241.102357 
L 258.885818 240.172559 
L 255.639273 242.189516 
L 252.392727 245.460415 
L 249.146182 245.222982 
L 245.899636 241.054349 
L 242.653091 251.159689 
L 239.406545 248.914976 
L 236.16 244.167016 
L 232.913455 242.767821 
L 229.666909 243.278993 
L 226.420364 241.791333 
L 223.173818 245.48933 
L 219.927273 243.231641 
L 216.680727 244.57493 
L 213.434182 246.175486 
L 210.187636 242.195283 
L 206.941091 242.685272 
L 203.694545 250.848041 
L 200.448 243.040076 
L 197.201455 250.053301 
L 193.954909 244.990486 
L 190.708364 248.451088 
L 187.461818 244.117971 
L 184.215273 249.494914 
L 180.968727 249.040945 
L 177.722182 247.927078 
L 174.475636 245.190096 
L 171.229091 251.785669 
L 167.982545 243.693025 
L 164.736 252.580691 
L 161.489455 241.231222 
L 158.242909 247.783713 
L 154.996364 254.17614 
L 151.749818 244.680896 
L 148.503273 233.73197 
L 145.256727 243.824811 
L 142.010182 240.037235 
L 138.763636 258.184403 
L 135.517091 249.410132 
L 132.270545 242.641623 
L 129.024 243.489868 
L 125.777455 247.147261 
L 122.530909 242.501759 
L 119.284364 242.766592 
L 116.037818 240.047846 
L 112.791273 244.411359 
L 109.544727 247.644962 
L 106.298182 243.341487 
L 103.051636 247.374735 
L 99.805091 245.770723 
L 96.558545 244.648485 
L 93.312 249.255246 
L 90.065455 245.20412 
L 86.818909 243.229162 
L 83.572364 240.065474 
L 80.325818 247.700191 
L 77.079273 242.773403 
L 73.832727 256.943381 
z
" style="fill:#ff7f0e;fill-opacity:0.3;"/>
   </g>
   <g id="PolyCollection_3">
    <path clip-path="url(#pbd3798eec2)" d="M 73.832727 252.256528 
L 73.832727 295.488 
L 77.079273 285.823508 
L 80.325818 285.544117 
L 83.572364 286.060864 
L 86.818909 284.212887 
L 90.065455 288.169703 
L 93.312 286.688956 
L 96.558545 284.609449 
L 99.805091 289.21202 
L 103.051636 271.255023 
L 106.298182 285.089972 
L 109.544727 282.909542 
L 112.791273 284.026912 
L 116.037818 277.080658 
L 119.284364 276.564735 
L 122.530909 278.419812 
L 125.777455 273.5848 
L 129.024 278.421398 
L 132.270545 278.381889 
L 135.517091 287.408196 
L 138.763636 288.246182 
L 142.010182 278.830195 
L 145.256727 261.702851 
L 148.503273 248.953938 
L 151.749818 252.316965 
L 154.996364 249.068556 
L 158.242909 232.075818 
L 161.489455 233.482298 
L 164.736 235.612589 
L 167.982545 233.418744 
L 171.229091 255.756498 
L 174.475636 234.870324 
L 177.722182 218.071412 
L 180.968727 218.6579 
L 184.215273 216.873745 
L 187.461818 219.756388 
L 190.708364 189.406843 
L 193.954909 208.809453 
L 197.201455 209.884895 
L 200.448 211.088703 
L 203.694545 207.702741 
L 206.941091 208.014455 
L 210.187636 208.640345 
L 213.434182 206.27614 
L 216.680727 210.941133 
L 219.927273 210.654843 
L 223.173818 208.0997 
L 226.420364 208.228613 
L 229.666909 210.862433 
L 232.913455 234.887963 
L 236.16 211.09139 
L 239.406545 208.640879 
L 242.653091 233.879053 
L 245.899636 232.642374 
L 249.146182 233.487585 
L 252.392727 233.57026 
L 255.639273 231.855654 
L 258.885818 230.851789 
L 262.132364 234.412341 
L 265.378909 234.376283 
L 268.625455 232.265464 
L 271.872 232.239927 
L 275.118545 231.256072 
L 278.365091 234.466008 
L 281.611636 233.243533 
L 284.858182 215.262656 
L 288.104727 237.211698 
L 291.351273 221.699011 
L 294.597818 217.565093 
L 297.844364 232.889372 
L 301.090909 218.573229 
L 304.337455 219.429957 
L 307.584 216.375748 
L 310.830545 215.695032 
L 314.077091 191.685009 
L 317.323636 220.056385 
L 320.570182 191.786766 
L 323.816727 194.332757 
L 327.063273 191.267106 
L 330.309818 191.717566 
L 333.556364 191.291584 
L 336.802909 190.344443 
L 340.049455 192.595428 
L 343.296 191.422976 
L 346.542545 187.938056 
L 349.789091 191.148985 
L 353.035636 189.46828 
L 356.282182 191.764951 
L 359.528727 191.231585 
L 362.775273 192.094359 
L 366.021818 189.164335 
L 369.268364 190.260376 
L 372.514909 191.687817 
L 375.761455 188.253939 
L 379.008 153.44385 
L 382.254545 156.042854 
L 385.501091 157.025274 
L 388.747636 155.648438 
L 391.994182 153.019984 
L 395.240727 154.29835 
L 398.48078 154.157625 
L 398.48078 53.690239 
L 398.48078 53.690239 
L 395.240727 54.781711 
L 391.994182 54.183348 
L 388.747636 55.990801 
L 385.501091 54.481267 
L 382.254545 53.568 
L 379.008 54.309231 
L 375.761455 64.445879 
L 372.514909 63.609091 
L 369.268364 63.766422 
L 366.021818 63.611309 
L 362.775273 63.126722 
L 359.528727 64.254892 
L 356.282182 62.811597 
L 353.035636 63.477977 
L 349.789091 63.313821 
L 346.542545 63.358953 
L 343.296 63.722277 
L 340.049455 62.891049 
L 336.802909 64.156277 
L 333.556364 63.739928 
L 330.309818 61.949051 
L 327.063273 62.816563 
L 323.816727 62.06365 
L 320.570182 63.339531 
L 317.323636 81.931292 
L 314.077091 62.910496 
L 310.830545 82.671883 
L 307.584 82.294477 
L 304.337455 82.443979 
L 301.090909 82.656173 
L 297.844364 80.775736 
L 294.597818 81.654881 
L 291.351273 82.56349 
L 288.104727 80.908275 
L 284.858182 81.682494 
L 281.611636 80.971325 
L 278.365091 79.673022 
L 275.118545 80.740832 
L 271.872 80.837518 
L 268.625455 81.096334 
L 265.378909 81.20347 
L 262.132364 81.944643 
L 258.885818 80.481624 
L 255.639273 81.013265 
L 252.392727 81.346002 
L 249.146182 81.580332 
L 245.899636 80.662554 
L 242.653091 80.563287 
L 239.406545 59.717312 
L 236.16 57.645938 
L 232.913455 79.762903 
L 229.666909 58.765868 
L 226.420364 58.575115 
L 223.173818 58.457589 
L 219.927273 59.011372 
L 216.680727 60.014149 
L 213.434182 59.219564 
L 210.187636 59.471407 
L 206.941091 60.38165 
L 203.694545 58.968289 
L 200.448 59.56327 
L 197.201455 58.113116 
L 193.954909 59.96579 
L 190.708364 64.506214 
L 187.461818 82.079634 
L 184.215273 81.872307 
L 180.968727 81.908012 
L 177.722182 81.982664 
L 174.475636 81.524574 
L 171.229091 81.017034 
L 167.982545 81.004639 
L 164.736 80.384214 
L 161.489455 80.524035 
L 158.242909 81.267023 
L 154.996364 81.145899 
L 151.749818 82.162786 
L 148.503273 80.748682 
L 145.256727 81.781413 
L 142.010182 113.80923 
L 138.763636 153.9465 
L 135.517091 154.405348 
L 132.270545 113.726744 
L 129.024 114.293854 
L 125.777455 112.704074 
L 122.530909 114.579794 
L 119.284364 112.32123 
L 116.037818 112.99959 
L 112.791273 115.664469 
L 109.544727 146.108115 
L 106.298182 114.203314 
L 103.051636 213.742269 
L 99.805091 251.878648 
L 96.558545 273.106393 
L 93.312 282.799101 
L 90.065455 276.275827 
L 86.818909 279.322713 
L 83.572364 282.289781 
L 80.325818 282.199908 
L 77.079273 282.527138 
L 73.832727 252.256528 
z
" style="fill:#2ca02c;fill-opacity:0.3;"/>
   </g>
   <g id="matplotlib.axis_1">
    <g id="xtick_1">
     <g id="line2d_1">
      <defs>
       <path d="M 0 0 
L 0 3.5 
" id="m3449dc527f" style="stroke:#000000;stroke-width:0.8;"/>
      </defs>
      <g>
       <use style="stroke:#000000;stroke-width:0.8;" x="73.832727" xlink:href="#m3449dc527f" y="307.584"/>
      </g>
     </g>
     <g id="text_1">
      <!-- 0 -->
      <g transform="translate(70.651477 322.182437)scale(0.1 -0.1)">
       <defs>
        <path d="M 31.78125 66.40625 
Q 24.171875 66.40625 20.328125 58.90625 
Q 16.5 51.421875 16.5 36.375 
Q 16.5 21.390625 20.328125 13.890625 
Q 24.171875 6.390625 31.78125 6.390625 
Q 39.453125 6.390625 43.28125 13.890625 
Q 47.125 21.390625 47.125 36.375 
Q 47.125 51.421875 43.28125 58.90625 
Q 39.453125 66.40625 31.78125 66.40625 
z
M 31.78125 74.21875 
Q 44.046875 74.21875 50.515625 64.515625 
Q 56.984375 54.828125 56.984375 36.375 
Q 56.984375 17.96875 50.515625 8.265625 
Q 44.046875 -1.421875 31.78125 -1.421875 
Q 19.53125 -1.421875 13.0625 8.265625 
Q 6.59375 17.96875 6.59375 36.375 
Q 6.59375 54.828125 13.0625 64.515625 
Q 19.53125 74.21875 31.78125 74.21875 
z
" id="DejaVuSans-48"/>
       </defs>
       <use xlink:href="#DejaVuSans-48"/>
      </g>
     </g>
    </g>
    <g id="xtick_2">
     <g id="line2d_2">
      <g>
       <use style="stroke:#000000;stroke-width:0.8;" x="138.763636" xlink:href="#m3449dc527f" y="307.584"/>
      </g>
     </g>
     <g id="text_2">
      <!-- 10000 -->
      <g transform="translate(122.857386 322.182437)scale(0.1 -0.1)">
       <defs>
        <path d="M 12.40625 8.296875 
L 28.515625 8.296875 
L 28.515625 63.921875 
L 10.984375 60.40625 
L 10.984375 69.390625 
L 28.421875 72.90625 
L 38.28125 72.90625 
L 38.28125 8.296875 
L 54.390625 8.296875 
L 54.390625 0 
L 12.40625 0 
z
" id="DejaVuSans-49"/>
       </defs>
       <use xlink:href="#DejaVuSans-49"/>
       <use x="63.623047" xlink:href="#DejaVuSans-48"/>
       <use x="127.246094" xlink:href="#DejaVuSans-48"/>
       <use x="190.869141" xlink:href="#DejaVuSans-48"/>
       <use x="254.492188" xlink:href="#DejaVuSans-48"/>
      </g>
     </g>
    </g>
    <g id="xtick_3">
     <g id="line2d_3">
      <g>
       <use style="stroke:#000000;stroke-width:0.8;" x="203.694545" xlink:href="#m3449dc527f" y="307.584"/>
      </g>
     </g>
     <g id="text_3">
      <!-- 20000 -->
      <g transform="translate(187.788295 322.182437)scale(0.1 -0.1)">
       <defs>
        <path d="M 19.1875 8.296875 
L 53.609375 8.296875 
L 53.609375 0 
L 7.328125 0 
L 7.328125 8.296875 
Q 12.9375 14.109375 22.625 23.890625 
Q 32.328125 33.6875 34.8125 36.53125 
Q 39.546875 41.84375 41.421875 45.53125 
Q 43.3125 49.21875 43.3125 52.78125 
Q 43.3125 58.59375 39.234375 62.25 
Q 35.15625 65.921875 28.609375 65.921875 
Q 23.96875 65.921875 18.8125 64.3125 
Q 13.671875 62.703125 7.8125 59.421875 
L 7.8125 69.390625 
Q 13.765625 71.78125 18.9375 73 
Q 24.125 74.21875 28.421875 74.21875 
Q 39.75 74.21875 46.484375 68.546875 
Q 53.21875 62.890625 53.21875 53.421875 
Q 53.21875 48.921875 51.53125 44.890625 
Q 49.859375 40.875 45.40625 35.40625 
Q 44.1875 33.984375 37.640625 27.21875 
Q 31.109375 20.453125 19.1875 8.296875 
z
" id="DejaVuSans-50"/>
       </defs>
       <use xlink:href="#DejaVuSans-50"/>
       <use x="63.623047" xlink:href="#DejaVuSans-48"/>
       <use x="127.246094" xlink:href="#DejaVuSans-48"/>
       <use x="190.869141" xlink:href="#DejaVuSans-48"/>
       <use x="254.492188" xlink:href="#DejaVuSans-48"/>
      </g>
     </g>
    </g>
    <g id="xtick_4">
     <g id="line2d_4">
      <g>
       <use style="stroke:#000000;stroke-width:0.8;" x="268.625455" xlink:href="#m3449dc527f" y="307.584"/>
      </g>
     </g>
     <g id="text_4">
      <!-- 30000 -->
      <g transform="translate(252.719205 322.182437)scale(0.1 -0.1)">
       <defs>
        <path d="M 40.578125 39.3125 
Q 47.65625 37.796875 51.625 33 
Q 55.609375 28.21875 55.609375 21.1875 
Q 55.609375 10.40625 48.1875 4.484375 
Q 40.765625 -1.421875 27.09375 -1.421875 
Q 22.515625 -1.421875 17.65625 -0.515625 
Q 12.796875 0.390625 7.625 2.203125 
L 7.625 11.71875 
Q 11.71875 9.328125 16.59375 8.109375 
Q 21.484375 6.890625 26.8125 6.890625 
Q 36.078125 6.890625 40.9375 10.546875 
Q 45.796875 14.203125 45.796875 21.1875 
Q 45.796875 27.640625 41.28125 31.265625 
Q 36.765625 34.90625 28.71875 34.90625 
L 20.21875 34.90625 
L 20.21875 43.015625 
L 29.109375 43.015625 
Q 36.375 43.015625 40.234375 45.921875 
Q 44.09375 48.828125 44.09375 54.296875 
Q 44.09375 59.90625 40.109375 62.90625 
Q 36.140625 65.921875 28.71875 65.921875 
Q 24.65625 65.921875 20.015625 65.03125 
Q 15.375 64.15625 9.8125 62.3125 
L 9.8125 71.09375 
Q 15.4375 72.65625 20.34375 73.4375 
Q 25.25 74.21875 29.59375 74.21875 
Q 40.828125 74.21875 47.359375 69.109375 
Q 53.90625 64.015625 53.90625 55.328125 
Q 53.90625 49.265625 50.4375 45.09375 
Q 46.96875 40.921875 40.578125 39.3125 
z
" id="DejaVuSans-51"/>
       </defs>
       <use xlink:href="#DejaVuSans-51"/>
       <use x="63.623047" xlink:href="#DejaVuSans-48"/>
       <use x="127.246094" xlink:href="#DejaVuSans-48"/>
       <use x="190.869141" xlink:href="#DejaVuSans-48"/>
       <use x="254.492188" xlink:href="#DejaVuSans-48"/>
      </g>
     </g>
    </g>
    <g id="xtick_5">
     <g id="line2d_5">
      <g>
       <use style="stroke:#000000;stroke-width:0.8;" x="333.556364" xlink:href="#m3449dc527f" y="307.584"/>
      </g>
     </g>
     <g id="text_5">
      <!-- 40000 -->
      <g transform="translate(317.650114 322.182437)scale(0.1 -0.1)">
       <defs>
        <path d="M 37.796875 64.3125 
L 12.890625 25.390625 
L 37.796875 25.390625 
z
M 35.203125 72.90625 
L 47.609375 72.90625 
L 47.609375 25.390625 
L 58.015625 25.390625 
L 58.015625 17.1875 
L 47.609375 17.1875 
L 47.609375 0 
L 37.796875 0 
L 37.796875 17.1875 
L 4.890625 17.1875 
L 4.890625 26.703125 
z
" id="DejaVuSans-52"/>
       </defs>
       <use xlink:href="#DejaVuSans-52"/>
       <use x="63.623047" xlink:href="#DejaVuSans-48"/>
       <use x="127.246094" xlink:href="#DejaVuSans-48"/>
       <use x="190.869141" xlink:href="#DejaVuSans-48"/>
       <use x="254.492188" xlink:href="#DejaVuSans-48"/>
      </g>
     </g>
    </g>
    <g id="xtick_6">
     <g id="line2d_6">
      <g>
       <use style="stroke:#000000;stroke-width:0.8;" x="398.487273" xlink:href="#m3449dc527f" y="307.584"/>
      </g>
     </g>
     <g id="text_6">
      <!-- 50000 -->
      <g transform="translate(382.581023 322.182437)scale(0.1 -0.1)">
       <defs>
        <path d="M 10.796875 72.90625 
L 49.515625 72.90625 
L 49.515625 64.59375 
L 19.828125 64.59375 
L 19.828125 46.734375 
Q 21.96875 47.46875 24.109375 47.828125 
Q 26.265625 48.1875 28.421875 48.1875 
Q 40.625 48.1875 47.75 41.5 
Q 54.890625 34.8125 54.890625 23.390625 
Q 54.890625 11.625 47.5625 5.09375 
Q 40.234375 -1.421875 26.90625 -1.421875 
Q 22.3125 -1.421875 17.546875 -0.640625 
Q 12.796875 0.140625 7.71875 1.703125 
L 7.71875 11.625 
Q 12.109375 9.234375 16.796875 8.0625 
Q 21.484375 6.890625 26.703125 6.890625 
Q 35.15625 6.890625 40.078125 11.328125 
Q 45.015625 15.765625 45.015625 23.390625 
Q 45.015625 31 40.078125 35.4375 
Q 35.15625 39.890625 26.703125 39.890625 
Q 22.75 39.890625 18.8125 39.015625 
Q 14.890625 38.140625 10.796875 36.28125 
z
" id="DejaVuSans-53"/>
       </defs>
       <use xlink:href="#DejaVuSans-53"/>
       <use x="63.623047" xlink:href="#DejaVuSans-48"/>
       <use x="127.246094" xlink:href="#DejaVuSans-48"/>
       <use x="190.869141" xlink:href="#DejaVuSans-48"/>
       <use x="254.492188" xlink:href="#DejaVuSans-48"/>
      </g>
     </g>
    </g>
   </g>
   <g id="matplotlib.axis_2">
    <g id="ytick_1">
     <g id="line2d_7">
      <defs>
       <path d="M 0 0 
L -3.5 0 
" id="m01d58dec7b" style="stroke:#000000;stroke-width:0.8;"/>
      </defs>
      <g>
       <use style="stroke:#000000;stroke-width:0.8;" x="57.6" xlink:href="#m01d58dec7b" y="281.132745"/>
      </g>
     </g>
     <g id="text_7">
      <!-- 20 -->
      <g transform="translate(37.875 284.931964)scale(0.1 -0.1)">
       <use xlink:href="#DejaVuSans-50"/>
       <use x="63.623047" xlink:href="#DejaVuSans-48"/>
      </g>
     </g>
    </g>
    <g id="ytick_2">
     <g id="line2d_8">
      <g>
       <use style="stroke:#000000;stroke-width:0.8;" x="57.6" xlink:href="#m01d58dec7b" y="224.262138"/>
      </g>
     </g>
     <g id="text_8">
      <!-- 40 -->
      <g transform="translate(37.875 228.061356)scale(0.1 -0.1)">
       <use xlink:href="#DejaVuSans-52"/>
       <use x="63.623047" xlink:href="#DejaVuSans-48"/>
      </g>
     </g>
    </g>
    <g id="ytick_3">
     <g id="line2d_9">
      <g>
       <use style="stroke:#000000;stroke-width:0.8;" x="57.6" xlink:href="#m01d58dec7b" y="167.39153"/>
      </g>
     </g>
     <g id="text_9">
      <!-- 60 -->
      <g transform="translate(37.875 171.190749)scale(0.1 -0.1)">
       <defs>
        <path d="M 33.015625 40.375 
Q 26.375 40.375 22.484375 35.828125 
Q 18.609375 31.296875 18.609375 23.390625 
Q 18.609375 15.53125 22.484375 10.953125 
Q 26.375 6.390625 33.015625 6.390625 
Q 39.65625 6.390625 43.53125 10.953125 
Q 47.40625 15.53125 47.40625 23.390625 
Q 47.40625 31.296875 43.53125 35.828125 
Q 39.65625 40.375 33.015625 40.375 
z
M 52.59375 71.296875 
L 52.59375 62.3125 
Q 48.875 64.0625 45.09375 64.984375 
Q 41.3125 65.921875 37.59375 65.921875 
Q 27.828125 65.921875 22.671875 59.328125 
Q 17.53125 52.734375 16.796875 39.40625 
Q 19.671875 43.65625 24.015625 45.921875 
Q 28.375 48.1875 33.59375 48.1875 
Q 44.578125 48.1875 50.953125 41.515625 
Q 57.328125 34.859375 57.328125 23.390625 
Q 57.328125 12.15625 50.6875 5.359375 
Q 44.046875 -1.421875 33.015625 -1.421875 
Q 20.359375 -1.421875 13.671875 8.265625 
Q 6.984375 17.96875 6.984375 36.375 
Q 6.984375 53.65625 15.1875 63.9375 
Q 23.390625 74.21875 37.203125 74.21875 
Q 40.921875 74.21875 44.703125 73.484375 
Q 48.484375 72.75 52.59375 71.296875 
z
" id="DejaVuSans-54"/>
       </defs>
       <use xlink:href="#DejaVuSans-54"/>
       <use x="63.623047" xlink:href="#DejaVuSans-48"/>
      </g>
     </g>
    </g>
    <g id="ytick_4">
     <g id="line2d_10">
      <g>
       <use style="stroke:#000000;stroke-width:0.8;" x="57.6" xlink:href="#m01d58dec7b" y="110.520923"/>
      </g>
     </g>
     <g id="text_10">
      <!-- 80 -->
      <g transform="translate(37.875 114.320142)scale(0.1 -0.1)">
       <defs>
        <path d="M 31.78125 34.625 
Q 24.75 34.625 20.71875 30.859375 
Q 16.703125 27.09375 16.703125 20.515625 
Q 16.703125 13.921875 20.71875 10.15625 
Q 24.75 6.390625 31.78125 6.390625 
Q 38.8125 6.390625 42.859375 10.171875 
Q 46.921875 13.96875 46.921875 20.515625 
Q 46.921875 27.09375 42.890625 30.859375 
Q 38.875 34.625 31.78125 34.625 
z
M 21.921875 38.8125 
Q 15.578125 40.375 12.03125 44.71875 
Q 8.5 49.078125 8.5 55.328125 
Q 8.5 64.0625 14.71875 69.140625 
Q 20.953125 74.21875 31.78125 74.21875 
Q 42.671875 74.21875 48.875 69.140625 
Q 55.078125 64.0625 55.078125 55.328125 
Q 55.078125 49.078125 51.53125 44.71875 
Q 48 40.375 41.703125 38.8125 
Q 48.828125 37.15625 52.796875 32.3125 
Q 56.78125 27.484375 56.78125 20.515625 
Q 56.78125 9.90625 50.3125 4.234375 
Q 43.84375 -1.421875 31.78125 -1.421875 
Q 19.734375 -1.421875 13.25 4.234375 
Q 6.78125 9.90625 6.78125 20.515625 
Q 6.78125 27.484375 10.78125 32.3125 
Q 14.796875 37.15625 21.921875 38.8125 
z
M 18.3125 54.390625 
Q 18.3125 48.734375 21.84375 45.5625 
Q 25.390625 42.390625 31.78125 42.390625 
Q 38.140625 42.390625 41.71875 45.5625 
Q 45.3125 48.734375 45.3125 54.390625 
Q 45.3125 60.0625 41.71875 63.234375 
Q 38.140625 66.40625 31.78125 66.40625 
Q 25.390625 66.40625 21.84375 63.234375 
Q 18.3125 60.0625 18.3125 54.390625 
z
" id="DejaVuSans-56"/>
       </defs>
       <use xlink:href="#DejaVuSans-56"/>
       <use x="63.623047" xlink:href="#DejaVuSans-48"/>
      </g>
     </g>
    </g>
    <g id="ytick_5">
     <g id="line2d_11">
      <g>
       <use style="stroke:#000000;stroke-width:0.8;" x="57.6" xlink:href="#m01d58dec7b" y="53.650316"/>
      </g>
     </g>
     <g id="text_11">
      <!-- 100 -->
      <g transform="translate(31.5125 57.449534)scale(0.1 -0.1)">
       <use xlink:href="#DejaVuSans-49"/>
       <use x="63.623047" xlink:href="#DejaVuSans-48"/>
       <use x="127.246094" xlink:href="#DejaVuSans-48"/>
      </g>
     </g>
    </g>
   </g>
   <g id="line2d_12">
    <path clip-path="url(#pbd3798eec2)" d="M 73.832727 224.176832 
L 77.079273 282.563989 
L 80.325818 283.236958 
L 83.572364 282.905212 
L 86.818909 285.075774 
L 90.065455 284.061581 
L 93.312 284.791421 
L 96.558545 283.900448 
L 99.805091 283.748793 
L 103.051636 215.418758 
L 106.298182 222.413843 
L 109.544727 222.347494 
L 112.791273 215.76946 
L 116.037818 217.001657 
L 119.284364 217.115398 
L 122.530909 218.935257 
L 125.777455 221.029992 
L 129.024 223.816651 
L 132.270545 219.778838 
L 135.517091 218.830995 
L 138.763636 221.447043 
L 142.010182 222.385408 
L 145.256727 217.371316 
L 148.503273 219.977885 
L 151.749818 221.494435 
L 154.996364 215.940072 
L 158.242909 222.442278 
L 161.489455 218.698297 
L 164.736 220.034756 
L 167.982545 218.423422 
L 171.229091 216.546692 
L 174.475636 218.461336 
L 177.722182 219.731446 
L 180.968727 220.527635 
L 184.215273 218.622469 
L 187.461818 220.423372 
L 190.708364 217.28601 
L 193.954909 220.518156 
L 197.201455 221.257474 
L 200.448 218.404465 
L 203.694545 218.480293 
L 206.941091 216.423472 
L 210.187636 217.731496 
L 213.434182 219.902058 
L 216.680727 219.503964 
L 219.927273 220.12954 
L 223.173818 217.456622 
L 226.420364 219.541877 
L 229.666909 218.669861 
L 232.913455 219.304916 
L 236.16 217.077484 
L 239.406545 216.451908 
L 242.653091 174.301309 
L 245.899636 126.359387 
L 249.146182 127.620019 
L 252.392727 126.966007 
L 255.639273 126.653219 
L 258.885818 127.184011 
L 262.132364 126.330952 
L 265.378909 127.515756 
L 268.625455 126.719568 
L 271.872 127.591584 
L 275.118545 126.776438 
L 278.365091 127.184011 
L 281.611636 126.217211 
L 284.858182 126.833309 
L 288.104727 127.032356 
L 291.351273 128.435164 
L 294.597818 125.961293 
L 297.844364 126.700611 
L 301.090909 127.25036 
L 304.337455 128.122376 
L 307.584 126.46365 
L 310.830545 128.074984 
L 314.077091 127.108183 
L 317.323636 127.496799 
L 320.570182 127.060791 
L 323.816727 127.506278 
L 327.063273 128.198203 
L 330.309818 127.638976 
L 333.556364 127.003921 
L 336.802909 127.790631 
L 340.049455 126.653219 
L 343.296 126.994442 
L 346.542545 127.838023 
L 349.789091 128.956478 
L 353.035636 127.098705 
L 356.282182 127.648454 
L 359.528727 127.051313 
L 362.775273 126.776438 
L 366.021818 127.297752 
L 369.268364 127.013399 
L 372.514909 127.525235 
L 375.761455 126.624783 
L 379.008 127.439929 
L 382.254545 128.027592 
L 385.501091 128.103419 
L 388.747636 127.515756 
L 391.994182 127.174532 
L 395.240727 126.842787 
L 398.487273 126.748003 
" style="fill:none;stroke:#1f77b4;stroke-linecap:square;stroke-width:1.5;"/>
   </g>
   <g id="line2d_13">
    <path clip-path="url(#pbd3798eec2)" d="M 73.832727 271.351001 
L 77.079273 257.702055 
L 80.325818 256.384552 
L 83.572364 255.721062 
L 86.818909 247.010381 
L 90.065455 256.441423 
L 93.312 259.777832 
L 96.558545 252.308826 
L 99.805091 256.081243 
L 103.051636 262.137962 
L 106.298182 257.626227 
L 109.544727 262.346488 
L 112.791273 260.232797 
L 116.037818 251.038715 
L 119.284364 252.346739 
L 122.530909 252.83014 
L 125.777455 262.526578 
L 129.024 245.361133 
L 132.270545 252.128735 
L 135.517091 258.593028 
L 138.763636 270.355765 
L 142.010182 256.602556 
L 145.256727 257.920059 
L 148.503273 249.067201 
L 151.749818 257.521965 
L 154.996364 268.412686 
L 158.242909 261.42708 
L 161.489455 250.327833 
L 164.736 261.957872 
L 167.982545 256.801604 
L 171.229091 265.341673 
L 174.475636 262.100049 
L 177.722182 265.739767 
L 180.968727 257.531443 
L 184.215273 258.299196 
L 187.461818 256.773168 
L 190.708364 261.066899 
L 193.954909 257.85371 
L 197.201455 266.971964 
L 200.448 253.304061 
L 203.694545 264.128434 
L 206.941091 252.214041 
L 210.187636 255.891674 
L 213.434182 260.905766 
L 216.680727 257.957973 
L 219.927273 255.057572 
L 223.173818 254.792175 
L 226.420364 249.579036 
L 229.666909 259.42713 
L 232.913455 253.844332 
L 236.16 257.218655 
L 239.406545 264.118955 
L 242.653091 261.559778 
L 245.899636 249.550601 
L 249.146182 254.649999 
L 252.392727 249.13355 
L 255.639273 263.834602 
L 258.885818 256.062286 
L 262.132364 256.119156 
L 265.378909 259.104863 
L 268.625455 259.863138 
L 271.872 261.42708 
L 275.118545 255.057572 
L 278.365091 263.038414 
L 281.611636 261.256468 
L 284.858182 257.521965 
L 288.104727 271.445785 
L 291.351273 256.261333 
L 294.597818 267.256317 
L 297.844364 267.436407 
L 301.090909 263.284853 
L 304.337455 260.981593 
L 307.584 250.602707 
L 310.830545 262.327531 
L 314.077091 264.166347 
L 317.323636 257.313439 
L 320.570182 264.621312 
L 323.816727 252.052908 
L 327.063273 259.635656 
L 330.309818 260.043228 
L 333.556364 251.360982 
L 336.802909 261.360731 
L 340.049455 249.503209 
L 343.296 258.356067 
L 346.542545 264.14739 
L 349.789091 265.701854 
L 353.035636 250.858625 
L 356.282182 261.531342 
L 359.528727 262.062135 
L 362.775273 263.777731 
L 366.021818 263.512335 
L 369.268364 260.507672 
L 372.514909 262.460229 
L 375.761455 255.73054 
L 379.008 251.6169 
L 382.254545 251.92021 
L 385.501091 247.323169 
L 388.747636 254.631042 
L 391.994182 255.474623 
L 395.240727 249.569558 
L 398.48078 253.79694 
" style="fill:none;stroke:#ff7f0e;stroke-linecap:square;stroke-width:1.5;"/>
   </g>
   <g id="line2d_14">
    <path clip-path="url(#pbd3798eec2)" d="M 73.832727 273.872264 
L 77.079273 284.175323 
L 80.325818 283.872013 
L 83.572364 284.175323 
L 86.818909 281.7678 
L 90.065455 282.222765 
L 93.312 284.744029 
L 96.558545 278.857921 
L 99.805091 270.545334 
L 103.051636 242.498646 
L 106.298182 199.646643 
L 109.544727 214.508829 
L 112.791273 199.84569 
L 116.037818 195.040124 
L 119.284364 194.442983 
L 122.530909 196.499803 
L 125.777455 193.144437 
L 129.024 196.357626 
L 132.270545 196.054316 
L 135.517091 220.906772 
L 138.763636 221.096341 
L 142.010182 196.319713 
L 145.256727 171.742132 
L 148.503273 164.85131 
L 151.749818 167.239875 
L 154.996364 165.107228 
L 158.242909 156.671421 
L 161.489455 157.003166 
L 164.736 157.998402 
L 167.982545 157.211692 
L 171.229091 168.386766 
L 174.475636 158.197449 
L 177.722182 150.027038 
L 180.968727 150.282956 
L 184.215273 149.373026 
L 187.461818 150.918011 
L 190.708364 126.956528 
L 193.954909 134.387621 
L 197.201455 133.999005 
L 200.448 135.325986 
L 203.694545 133.335515 
L 206.941091 134.198052 
L 210.187636 134.055876 
L 213.434182 132.747852 
L 216.680727 135.477641 
L 219.927273 134.833108 
L 223.173818 133.278644 
L 226.420364 133.401864 
L 229.666909 134.814151 
L 232.913455 157.325433 
L 236.16 134.368664 
L 239.406545 134.179096 
L 242.653091 157.22117 
L 245.899636 156.652464 
L 249.146182 157.533958 
L 252.392727 157.458131 
L 255.639273 156.43446 
L 258.885818 155.666707 
L 262.132364 158.178492 
L 265.378909 157.789876 
L 268.625455 156.680899 
L 271.872 156.538723 
L 275.118545 155.998452 
L 278.365091 157.069515 
L 281.611636 157.107429 
L 284.858182 148.472575 
L 288.104727 159.059986 
L 291.351273 152.131251 
L 294.597818 149.609987 
L 297.844364 156.832554 
L 301.090909 150.614701 
L 304.337455 150.936968 
L 307.584 149.335112 
L 310.830545 149.183458 
L 314.077091 127.297752 
L 317.323636 150.993839 
L 320.570182 127.563148 
L 323.816727 128.198203 
L 327.063273 127.041834 
L 330.309818 126.833309 
L 333.556364 127.515756 
L 336.802909 127.25036 
L 340.049455 127.743239 
L 343.296 127.572627 
L 346.542545 125.648505 
L 349.789091 127.231403 
L 353.035636 126.473128 
L 356.282182 127.288274 
L 359.528727 127.743239 
L 362.775273 127.61054 
L 366.021818 126.387822 
L 369.268364 127.013399 
L 372.514909 127.648454 
L 375.761455 126.349909 
L 379.008 103.87654 
L 382.254545 104.805427 
L 385.501091 105.75327 
L 388.747636 105.819619 
L 391.994182 103.601666 
L 395.240727 104.540031 
L 398.48078 103.923932 
" style="fill:none;stroke:#2ca02c;stroke-linecap:square;stroke-width:1.5;"/>
   </g>
   <g id="patch_3">
    <path d="M 57.6 307.584 
L 57.6 41.472 
" style="fill:none;stroke:#000000;stroke-linecap:square;stroke-linejoin:miter;stroke-width:0.8;"/>
   </g>
   <g id="patch_4">
    <path d="M 414.72 307.584 
L 414.72 41.472 
" style="fill:none;stroke:#000000;stroke-linecap:square;stroke-linejoin:miter;stroke-width:0.8;"/>
   </g>
   <g id="patch_5">
    <path d="M 57.6 307.584 
L 414.72 307.584 
" style="fill:none;stroke:#000000;stroke-linecap:square;stroke-linejoin:miter;stroke-width:0.8;"/>
   </g>
   <g id="patch_6">
    <path d="M 57.6 41.472 
L 414.72 41.472 
" style="fill:none;stroke:#000000;stroke-linecap:square;stroke-linejoin:miter;stroke-width:0.8;"/>
   </g>
   <g id="legend_1">
    <g id="patch_7">
     <path d="M 300.88875 93.506375 
L 407.72 93.506375 
Q 409.72 93.506375 409.72 91.506375 
L 409.72 48.472 
Q 409.72 46.472 407.72 46.472 
L 300.88875 46.472 
Q 298.88875 46.472 298.88875 48.472 
L 298.88875 91.506375 
Q 298.88875 93.506375 300.88875 93.506375 
z
" style="fill:#ffffff;opacity:0.8;stroke:#cccccc;stroke-linejoin:miter;"/>
    </g>
    <g id="line2d_15">
     <path d="M 302.88875 54.570438 
L 322.88875 54.570438 
" style="fill:none;stroke:#1f77b4;stroke-linecap:square;stroke-width:1.5;"/>
    </g>
    <g id="line2d_16"/>
    <g id="text_12">
     <!-- pac-rdp -->
     <g transform="translate(330.88875 58.070438)scale(0.1 -0.1)">
      <defs>
       <path d="M 18.109375 8.203125 
L 18.109375 -20.796875 
L 9.078125 -20.796875 
L 9.078125 54.6875 
L 18.109375 54.6875 
L 18.109375 46.390625 
Q 20.953125 51.265625 25.265625 53.625 
Q 29.59375 56 35.59375 56 
Q 45.5625 56 51.78125 48.09375 
Q 58.015625 40.1875 58.015625 27.296875 
Q 58.015625 14.40625 51.78125 6.484375 
Q 45.5625 -1.421875 35.59375 -1.421875 
Q 29.59375 -1.421875 25.265625 0.953125 
Q 20.953125 3.328125 18.109375 8.203125 
z
M 48.6875 27.296875 
Q 48.6875 37.203125 44.609375 42.84375 
Q 40.53125 48.484375 33.40625 48.484375 
Q 26.265625 48.484375 22.1875 42.84375 
Q 18.109375 37.203125 18.109375 27.296875 
Q 18.109375 17.390625 22.1875 11.75 
Q 26.265625 6.109375 33.40625 6.109375 
Q 40.53125 6.109375 44.609375 11.75 
Q 48.6875 17.390625 48.6875 27.296875 
z
" id="DejaVuSans-112"/>
       <path d="M 34.28125 27.484375 
Q 23.390625 27.484375 19.1875 25 
Q 14.984375 22.515625 14.984375 16.5 
Q 14.984375 11.71875 18.140625 8.90625 
Q 21.296875 6.109375 26.703125 6.109375 
Q 34.1875 6.109375 38.703125 11.40625 
Q 43.21875 16.703125 43.21875 25.484375 
L 43.21875 27.484375 
z
M 52.203125 31.203125 
L 52.203125 0 
L 43.21875 0 
L 43.21875 8.296875 
Q 40.140625 3.328125 35.546875 0.953125 
Q 30.953125 -1.421875 24.3125 -1.421875 
Q 15.921875 -1.421875 10.953125 3.296875 
Q 6 8.015625 6 15.921875 
Q 6 25.140625 12.171875 29.828125 
Q 18.359375 34.515625 30.609375 34.515625 
L 43.21875 34.515625 
L 43.21875 35.40625 
Q 43.21875 41.609375 39.140625 45 
Q 35.0625 48.390625 27.6875 48.390625 
Q 23 48.390625 18.546875 47.265625 
Q 14.109375 46.140625 10.015625 43.890625 
L 10.015625 52.203125 
Q 14.9375 54.109375 19.578125 55.046875 
Q 24.21875 56 28.609375 56 
Q 40.484375 56 46.34375 49.84375 
Q 52.203125 43.703125 52.203125 31.203125 
z
" id="DejaVuSans-97"/>
       <path d="M 48.78125 52.59375 
L 48.78125 44.1875 
Q 44.96875 46.296875 41.140625 47.34375 
Q 37.3125 48.390625 33.40625 48.390625 
Q 24.65625 48.390625 19.8125 42.84375 
Q 14.984375 37.3125 14.984375 27.296875 
Q 14.984375 17.28125 19.8125 11.734375 
Q 24.65625 6.203125 33.40625 6.203125 
Q 37.3125 6.203125 41.140625 7.25 
Q 44.96875 8.296875 48.78125 10.40625 
L 48.78125 2.09375 
Q 45.015625 0.34375 40.984375 -0.53125 
Q 36.96875 -1.421875 32.421875 -1.421875 
Q 20.0625 -1.421875 12.78125 6.34375 
Q 5.515625 14.109375 5.515625 27.296875 
Q 5.515625 40.671875 12.859375 48.328125 
Q 20.21875 56 33.015625 56 
Q 37.15625 56 41.109375 55.140625 
Q 45.0625 54.296875 48.78125 52.59375 
z
" id="DejaVuSans-99"/>
       <path d="M 4.890625 31.390625 
L 31.203125 31.390625 
L 31.203125 23.390625 
L 4.890625 23.390625 
z
" id="DejaVuSans-45"/>
       <path d="M 41.109375 46.296875 
Q 39.59375 47.171875 37.8125 47.578125 
Q 36.03125 48 33.890625 48 
Q 26.265625 48 22.1875 43.046875 
Q 18.109375 38.09375 18.109375 28.8125 
L 18.109375 0 
L 9.078125 0 
L 9.078125 54.6875 
L 18.109375 54.6875 
L 18.109375 46.1875 
Q 20.953125 51.171875 25.484375 53.578125 
Q 30.03125 56 36.53125 56 
Q 37.453125 56 38.578125 55.875 
Q 39.703125 55.765625 41.0625 55.515625 
z
" id="DejaVuSans-114"/>
       <path d="M 45.40625 46.390625 
L 45.40625 75.984375 
L 54.390625 75.984375 
L 54.390625 0 
L 45.40625 0 
L 45.40625 8.203125 
Q 42.578125 3.328125 38.25 0.953125 
Q 33.9375 -1.421875 27.875 -1.421875 
Q 17.96875 -1.421875 11.734375 6.484375 
Q 5.515625 14.40625 5.515625 27.296875 
Q 5.515625 40.1875 11.734375 48.09375 
Q 17.96875 56 27.875 56 
Q 33.9375 56 38.25 53.625 
Q 42.578125 51.265625 45.40625 46.390625 
z
M 14.796875 27.296875 
Q 14.796875 17.390625 18.875 11.75 
Q 22.953125 6.109375 30.078125 6.109375 
Q 37.203125 6.109375 41.296875 11.75 
Q 45.40625 17.390625 45.40625 27.296875 
Q 45.40625 37.203125 41.296875 42.84375 
Q 37.203125 48.484375 30.078125 48.484375 
Q 22.953125 48.484375 18.875 42.84375 
Q 14.796875 37.203125 14.796875 27.296875 
z
" id="DejaVuSans-100"/>
      </defs>
      <use xlink:href="#DejaVuSans-112"/>
      <use x="63.476562" xlink:href="#DejaVuSans-97"/>
      <use x="124.755859" xlink:href="#DejaVuSans-99"/>
      <use x="179.736328" xlink:href="#DejaVuSans-45"/>
      <use x="215.820312" xlink:href="#DejaVuSans-114"/>
      <use x="255.183594" xlink:href="#DejaVuSans-100"/>
      <use x="318.660156" xlink:href="#DejaVuSans-112"/>
     </g>
    </g>
    <g id="line2d_17">
     <path d="M 302.88875 69.248563 
L 322.88875 69.248563 
" style="fill:none;stroke:#ff7f0e;stroke-linecap:square;stroke-width:1.5;"/>
    </g>
    <g id="line2d_18"/>
    <g id="text_13">
     <!-- q-learning -->
     <g transform="translate(330.88875 72.748563)scale(0.1 -0.1)">
      <defs>
       <path d="M 14.796875 27.296875 
Q 14.796875 17.390625 18.875 11.75 
Q 22.953125 6.109375 30.078125 6.109375 
Q 37.203125 6.109375 41.296875 11.75 
Q 45.40625 17.390625 45.40625 27.296875 
Q 45.40625 37.203125 41.296875 42.84375 
Q 37.203125 48.484375 30.078125 48.484375 
Q 22.953125 48.484375 18.875 42.84375 
Q 14.796875 37.203125 14.796875 27.296875 
z
M 45.40625 8.203125 
Q 42.578125 3.328125 38.25 0.953125 
Q 33.9375 -1.421875 27.875 -1.421875 
Q 17.96875 -1.421875 11.734375 6.484375 
Q 5.515625 14.40625 5.515625 27.296875 
Q 5.515625 40.1875 11.734375 48.09375 
Q 17.96875 56 27.875 56 
Q 33.9375 56 38.25 53.625 
Q 42.578125 51.265625 45.40625 46.390625 
L 45.40625 54.6875 
L 54.390625 54.6875 
L 54.390625 -20.796875 
L 45.40625 -20.796875 
z
" id="DejaVuSans-113"/>
       <path d="M 9.421875 75.984375 
L 18.40625 75.984375 
L 18.40625 0 
L 9.421875 0 
z
" id="DejaVuSans-108"/>
       <path d="M 56.203125 29.59375 
L 56.203125 25.203125 
L 14.890625 25.203125 
Q 15.484375 15.921875 20.484375 11.0625 
Q 25.484375 6.203125 34.421875 6.203125 
Q 39.59375 6.203125 44.453125 7.46875 
Q 49.3125 8.734375 54.109375 11.28125 
L 54.109375 2.78125 
Q 49.265625 0.734375 44.1875 -0.34375 
Q 39.109375 -1.421875 33.890625 -1.421875 
Q 20.796875 -1.421875 13.15625 6.1875 
Q 5.515625 13.8125 5.515625 26.8125 
Q 5.515625 40.234375 12.765625 48.109375 
Q 20.015625 56 32.328125 56 
Q 43.359375 56 49.78125 48.890625 
Q 56.203125 41.796875 56.203125 29.59375 
z
M 47.21875 32.234375 
Q 47.125 39.59375 43.09375 43.984375 
Q 39.0625 48.390625 32.421875 48.390625 
Q 24.90625 48.390625 20.390625 44.140625 
Q 15.875 39.890625 15.1875 32.171875 
z
" id="DejaVuSans-101"/>
       <path d="M 54.890625 33.015625 
L 54.890625 0 
L 45.90625 0 
L 45.90625 32.71875 
Q 45.90625 40.484375 42.875 44.328125 
Q 39.84375 48.1875 33.796875 48.1875 
Q 26.515625 48.1875 22.3125 43.546875 
Q 18.109375 38.921875 18.109375 30.90625 
L 18.109375 0 
L 9.078125 0 
L 9.078125 54.6875 
L 18.109375 54.6875 
L 18.109375 46.1875 
Q 21.34375 51.125 25.703125 53.5625 
Q 30.078125 56 35.796875 56 
Q 45.21875 56 50.046875 50.171875 
Q 54.890625 44.34375 54.890625 33.015625 
z
" id="DejaVuSans-110"/>
       <path d="M 9.421875 54.6875 
L 18.40625 54.6875 
L 18.40625 0 
L 9.421875 0 
z
M 9.421875 75.984375 
L 18.40625 75.984375 
L 18.40625 64.59375 
L 9.421875 64.59375 
z
" id="DejaVuSans-105"/>
       <path d="M 45.40625 27.984375 
Q 45.40625 37.75 41.375 43.109375 
Q 37.359375 48.484375 30.078125 48.484375 
Q 22.859375 48.484375 18.828125 43.109375 
Q 14.796875 37.75 14.796875 27.984375 
Q 14.796875 18.265625 18.828125 12.890625 
Q 22.859375 7.515625 30.078125 7.515625 
Q 37.359375 7.515625 41.375 12.890625 
Q 45.40625 18.265625 45.40625 27.984375 
z
M 54.390625 6.78125 
Q 54.390625 -7.171875 48.1875 -13.984375 
Q 42 -20.796875 29.203125 -20.796875 
Q 24.46875 -20.796875 20.265625 -20.09375 
Q 16.0625 -19.390625 12.109375 -17.921875 
L 12.109375 -9.1875 
Q 16.0625 -11.328125 19.921875 -12.34375 
Q 23.78125 -13.375 27.78125 -13.375 
Q 36.625 -13.375 41.015625 -8.765625 
Q 45.40625 -4.15625 45.40625 5.171875 
L 45.40625 9.625 
Q 42.625 4.78125 38.28125 2.390625 
Q 33.9375 0 27.875 0 
Q 17.828125 0 11.671875 7.65625 
Q 5.515625 15.328125 5.515625 27.984375 
Q 5.515625 40.671875 11.671875 48.328125 
Q 17.828125 56 27.875 56 
Q 33.9375 56 38.28125 53.609375 
Q 42.625 51.21875 45.40625 46.390625 
L 45.40625 54.6875 
L 54.390625 54.6875 
z
" id="DejaVuSans-103"/>
      </defs>
      <use xlink:href="#DejaVuSans-113"/>
      <use x="63.476562" xlink:href="#DejaVuSans-45"/>
      <use x="99.560547" xlink:href="#DejaVuSans-108"/>
      <use x="127.34375" xlink:href="#DejaVuSans-101"/>
      <use x="188.867188" xlink:href="#DejaVuSans-97"/>
      <use x="250.146484" xlink:href="#DejaVuSans-114"/>
      <use x="289.509766" xlink:href="#DejaVuSans-110"/>
      <use x="352.888672" xlink:href="#DejaVuSans-105"/>
      <use x="380.671875" xlink:href="#DejaVuSans-110"/>
      <use x="444.050781" xlink:href="#DejaVuSans-103"/>
     </g>
    </g>
    <g id="line2d_19">
     <path d="M 302.88875 83.926688 
L 322.88875 83.926688 
" style="fill:none;stroke:#2ca02c;stroke-linecap:square;stroke-width:1.5;"/>
    </g>
    <g id="line2d_20"/>
    <g id="text_14">
     <!-- pac-rdp-simple -->
     <g transform="translate(330.88875 87.426688)scale(0.1 -0.1)">
      <defs>
       <path d="M 44.28125 53.078125 
L 44.28125 44.578125 
Q 40.484375 46.53125 36.375 47.5 
Q 32.28125 48.484375 27.875 48.484375 
Q 21.1875 48.484375 17.84375 46.4375 
Q 14.5 44.390625 14.5 40.28125 
Q 14.5 37.15625 16.890625 35.375 
Q 19.28125 33.59375 26.515625 31.984375 
L 29.59375 31.296875 
Q 39.15625 29.25 43.1875 25.515625 
Q 47.21875 21.78125 47.21875 15.09375 
Q 47.21875 7.46875 41.1875 3.015625 
Q 35.15625 -1.421875 24.609375 -1.421875 
Q 20.21875 -1.421875 15.453125 -0.5625 
Q 10.6875 0.296875 5.421875 2 
L 5.421875 11.28125 
Q 10.40625 8.6875 15.234375 7.390625 
Q 20.0625 6.109375 24.8125 6.109375 
Q 31.15625 6.109375 34.5625 8.28125 
Q 37.984375 10.453125 37.984375 14.40625 
Q 37.984375 18.0625 35.515625 20.015625 
Q 33.0625 21.96875 24.703125 23.78125 
L 21.578125 24.515625 
Q 13.234375 26.265625 9.515625 29.90625 
Q 5.8125 33.546875 5.8125 39.890625 
Q 5.8125 47.609375 11.28125 51.796875 
Q 16.75 56 26.8125 56 
Q 31.78125 56 36.171875 55.265625 
Q 40.578125 54.546875 44.28125 53.078125 
z
" id="DejaVuSans-115"/>
       <path d="M 52 44.1875 
Q 55.375 50.25 60.0625 53.125 
Q 64.75 56 71.09375 56 
Q 79.640625 56 84.28125 50.015625 
Q 88.921875 44.046875 88.921875 33.015625 
L 88.921875 0 
L 79.890625 0 
L 79.890625 32.71875 
Q 79.890625 40.578125 77.09375 44.375 
Q 74.3125 48.1875 68.609375 48.1875 
Q 61.625 48.1875 57.5625 43.546875 
Q 53.515625 38.921875 53.515625 30.90625 
L 53.515625 0 
L 44.484375 0 
L 44.484375 32.71875 
Q 44.484375 40.625 41.703125 44.40625 
Q 38.921875 48.1875 33.109375 48.1875 
Q 26.21875 48.1875 22.15625 43.53125 
Q 18.109375 38.875 18.109375 30.90625 
L 18.109375 0 
L 9.078125 0 
L 9.078125 54.6875 
L 18.109375 54.6875 
L 18.109375 46.1875 
Q 21.1875 51.21875 25.484375 53.609375 
Q 29.78125 56 35.6875 56 
Q 41.65625 56 45.828125 52.96875 
Q 50 49.953125 52 44.1875 
z
" id="DejaVuSans-109"/>
      </defs>
      <use xlink:href="#DejaVuSans-112"/>
      <use x="63.476562" xlink:href="#DejaVuSans-97"/>
      <use x="124.755859" xlink:href="#DejaVuSans-99"/>
      <use x="179.736328" xlink:href="#DejaVuSans-45"/>
      <use x="215.820312" xlink:href="#DejaVuSans-114"/>
      <use x="255.183594" xlink:href="#DejaVuSans-100"/>
      <use x="318.660156" xlink:href="#DejaVuSans-112"/>
      <use x="382.136719" xlink:href="#DejaVuSans-45"/>
      <use x="418.220703" xlink:href="#DejaVuSans-115"/>
      <use x="470.320312" xlink:href="#DejaVuSans-105"/>
      <use x="498.103516" xlink:href="#DejaVuSans-109"/>
      <use x="595.515625" xlink:href="#DejaVuSans-112"/>
      <use x="658.992188" xlink:href="#DejaVuSans-108"/>
      <use x="686.775391" xlink:href="#DejaVuSans-101"/>
     </g>
    </g>
   </g>
  </g>
 </g>
 <defs>
  <clipPath id="pbd3798eec2">
   <rect height="266.112" width="357.12" x="57.6" y="41.472"/>
  </clipPath>
 </defs>
</svg>
